<svg xmlns="http://www.w3.org/2000/svg" viewBox="0 0 297.05 122.41"><defs><style>.cls-1{isolation:isolate;}.cls-2{fill:#fff;}</style></defs><g id="Layer_2" data-name="Layer 2"><g id="Layer_1-2" data-name="Layer 1"><g class="cls-1"><g class="cls-1"><path class="cls-2" d="M277.72,110.58h0l0,0,0,0,0,0m-1-.68a.31.31,0,0,0,0-.08c.19.08.59-.12.6-.12l.29-.38a3.15,3.15,0,0,0-.05.74l.21.52c-.07,0-.07,0-.08,0a.33.33,0,0,0-.34,0,2.22,2.22,0,0,0-.53.48,4.52,4.52,0,0,0,.08-.63,2.19,2.19,0,0,0-.16-.53m.4-2.34h0v0l.06,0v0l-.05,0m-2.56.4a1.11,1.11,0,0,0,.77.74c.2,0,.2,0,.78-.44a1.74,1.74,0,0,0,.16,1.27.11.11,0,0,1-.11,0,.75.75,0,0,0-.69.35,1.24,1.24,0,0,0-.31,1s.36,1.71,1.58.26v0c0,.28-.18.52-.14.81a.82.82,0,0,0,.34.63c.48.23,1.58-.35,1-1.87l.18,0c.11,0,1.57-.6.44-2.22-.53,0-.53,0-.87.43h0a.1.1,0,0,1-.05.06c.07-.13.25-.61-.31-1.31.56-.07.56-.07.66-.19.62-.79,0-2-.68-2a.9.9,0,0,0-.55.62,2.14,2.14,0,0,0,0,.73,5.46,5.46,0,0,0,.32.64,1.29,1.29,0,0,0-.66.14c-.13.06-.11.23-.23.29,0-.6,0-.6,0-.71s-.25-.27-.3-.46c0,0,0-.07,0-.09s-.22-.1-.33-.15c-.65-.34-1.22.63-1,1.38"/><path class="cls-2" d="M278.23,107.86c.13.35.13.35.15.39s.16.15.17.27c.44.25.57.08.7-.09a.94.94,0,0,0,.21-.38,5.17,5.17,0,0,0,.05-.77,2.46,2.46,0,0,0-.36-.65c-.06-.06-.06-.06-.48-.13a1.84,1.84,0,0,0-.37.53,2.76,2.76,0,0,0-.07.83"/><path class="cls-2" d="M273.57,109.68c.08.5.08.5.13.57a1,1,0,0,0,.51.42,1.07,1.07,0,0,0,1-.44,1.82,1.82,0,0,0,.06-1.14,1.08,1.08,0,0,0-.68-.54l-.35.07a1,1,0,0,0-.65,1.06"/><path class="cls-2" d="M275.32,106c0,.08.07.24.07.24a2.86,2.86,0,0,0,.48.45c.08,0,.6,0,.76-.27.24-.43.28-.49,0-1.38l-.61-.44c-.15.08-.32.11-.47.2a.65.65,0,0,0-.18.2,1.28,1.28,0,0,0,0,1"/><path class="cls-2" d="M277.75,113c0,.49.37.86.85.38a1.71,1.71,0,0,0,.47-1.2s-.07-.56-.43-.53a.38.38,0,0,0-.16,0,1.59,1.59,0,0,0-.73,1.31"/><path class="cls-2" d="M277.34,105a1.11,1.11,0,0,0,.74.68h0l0,0,0,0,0,0,0,0h0l0,0,0,0a1.27,1.27,0,0,0,0-1.25c-.17-.37-.52-.7-.89-.57s-.47.55-.2,1.28"/><path class="cls-2" d="M275.49,113.85c0,.58.64.87,1.14.35.66-.7.48-1.65-.15-1.62l-.18,0a1.41,1.41,0,0,0-.81,1.24"/><path class="cls-2" d="M274.11,113c.09.64.86,1,1.43.19a1.07,1.07,0,0,0,.24-.54v-.38c-.24-.7-.78-.6-.84-.58a1.23,1.23,0,0,0-.83,1.31"/><path class="cls-2" d="M272.9,107c.32.72,1.24.89,1.56.09a1,1,0,0,0-1-1.49,1.06,1.06,0,0,0-.58,1.4"/><path class="cls-2" d="M278.77,110.89c0,.65.42.91.78.52.68-.71.39-2-.09-1.89h0l0,0h0l0,0h0l0,0h-.06a1.9,1.9,0,0,0-.46,1.26"/><path class="cls-2" d="M279.53,108.87c.23,1.17.79.42.79.42.4-.64.18-2-.3-1.86l-.11,0c-.58.38-.39,1.35-.38,1.39"/><path class="cls-2" d="M272.53,111.87a.84.84,0,0,0,1.57.33,1.31,1.31,0,0,0,.06-1.27c-.18-.36-.65-.34-.85-.33a1.13,1.13,0,0,0-.78,1.27"/><path class="cls-2" d="M275.78,104.1c.33.71,1,.86,1.27.28s-.32-1.7-1.08-1.51c-.47.28-.33.93-.19,1.23"/><path class="cls-2" d="M272,108.82a.86.86,0,0,0,1.61.29,1,1,0,0,0-.91-1.57,1.06,1.06,0,0,0-.7,1.28"/><path class="cls-2" d="M273.61,105c.3.82,1.16.9,1.44.31a1.09,1.09,0,0,0-1-1.53.89.89,0,0,0-.41,1.22"/><path class="cls-2" d="M278.75,105.9c.29.74.78.8,1,.32.29-.69-.24-1.86-.75-1.68l-.05,0c-.38.22-.32,1-.18,1.33"/><path class="cls-2" d="M276.64,114.7c0,.13,0,.27.08.39a.3.3,0,0,0,.28.14h.18a1.74,1.74,0,0,0,.54-.48c.44-.68.32-1.31-.24-1.2l-.09,0c-.4.3-.4.3-.51.48a1.52,1.52,0,0,0-.24.65"/><path class="cls-2" d="M279.74,111.49V112c.05.23.1.32.23.4l0,0,0,0,0,0,0,0,0,0,0,0,0,0,0,0a2.35,2.35,0,0,0,.34-.73v-.64c-.07-.23-.1-.29-.23-.38l0,0,0,0,0,0,0,0,0,0-.05,0,0,0-.05,0a2.67,2.67,0,0,0-.33.74v.08"/><path class="cls-2" d="M280,106.46c.19.75.19.75.29.85a.3.3,0,0,0,.48,0,2,2,0,0,0,.12-.79c-.1-.45-.22-1-.5-1l-.29.16a1.71,1.71,0,0,0-.1.83"/><path class="cls-2" d="M271,111a1.07,1.07,0,0,0,.47.4c.1,0,.1,0,.4,0a.85.85,0,0,0,.75-.68,2.78,2.78,0,0,0,0-.73,1.14,1.14,0,0,0-.64-.51,3.26,3.26,0,0,0-.6.14.84.84,0,0,0-.33.32,1.31,1.31,0,0,0,0,1.08"/><path class="cls-2" d="M274.05,102.89l0,0,0,.07,0,.07,0,.07,0,.09,0,.08,0,.09.56.39.07,0,.07,0,.06,0,.07,0,.05,0h.06l.05,0,.05,0a.84.84,0,0,0,.15-.73l0,0,0-.05,0-.07,0-.07,0-.07,0-.08,0-.08,0-.09-.57-.37-.06,0-.06,0-.06,0-.06,0h-.05l-.05,0h0l-.05,0a.92.92,0,0,0-.16.71l0,0"/><path class="cls-2" d="M272.92,114.47s0,0,0,0,0,0,0,.06v.07s0,0,0,.07v.21a.92.92,0,0,0,.49.4h.13l.07,0,.07,0h.08l.08,0,.08,0,.09,0,.48-.57V114l-.45-.4-.08,0-.08,0-.08,0h-.09l-.08,0-.08,0-.09,0-.14,0a2.82,2.82,0,0,1-.53.59v.2"/><path class="cls-2" d="M274.28,115.63a.47.47,0,0,0,.46.52h0l.05,0h.26a1.14,1.14,0,0,0,.63-.85c0-.25,0-.6-.36-.69h-.22l0,0h-.19a1.12,1.12,0,0,0-.63,1"/><path class="cls-2" d="M278.76,113.5v.36c0,.27.05.4.18.41a.74.74,0,0,0,.53-.35,2.54,2.54,0,0,0,.29-.57v-.21l0,0v-.18c0-.16-.05-.28-.11-.33s-.12-.1-.26,0a1.5,1.5,0,0,0-.65.9v0"/><path class="cls-2" d="M277.59,103.13c.44.78.92.56,1,.26s-.36-1.72-1.05-1.41c-.11.07-.17.22-.16.47a1.12,1.12,0,0,0,.2.68"/><path class="cls-2" d="M279,104c.44.82.77.55.86.29.23-.67-.51-1.68-.82-1.54l-.05,0c-.44.36,0,1.22,0,1.22"/><path class="cls-2" d="M271.15,105.49v.07l0,.06v.13l0,.07v.06l0,.07a1.21,1.21,0,0,0,.7.54h.39a.84.84,0,0,0,.44-.85v-.23l0,0v-.08a1,1,0,0,0-.77-.58h-.33a.83.83,0,0,0-.45.74v.06"/><path class="cls-2" d="M280.48,109.82a.61.61,0,0,0,.28.55l0,0,0,0,0,0,0,0h0l0,0,0,0h0c.49-.82.24-1.94-.05-1.83h0l0,0h0l0,0h0l0,0h0l0,0a2.19,2.19,0,0,0-.26,1.3"/><path class="cls-2" d="M271.4,113.68a.72.72,0,0,0,.71.63h.37a1,1,0,0,0,.62-.91.74.74,0,0,0-.52-.79l-.2,0H272a1,1,0,0,0-.61,1.1"/><path class="cls-2" d="M270.28,107.68a.82.82,0,0,0,1.55.28c.31-.49,0-1.58-.86-1.48a.93.93,0,0,0-.69,1.2"/><path class="cls-2" d="M275.88,102l0,.06,0,0,0,.06,0,0,0,.05,0,0,0,0a1.19,1.19,0,0,0,.69.43h0l0,0h.07l0,0,0,0h0l0,0a1.08,1.08,0,0,0,0-.76l0,0,0,0,0,0,0-.05,0-.06,0-.05,0,0,0,0a1.14,1.14,0,0,0-.69-.4h-.08l0,0h0l0,0h0l0,0a1.09,1.09,0,0,0,0,.73l0,0"/><path class="cls-2" d="M271.88,103.68v0l0,.06,0,.06v.06l0,.06,0,0v.06a1.24,1.24,0,0,0,.71.52h.14l.06,0h.15l.06,0a1,1,0,0,0,.3-.76l0,0,0,0,0-.06,0-.06,0,0,0-.06,0-.06,0,0a1.29,1.29,0,0,0-.73-.49h-.36a1.11,1.11,0,0,0-.3.73l0,.06"/><path class="cls-2" d="M277.59,115.38s0,.31,0,.31,0,0,0,0a1.52,1.52,0,0,1,.11.2c.37.08.71-.44.84-.64,0,0,.39-.52.17-.83-.09-.14-.27,0-.27,0h0v.07h0v0h0v0a2.51,2.51,0,0,0-.78,1"/><path class="cls-2" d="M275.41,116.39a.93.93,0,0,0,0,.23l.22.23a.7.7,0,0,0,.55-.16,1.67,1.67,0,0,0,.56-.87.4.4,0,0,0-.33-.47.28.28,0,0,0-.14,0,3,3,0,0,0-.34.16l-.38.43a1.38,1.38,0,0,0-.15.43"/><path class="cls-2" d="M281,107.68c.08.39.28.72.41.55.31-.41.13-1.94-.21-1.88a.15.15,0,0,0-.07,0,2.36,2.36,0,0,0-.13,1.3"/><path class="cls-2" d="M269.13,109.4a1.2,1.2,0,0,0,.91.82h.23a1.19,1.19,0,0,0,.67-1,1,1,0,0,0-.69-.81.69.69,0,0,0-.34,0,1,1,0,0,0-.78,1.07"/><path class="cls-2" d="M280.15,104.72c.17.42.52.75.63.51.25-.6-.28-1.82-.63-1.73l0,0c-.2.23,0,1,0,1.2"/><path class="cls-2" d="M269.69,112.58a.89.89,0,1,0,.79-1.16,1.11,1.11,0,0,0-.79,1.16"/><path class="cls-2" d="M272.54,102.19c.31.43.4.55.79.59.17,0,.17,0,.28-.08a.55.55,0,0,0,.22-.38c.06-.53-.5-1.25-1.05-1.14a.47.47,0,0,0-.33.4,1.09,1.09,0,0,0,.09.61"/><path class="cls-2" d="M274.38,101.4c.47.62,1.05.71,1.15.17a1.17,1.17,0,0,0-1.14-1.2,1.56,1.56,0,0,0-.16.2.43.43,0,0,0,0,.17,1.61,1.61,0,0,0,.19.66"/><path class="cls-2" d="M271.74,116.27c.1.34.15.5.61.53.16,0,.16,0,.42-.14a.67.67,0,0,0,.34-.3c.06-.11.2-.42.2-.42s-.1-.29-.14-.38-.07-.14-.61-.25l-.05,0c-.09.05-.19.06-.28.11s-.06.08-.1.1-.09,0-.11.07-.13.21-.22.29,0,.22-.08.28l0,.07"/><path class="cls-2" d="M280.37,112.59a1.39,1.39,0,0,0,0,.41.13.13,0,0,0,.19.07A2.73,2.73,0,0,0,281,112a2.58,2.58,0,0,0,0-.52s0,0-.18-.1a.31.31,0,0,1-.1.15,1.86,1.86,0,0,0-.19.34,2.66,2.66,0,0,0-.22.73"/><path class="cls-2" d="M273.06,117.17s0,0,.11.32c.29.08.29.08.4.06a1,1,0,0,0,.51-.24.83.83,0,0,0,.31-.94c-.13-.22-.43-.16-.56-.14a1,1,0,0,0-.77.94"/><path class="cls-2" d="M279.45,114.22v0l0,0,0,.05v0l0,.06,0,.06,0,0a2.72,2.72,0,0,1,0,.28l.11.06a1.58,1.58,0,0,0,.65-.84v0l0,0V114l0,0v0l0-.05v0l0,0c.06-.35,0-.44-.21-.32a1.15,1.15,0,0,0-.33.36,3,3,0,0,0-.2.4v0"/><path class="cls-2" d="M278.88,102.05c.05.07.57.73.69.27s-.64-1.55-.9-1.39l0,0c-.24.27.15,1,.23,1.1"/><path class="cls-2" d="M270.24,115.13v.39a1.12,1.12,0,0,0,.54.41h.54c.25-.16.3-.33.57-.59v-.05s0,0,0,0,0,0,0-.06,0,0,0,0v0s0,0,0-.06v-.1a.94.94,0,0,0-.55-.45h-.49a1.34,1.34,0,0,0-.53.61v0"/><path class="cls-2" d="M268.57,106.39c0,.11.08.44.65.69h.48c.48-.39.42-.73.4-.84-.05-.32-.05-.32-.18-.47a1.1,1.1,0,0,0-.49-.34H269a.92.92,0,0,0-.41,1"/><path class="cls-2" d="M281.13,110.71a.82.82,0,0,0,.1.48,2.1,2.1,0,0,0,.29-1.78l-.06,0a2.94,2.94,0,0,0-.33,1.26"/><path class="cls-2" d="M272.82,100.54c.26.44.95.72,1.08.21.1-.35-.28-.8-.28-.81s-.44-.43-.74-.34c-.47.18-.17.77-.06.94"/><path class="cls-2" d="M281.11,105.58a1.23,1.23,0,0,0,.31.54c.24-.17.06-1.45-.32-1.78a.06.06,0,0,0-.05,0c-.16.29,0,1,.06,1.19"/><path class="cls-2" d="M268,111v.49a1.25,1.25,0,0,0,.65.53h.47a1.22,1.22,0,0,0,.53-.66v-.54a1.18,1.18,0,0,0-.65-.52h-.49a1.49,1.49,0,0,0-.51.64V111"/><path class="cls-2" d="M274.13,117.91c0,.21.19.61.79.18a1.26,1.26,0,0,0,.49-.76.39.39,0,0,0-.3-.33l-.15,0a1.22,1.22,0,0,0-.83.88"/><path class="cls-2" d="M276.32,117.06c-.15.55.29.41.43.32a2.18,2.18,0,0,0,.6-.68c.2-.46,0-.55-.05-.57a.49.49,0,0,0-.23,0c-.07,0-.21.07-.47.38a.93.93,0,0,0-.28.51"/><path class="cls-2" d="M278.26,116l0,0,0,0,0,.05,0,0,0,0,0,.05,0,0c0,.18,0,.26.08.31h.06l0,0,0,0h0l0,0h0l0,0a3.36,3.36,0,0,0,.49-.61l0,0,0,0,0-.05,0,0,0,0,0,0,0,0,0,0c0-.19,0-.28-.08-.33h0l0,0,0,0h0l0,0,0,0,0,0h0a3.87,3.87,0,0,0-.48.63l0,0"/><path class="cls-2" d="M276,100.53c.47.61.9.52.94.29a1.16,1.16,0,0,0-.35-.91c-.07-.07-.44-.45-.77-.32,0,0-.14.08-.07.41a1,1,0,0,0,.25.53"/><path class="cls-2" d="M270.32,102.63l0,.06v0l0,.06v.06l0,.06,0,.06V103a1.4,1.4,0,0,0,.6.45h.41a.88.88,0,0,0,.27-.64v0l0-.06,0,0,0-.06,0-.06,0,0,0,0v0a1.24,1.24,0,0,0-.61-.45h-.38a1,1,0,0,0-.27.62v0"/><path class="cls-2" d="M269.57,104.39l0,.06v.31l0,.06a1.34,1.34,0,0,0,.61.48h.43a1,1,0,0,0,.37-.67v-.11l0-.06v-.06l0-.06v-.11l0-.06a1.28,1.28,0,0,0-.61-.48h-.42a1.1,1.1,0,0,0-.37.64v.06"/><path class="cls-2" d="M277.49,101.3c.13.19.72.74.84.23,0-.09.06-.42-.38-1,0,0-.44-.41-.63-.3h0c-.31.25.06.86.18,1"/><path class="cls-2" d="M268.54,114.34a.86.86,0,0,0,1.55.17.75.75,0,0,0-.78-1.14.8.8,0,0,0-.77,1"/><path class="cls-2" d="M281.59,108.54c0,.16,0,.69.16.54s.19-1.78,0-1.74c0,0,0,0,0,0a3.53,3.53,0,0,0-.12,1.17"/><path class="cls-2" d="M270.92,101.19c.25.55,1,.77,1.14.21a.93.93,0,0,0-.91-1.12c-.37.11-.37.6-.23.91"/><path class="cls-2" d="M267.5,108.33a.92.92,0,0,0,.76.6h.24a.87.87,0,0,0-.08-1.67l-.15,0H268a2,2,0,0,0-.47.49.91.91,0,0,0,0,.61"/><path class="cls-2" d="M274.32,99.66c.37.47,1,.69,1,.26s-.7-1.22-1.14-1.08c-.22.1-.11.51.12.82"/><path class="cls-2" d="M280,102.79c.23.42.47.57.51.42.14-.53-.51-1.68-.74-1.54h0a1.56,1.56,0,0,0,.25,1.11"/><path class="cls-2" d="M276.86,117.66c0,.06-.08.2-.08.2a1.05,1.05,0,0,0,.05.19.7.7,0,0,0,.32-.13l.41-.42a1.27,1.27,0,0,0,.25-.43.46.46,0,0,0-.05-.31.28.28,0,0,0-.12,0h0a5.6,5.6,0,0,0-.78.88"/><path class="cls-2" d="M275,118.45c0,.1,0,.17-.05.22s.06.09.1.15c.32,0,.35,0,.78-.44,0,0,.18-.26.18-.26s0-.08.07-.23a1.4,1.4,0,0,0-.12-.18l-.22,0c-.22.11-.22.11-.62.49,0,0,0,.08,0,.11s-.07.06-.08.11"/><path class="cls-2" d="M280.7,113.26a2.69,2.69,0,0,0-.1.51c.15,0,.31-.48.37-.62a2.38,2.38,0,0,0,.23-.91l-.07,0a4.14,4.14,0,0,0-.43,1"/><path class="cls-2" d="M270.51,117.75s0,.11,0,.16a0,0,0,0,0,0,0l.37.26s.08,0,.13,0a.12.12,0,0,1,.07,0l.35-.13c.3-.24.31-.29.37-.45a.29.29,0,0,0,0-.14l0-.26-.3-.23a.81.81,0,0,0-.31,0l-.28.09h0l-.35.37a1.62,1.62,0,0,0-.06.29"/><path class="cls-2" d="M266.9,113.18c.19.35.2.37.26.41a2.26,2.26,0,0,0,.56.22,1,1,0,0,0,.73-.65,1.78,1.78,0,0,0,0-.26.09.09,0,0,0,0-.05,1.83,1.83,0,0,0-.21-.39,1.16,1.16,0,0,0-.69-.28c-.46.26-.46.26-.49.3s-.06.08-.24.59l.07.11"/><path class="cls-2" d="M281.7,106.4c.09.43.14.58.19.55.05-.5-.12-1.75-.26-1.65a5.45,5.45,0,0,0,.07,1.1"/><path class="cls-2" d="M268,103.5a.74.74,0,0,0,.56.6H269a.67.67,0,0,0,.32-.74,1.43,1.43,0,0,0-.08-.31c-.26-.32-.42-.37-.47-.38h-.41a.75.75,0,0,0-.3.83"/><path class="cls-2" d="M272.78,98.92a1.11,1.11,0,0,0,.62.45s.29,0,.31-.25-.62-1.06-1.06-.93c-.1,0-.15.06-.11.3s.07.22.24.43"/><path class="cls-2" d="M269.09,116.92a.58.58,0,0,0,.52.44.82.82,0,0,0,.74-.29.6.6,0,0,0,.13-.22,1.32,1.32,0,0,0,0-.45.6.6,0,0,0-.57-.29h-.05c-.67.1-.77.49-.73.8"/><path class="cls-2" d="M271.15,99.44l0,0,0,0,0,0,0,0,0,0,0,0,0,0a.85.85,0,0,0,.58.34c.22,0,.33-.1.34-.31a.67.67,0,0,0,0-.27l0,0,0,0,0,0,0,0,0,0,0,0,0-.06,0,0c-.38-.35-.57-.3-.65-.28s-.25.2-.19.52l0,0"/><path class="cls-2" d="M266.32,110a.76.76,0,0,0,1.37.44.8.8,0,0,0-.66-1.32.76.76,0,0,0-.71.88"/><path class="cls-2" d="M275.55,98.89c.43.46.82.49.83.2s-.8-1.14-1.13-1c-.07.05-.11.08,0,.26a1.41,1.41,0,0,0,.34.5"/><path class="cls-2" d="M267,105.19a.7.7,0,0,0,1.25.33,1,1,0,0,0,.14-.35v-.46c-.29-.48-.61-.45-.71-.44-.59.07-.66.54-.61.92"/><path class="cls-2" d="M272.9,119.15c0,.17,0,.28.23.31h.33c.6-.35.71-.86.43-.93a.65.65,0,0,0-.29,0,1,1,0,0,0-.7.67"/><path class="cls-2" d="M278.46,116.78c-.07.12-.21.36-.12.39h.06l0,0h0l0,0,0,0h0c.45-.46.81-1.1.68-1.13l-.09,0a2.48,2.48,0,0,0-.65.81"/><path class="cls-2" d="M271.85,118.5c0,.48.6.45,1,.14s.39-.83-.08-.85l-.2,0a.79.79,0,0,0-.68.69"/><path class="cls-2" d="M268.84,101.81a.78.78,0,0,0,.56.56.59.59,0,0,0,.56-.27.87.87,0,0,0-.59-1.13H269a.73.73,0,0,0-.2.78"/><path class="cls-2" d="M277,99.49c.63.73.78.34.78.34s.05-.29-.4-.77c-.27-.29-.54-.41-.64-.36l0,0c-.16.16.12.58.29.77"/><path class="cls-2" d="M280.9,103.53c.08.19.19.42.3.47h0v0h0v-.1c-.07-.61-.46-1.49-.57-1.37s0,0,0,0-.07.22.24,1"/><path class="cls-2" d="M279.65,115.18c-.12.28-.14.4,0,.36s.88-1.28.7-1.37l-.07,0a3,3,0,0,0-.58,1"/><path class="cls-2" d="M281.42,111.46s-.09.43,0,.45a2.39,2.39,0,0,0,.25-.77v-.39l0-.07a.7.7,0,0,0,0-.33l0,0a4.8,4.8,0,0,0-.28,1.07"/><path class="cls-2" d="M278.22,100l0,0,0,0,0,0,0,.05,0,0,0,0,0,.06c.38.37.51.3.5.11,0-.42-.77-1.29-1-1.12l0,0s-.09.12.18.6l0,0"/><path class="cls-2" d="M265.89,106.91a.79.79,0,0,0,.54.66.85.85,0,0,0,.39,0l.36-.24a1.09,1.09,0,0,0,.13-.76l-.22-.37a1.13,1.13,0,0,0-.49-.17h0a.68.68,0,0,0-.52.28.81.81,0,0,0-.18.59"/><path class="cls-2" d="M267.44,116l.23.32a1.89,1.89,0,0,0,.44.14.79.79,0,0,0,.74-.49c.17-.4-.14-.87-.75-.85-.43,0-.81.54-.66.88"/><path class="cls-2" d="M279.49,100.93c.25.37.47.55.5.41a1.57,1.57,0,0,0-.31-.77c-.27-.43-.38-.47-.51-.52s0,0,0,0c-.06.25.34.85.34.86"/><path class="cls-2" d="M281.87,109.4a2.22,2.22,0,0,0,0,.51s0-.06,0-.22l.09-1.09c0-.2,0-.23,0-.27s0,0,0,0c-.05.25-.08.76-.1,1"/><path class="cls-2" d="M274,98.24a1.45,1.45,0,0,0,.6.34c.19,0,.21-.1.21-.13s0-.33-.41-.66c0,0-.52-.36-.69-.27s.1.54.29.72"/><path class="cls-2" d="M275.58,118.9l0,0,0,0,0,0v0l0,0,0,0,0,0c0,.14,0,.2.06.23h.16a4.18,4.18,0,0,0,.55-.46v0l0,0,0,0,0,0,0,0,0,0,0,0,0,0c.05-.14,0-.22-.06-.25h-.2a6.11,6.11,0,0,0-.53.47v0"/><path class="cls-2" d="M269.4,100.15a.94.94,0,0,0,.53.53.31.31,0,0,0,.44-.19c.28-.6-.4-1.09-.74-1a.58.58,0,0,0-.23.71"/><path class="cls-2" d="M273.64,119.7s0,.35.3.21a1.3,1.3,0,0,0,.63-.52.19.19,0,0,0-.08-.31.11.11,0,0,0-.1,0,1.18,1.18,0,0,0-.75.62"/><path class="cls-2" d="M277.15,118.2a.66.66,0,0,0-.15.33.1.1,0,0,1,.06,0s0,0,.1,0a5.36,5.36,0,0,0,.41-.37c.36-.4.36-.48.38-.62,0,0-.09,0-.13,0a3.58,3.58,0,0,0-.67.69"/><path class="cls-2" d="M265.13,111.78a2.38,2.38,0,0,0,.07.27l.06,0a2.26,2.26,0,0,0,.28.25.32.32,0,0,0,.17,0c.19.17.35,0,.53,0l.34-.37a2,2,0,0,0,0-.45s-.07-.26-.07-.27l-.06,0c-.14-.1-.23-.28-.43-.28h0a.24.24,0,0,0-.18-.08c-.13,0-.23.12-.37.11l-.19.22a.75.75,0,0,0-.11.13,1.76,1.76,0,0,0,0,.46"/><path class="cls-2" d="M281.48,104.34l.17.54a5.47,5.47,0,0,0-.37-1.48.06.06,0,0,0,0,0,8.39,8.39,0,0,0,.21.9"/><path class="cls-2" d="M271.2,98.15c.12.14.8.69.86.25s-.75-1-.93-.9-.07.47.07.65"/><path class="cls-2" d="M264.59,108.69c.19.39.19.39.27.46s.07.06.51.26c.48-.27.48-.27.54-.33a2.34,2.34,0,0,0,.16-.47.89.89,0,0,0-.58-.72l-.25,0a.94.94,0,0,0-.52.33s-.23.3-.13.5"/><path class="cls-2" d="M265.65,114.73a1.89,1.89,0,0,0,.33.44,1.73,1.73,0,0,0,.49.15c.13-.09.31-.08.43-.2s.06-.07.26-.54a3.27,3.27,0,0,0-.36-.5c-.15-.11-.33-.09-.49-.17-.14.1-.33.09-.45.22a2.61,2.61,0,0,0-.25.55l0,0"/><path class="cls-2" d="M282,107.31c0,.1,0,.27,0,.42l-.06-1.17,0-.27.07,1"/><path class="cls-2" d="M280.4,101.71c.19.31.19.31.29.39a3,3,0,0,0-.69-1.33,3.83,3.83,0,0,0,.4.94"/><path class="cls-2" d="M272.47,97.56a1,1,0,0,0,.6.34h.18c0-.06.05-.19-.19-.44a1.6,1.6,0,0,0-.7-.45h-.21c0,.08,0,.21.32.54"/><path class="cls-2" d="M270.71,119.82c.21.38.91.06,1-.27s-.16-.42-.46-.38c-.64.11-.56.64-.55.65"/><path class="cls-2" d="M268,118.17c.08.66.95.46,1.14.17a.56.56,0,0,0,0-.53.62.62,0,0,0-.61-.21c-.58.06-.58.45-.56.57"/><path class="cls-2" d="M279.64,115.77a2.07,2.07,0,0,0-.2.37,7.59,7.59,0,0,0,.73-1.19l0,0a7.44,7.44,0,0,0-.49.78"/><path class="cls-2" d="M280.6,114.11l-.18.4v0l0,0c.17-.37.4-.85.54-1.21h0s0,0,0,0,0,.06-.37.84"/><path class="cls-2" d="M269.44,119c0,.43.72.45,1,.12a.39.39,0,0,0-.27-.7l-.14,0c-.31,0-.61.14-.59.56"/><path class="cls-2" d="M269.79,98.78a.72.72,0,0,0,.39.38.86.86,0,0,0,.37,0,.44.44,0,0,0,.07-.12c.1-.3-.33-1-.75-.89-.19,0-.32.16-.08.66"/><path class="cls-2" d="M281.31,112.36h0l0-.13.18-.66c0,.18-.12.46-.22.79"/><path class="cls-2" d="M266.59,102v.41a1.41,1.41,0,0,0,.37.36h.4a.68.68,0,0,0,.3-.45v-.42a.66.66,0,0,0-.39-.36h-.37a1.07,1.07,0,0,0-.28.41V102"/><path class="cls-2" d="M276.11,97.83l0,0,.05,0,0,0,0,0,0,0,.05,0,0,0a.93.93,0,0,0,.41.21h0v0h0v0h0v0h0a1.49,1.49,0,0,0-.24-.38l-.05,0,0,0,0,0,0,0-.05,0-.05-.05,0,0-.06,0a2,2,0,0,0-.39-.19h0v0h0v0h0a1.44,1.44,0,0,0,.25.39l0,0"/><path class="cls-2" d="M277.44,98.43l.05,0,0,0,0,0,0,0,0,0,0,0,0,0,.37.23h0v0h0v0h0v0c-.09-.16-.16-.26-.26-.42l0,0,0,0,0,0,0,0,0,0-.05,0,0,0,0,0a2.77,2.77,0,0,0-.34-.2h0v0h0v0h0v0h0l.24.39.05,0"/><path class="cls-2" d="M278.51,117.24v0l0,0,0,0,0,0,0,0,0,0,0,0c-.11.17-.13.2-.13.22a4.24,4.24,0,0,0,.82-1l0,0a4,4,0,0,0-.47.55l0,0"/><path class="cls-2" d="M264.37,105.65a.73.73,0,0,0,.5.57h.31a.71.71,0,0,0,0-1.33.62.62,0,0,0-.18,0,.54.54,0,0,0-.44.26.74.74,0,0,0-.15.53"/><path class="cls-2" d="M263.39,110.42c.05.41.75,1,1.22.33a.72.72,0,0,0-.62-1.15c-.07,0-.27,0-.5.31a.7.7,0,0,0-.1.51"/><path class="cls-2" d="M264,113.48a.93.93,0,0,0,.6.59h.33c1-.52.2-1.27-.16-1.33h-.34a.71.71,0,0,0-.43.74"/><path class="cls-2" d="M274.15,120.14c-.14.18-.1.24,0,.23.25,0,.95-.56.8-.7s-.1,0-.13,0a1.84,1.84,0,0,0-.65.48"/><path class="cls-2" d="M275.76,119.46c-.16.17-.18.21-.16.27.38-.13,1-.78.89-.82s-.07,0-.09,0a2.89,2.89,0,0,0-.64.53"/><path class="cls-2" d="M281,102.46c.05.13.11.26.16.4l-.42-1-.12-.26v0c.12.29.25.57.37.86"/><path class="cls-2" d="M271.71,120.24c0,.19.14.23.22.25h.21c.59-.3.61-.62.36-.69l-.08,0h-.23c-.2.1-.44.28-.48.46"/><path class="cls-2" d="M267.46,100.77c.05.25.54.74.85.3a.66.66,0,0,0-.47-1c-.33,0-.44.4-.38.72"/><path class="cls-2" d="M273.28,96.83c.23.18.65.43.78.27-.05-.41-.94-.86-1.08-.78s-.09.06,0,.15a1.07,1.07,0,0,0,.33.36"/><path class="cls-2" d="M278.65,99.19c.26.3.45.44.45.35a2.3,2.3,0,0,0-.87-1,0,0,0,0,1,0,0,2.69,2.69,0,0,0,.43.67"/><path class="cls-2" d="M274.72,97.3l0,0,0,0,0,0,0,0,0,0,0,0,0,0c.39.21.47.25.59.14a.84.84,0,0,0-.29-.44l0,0,0,0,0,0,0,0,0,0,0,0,0,0,0,0c-.44-.26-.55-.18-.55-.18s0,.18.24.45l0,0"/><path class="cls-2" d="M268.11,99.2c.15.47.62.65.8.31a.71.71,0,0,0,0-.61.56.56,0,0,0-.61-.29.56.56,0,0,0-.15.59"/><path class="cls-2" d="M266.42,117.41c.32.36.54.33.68.32a.66.66,0,0,0,.55-.45c0-.14-.1-.64-.77-.62l-.14,0a1.2,1.2,0,0,0-.32.26.49.49,0,0,0,0,.47"/><path class="cls-2" d="M265.56,103.89a.57.57,0,0,0,1,.37.81.81,0,0,0,.12-.67c-.25-.43-.44-.42-.73-.4-.37.28-.43.46-.41.7"/><path class="cls-2" d="M272.41,120.69c-.09.16,0,.24.21.17a1.15,1.15,0,0,0,.45-.26.5.5,0,0,0,.14-.16s0-.1,0-.15a.78.78,0,0,0-.22,0,1.24,1.24,0,0,0-.59.44"/><path class="cls-2" d="M270.89,96.84c.31.29.73.44.72.19a1.08,1.08,0,0,0-.91-.68.11.11,0,0,0,0,.15,1.84,1.84,0,0,0,.23.34"/><path class="cls-2" d="M269.85,97.4c.18.24.65.54.7.19s-.55-.79-.79-.74l0,0,0,.14a1,1,0,0,0,.17.39"/><path class="cls-2" d="M277.05,118.75c-.07.08-.14.15-.2.23v0a3.51,3.51,0,0,0,.52-.45,1.73,1.73,0,0,0,.36-.41s0,0,0,0a6.46,6.46,0,0,0-.63.59"/><path class="cls-2" d="M264.61,116.22c.14.24.14.24.25.32a1,1,0,0,0,.43.19.71.71,0,0,0,.55-.33l.05-.26-.14-.24a1,1,0,0,0-.59-.3.75.75,0,0,0-.43.24.58.58,0,0,0-.08.1s-.07.23,0,.28"/><path class="cls-2" d="M279.38,99.7l0,0,0,0,0,0,0,0,0,.06,0,0,0,.06.17.19v0h0v0h0v0h0v0h0l-.21-.36,0-.06,0,0,0-.06,0,0,0,0,0,0,0,0,0-.05-.15-.18h0v0h0v0h0v0h0v0c.09.14.15.23.23.37l0,0"/><path class="cls-2" d="M268.43,97.66l0,0,0,.05,0,0,0,0,0,.05,0,0,0,0,.27.22h.27c0-.12,0-.2.06-.31l0,0,0,0,0,0,0,0,0,0,0-.05,0,0,0,0-.29-.2h-.23c0,.1,0,.17-.06.27l0,0"/><path class="cls-2" d="M271.65,96.19l0,0,.05,0,0,0,.05,0,.05,0,.05,0,.05,0,.36.15h.16l-.16-.24,0,0-.05,0-.06,0-.05,0-.06,0-.05,0L272,96l0,0-.34-.12h-.14l.18.24,0,0"/><path class="cls-2" d="M263.17,107v.31s0,.05,0,.07v.08c0,.13.21.21.35.34H264l.32-.37v-.53l-.32-.33h-.47l-.35.38V107"/><path class="cls-2" d="M262.21,112.09c.06.41.74.88,1.13.37a.71.71,0,0,0-.58-1.06.56.56,0,0,0-.55.69"/><path class="cls-2" d="M269.67,120.66c0,.22.47.32.76,0s.14-.41-.19-.43h-.09c-.39.06-.48.28-.48.39"/><path class="cls-2" d="M265.4,101.08c0,.43.42.71.74.36s.09-.94-.28-.93h-.05a.33.33,0,0,0-.26.13.59.59,0,0,0-.15.44"/><path class="cls-2" d="M268.46,120.12c.1.35.72.29.89,0a.24.24,0,0,0-.05-.33.43.43,0,0,0-.38-.1c-.36,0-.52.27-.46.45"/><path class="cls-2" d="M267,119.42c0,.14.1.18.4.29h.3c.31-.18.32-.21.27-.55l-.33-.21h-.37c-.25.12-.32.24-.27.46"/><path class="cls-2" d="M275.27,96.67c.29.2.59.33.56.2s-.17-.26-.62-.54c-.13-.08-.35-.2-.42-.1v0c.09.08.17.18.26.26l.23.16"/><path class="cls-2" d="M272.84,121.05s-.11.14,0,.14.83-.39.73-.5,0,0-.12,0a1.35,1.35,0,0,0-.58.36"/><path class="cls-2" d="M274.28,120.56c-.12.1-.11.13-.1.14.32-.09.92-.56.83-.6l-.08,0a2.32,2.32,0,0,0-.65.44"/><path class="cls-2" d="M275.78,119.77l0,0,0,0,0,0,0,0,0,0,0,0,0,0c-.14.12-.14.12-.14.13a3.61,3.61,0,0,0,.55-.37l0,0h0l0,0,0,0,0,0,0,0,0,0,0,0a.66.66,0,0,0,.15-.15h0l-.06,0-.41.3,0,0"/><path class="cls-2" d="M264.26,102.53v.25a1,1,0,0,0,.33.4h.3c.23-.16.38-.16.38-.44v-.29c0-.23-.14-.23-.16-.25s0,0-.21-.14h-.25c-.2.13-.2.13-.22.16a1.43,1.43,0,0,0-.16.28v0"/><path class="cls-2" d="M266.3,99.54v.25a.78.78,0,0,0,.33.37h0s0,0,0,0h.18a.83.83,0,0,0,.23-.38v-.29a.85.85,0,0,0-.32-.31h-.11l0,0,0,0h0c-.17.11-.17.14-.25.37h0"/><path class="cls-2" d="M276.4,97.07l0,0,0,0,0,0,0,0,0,0,0,0,0,0a1.91,1.91,0,0,0,.32.16h0a2.47,2.47,0,0,0-.33-.35l0,0,0,0,0,0,0,0,0,0,0,0,0,0,0,0a.78.78,0,0,0-.36-.17h0a2.42,2.42,0,0,0,.34.36l0,0"/><path class="cls-2" d="M269.56,96.2c.22.22.58.39.58.19s-.58-.64-.78-.59c0,0,0,.08,0,.11a1.06,1.06,0,0,0,.22.29"/><path class="cls-2" d="M262.85,115a.73.73,0,0,0,.46.46.53.53,0,0,0,.6-.13v0c0-.09.13-.16.11-.27s0-.11-.2-.41a.84.84,0,0,0-.49-.19.46.46,0,0,0-.48.58"/><path class="cls-2" d="M273.9,96.2c.34.2.6.27.56.15s-.88-.66-1-.57.25.29.46.42"/><path class="cls-2" d="M270.6,121.14a1.38,1.38,0,0,0,0,.14.91.91,0,0,0,.23,0,1.49,1.49,0,0,0,.28-.11s0,0,0,0,.12-.08.16-.15,0,0,0-.17a.45.45,0,0,0-.26,0,.55.55,0,0,0-.45.32"/><path class="cls-2" d="M265.47,118.57a.56.56,0,0,0,.45.33.53.53,0,0,0,.49-.14s0,0,0,0a1,1,0,0,0,.09-.21.21.21,0,0,0,0-.13l0,0s-.07-.06-.09-.1,0-.06-.05-.07a.83.83,0,0,0-.43-.12c-.38,0-.49.31-.41.49"/><path class="cls-2" d="M261.85,109s0,0,0,.06,0,0,0,0,.06.1.08.15,0,.08,0,.1a.73.73,0,0,0,.28.18.53.53,0,0,0,.6-.19.63.63,0,0,0-.45-1c-.07,0-.07,0-.41.14-.06.17-.21.32-.18.52"/><path class="cls-2" d="M270.39,95.84a1.77,1.77,0,0,0,.55.24h0v0h0v0h0c.13-.09-.34-.52-.82-.62h-.07c-.07,0,.17.3.34.41"/><path class="cls-2" d="M263,104.3c0,.19.37.87.85.31a.56.56,0,0,0-.28-1,.71.71,0,0,0-.57.65"/><path class="cls-2" d="M277.57,97.7A1.69,1.69,0,0,0,278,98c0-.14-.82-.87-.82-.82h0a2.26,2.26,0,0,0,.44.54"/><path class="cls-2" d="M268.59,96.67c.08.1.5.48.53.17s-.45-.64-.58-.63-.06.31,0,.46"/><path class="cls-2" d="M272.35,95.72c.4.19.41.19.6.19,0-.25-.72-.56-1-.56,0,0,0,.07,0,.09a1.79,1.79,0,0,0,.4.28"/><path class="cls-2" d="M267,98.27c.12.28.15.31.41.39a.39.39,0,0,0,.23-.27v-.23l-.09-.17-.2-.19a.5.5,0,0,0-.13,0l-.1.07s0,0,0,0a.7.7,0,0,0-.09.41"/><path class="cls-2" d="M278.34,98.24a2.59,2.59,0,0,0,.3.32,7,7,0,0,0-.72-.81v0s.07.09.41.46"/><path class="cls-2" d="M263.75,117.54a1.15,1.15,0,0,0,.2.31l.21.07c.33.08.5,0,.56-.15s.09-.63-.61-.64a.33.33,0,0,0-.32.14.24.24,0,0,0,0,.27"/><path class="cls-2" d="M276.81,119.08l.18-.15-.15.13,0,0"/><path class="cls-2" d="M271.29,121.48c-.08.11,0,.12.08.12.27,0,.61-.31.51-.37s-.14,0-.17,0a.7.7,0,0,0-.42.26"/><path class="cls-2" d="M267.37,96.9v.21l.23.2h.17c0-.1,0-.16.06-.25V97l0,0v-.07l0,0v0l0,0-.21-.19h-.15a2.5,2.5,0,0,1-.07.26v0"/><path class="cls-2" d="M273.06,121.26h0l0,0h0l0,0h0l0,0h0l-.06.07H273l.35-.17h0l0,0h0l0,0h0l0,0,0,0,.05-.07h-.13l-.33.17,0,0"/><path class="cls-2" d="M270.72,95.23l0,0,0,0,0,0,0,0,0,0,0,0,0,0,.35.11h.07l-.25-.21,0,0h0l0,0h0l0,0-.05,0,0,0-.05,0-.35-.1h-.06l.23.18,0,0"/><path class="cls-2" d="M274.24,120.79h0l0,0,0,0h0l0,0,0,0-.12.08h.1l.34-.18,0,0h0l0,0,0,0,0,0,0,0,0,0,0,0a.48.48,0,0,0,.11-.09h-.11l-.36.22h0"/><path class="cls-2" d="M261.77,105.67V106l.31.34h.31l.33-.35v-.37l-.27-.33h-.31l-.37.36v0"/><path class="cls-2" d="M269,95.27c.19.12.48.24.47.15s-.59-.47-.74-.45.15.22.27.3"/><path class="cls-2" d="M275.64,120l-.09.06.09-.06"/><path class="cls-2" d="M267.65,121c.11.22.59.26.68,0s-.16-.26-.44-.26v-.14h0v.12h0s-.33.19-.28.3"/><path class="cls-2" d="M271.63,121.73c-.05,0-.07.08,0,.08s.58-.18.54-.25-.1,0-.1,0h0a1,1,0,0,0-.45.19"/><path class="cls-2" d="M261.16,113.72c.1.37.69.73,1,.25s-.23-.77-.54-.8a.45.45,0,0,0-.43.55"/><path class="cls-2" d="M260.57,110.59c.05.39.56.81.91.35s-.13-.88-.41-.9a.54.54,0,0,0-.5.55"/><path class="cls-2" d="M268.36,95.6c.15.15.43.3.42.15s-.45-.49-.58-.48,0,.22.16.33"/><path class="cls-2" d="M268.77,121.45c.07.1.07.1.1.11a.43.43,0,0,0,.23,0s0,0,0,0a1,1,0,0,0,.16,0c.06,0,.07-.11.12-.15s0-.11-.09-.14l-.24,0c-.22.08-.22.08-.32.23h0"/><path class="cls-2" d="M266.27,120.4a1,1,0,0,0,.16.14,1.57,1.57,0,0,0,.28.09h0c.08,0,.18,0,.24-.11s0,0,.06-.19c-.17-.18-.17-.18-.47-.26-.23.08-.23.08-.25.1a.15.15,0,0,0,0,.06s0,.1,0,.15l0,0"/><path class="cls-2" d="M261.93,116.39l.21.26.37.16.29-.14.09-.28-.2-.27,0,0,0,0-.33-.14-.3.14-.09.29,0,0"/><path class="cls-2" d="M274,95.53c.14.08.44.23.39.12s-.78-.49-.82-.41,0,.08.43.29"/><path class="cls-2" d="M264.42,100a.84.84,0,0,0,0,.27l.09,0a.39.39,0,0,0,.39-.07.66.66,0,0,0,.07-.52c0-.08,0-.08-.05-.1a.55.55,0,0,0-.19-.06c-.11,0-.32,0-.35.43"/><path class="cls-2" d="M260.47,107.49a.89.89,0,0,0,.09.36l.43.09.21-.11a.74.74,0,0,0,0-.72.5.5,0,0,0-.31-.13.7.7,0,0,0-.34.08.86.86,0,0,0-.11.43"/><path class="cls-2" d="M272.48,95.11l0,0h0l0,0,0,0,.05,0,0,0,.05,0,.27.07h0l-.26-.16h0l0,0h0l0,0,0,0h0l0,0,0,0-.27-.06h0l.26.15h0"/><path class="cls-2" d="M263.31,101.26v.26a.28.28,0,0,0,0,.09c.07.1.1,0,.16.29h.07s0-.05,0-.05l0,0,0,0h.11l.22-.24v-.34c-.06-.09-.1-.14-.16-.24s0,0,0,0,0,0,0,0h-.2c-.08,0-.13.1-.23.19h0"/><path class="cls-2" d="M262,102.72v.3l.19.25h.29l.24-.27v-.34l-.2-.24h-.27l-.24.26v0"/><path class="cls-2" d="M267.51,95.85v.08l0,0v0l0,0,.19.14h.11a1.18,1.18,0,0,0,0-.21h0v0h0l0,0v0l0,0,0,0,0,0-.18-.13h-.1a1.54,1.54,0,0,1,0,.19h0"/><path class="cls-2" d="M269.73,121.75h0v0h0v0h0l.11.06H270l.17-.1h0v0h0v0h0v0l-.12-.06h-.2l-.17.11h0"/><path class="cls-2" d="M275,95.85l0,0,0,0,0,0,0,0,0,0,0,0,0,0,.22.09h0l-.24-.19,0,0,0,0,0,0,0,0,0,0,0,0,0,0,0,0-.21-.09h0l.23.18,0,0"/><path class="cls-2" d="M276.16,96.34h0l0,0,0,0,0,0,0,0,0,0,0,0,.17.09h0l-.27-.22,0,0,0,0,0,0,0,0,0,0,0,0,0,0,0,0-.17-.09h0l.27.21,0,0"/><path class="cls-2" d="M265.39,98.44v.26l.15.19h.22l.15-.22v-.29l-.15-.19h-.2l-.15.21v0"/><path class="cls-2" d="M269.3,94.82l0,0h0l0,0,0,0,0,0,0,0,0,0,.26.08h.07l-.17-.12,0,0,0,0,0,0h0l0,0,0,0h0l0,0-.26-.07h-.06l.17.12,0,0"/><path class="cls-2" d="M264.66,119.53v.12l0,0v0a.41.41,0,0,0,0,.11c.09,0,.18,0,.27.23h.08s0-.08,0-.08,0,0,0,0,0,0,0,0h.11l.16-.16v-.23l-.27-.16h-.32c-.05,0-.1.1-.15.16s0,0,0,0"/><path class="cls-2" d="M270.31,122c0,.06,0,.07.12,0s.36-.16.3-.2h-.11a.61.61,0,0,0-.31.15"/><path class="cls-2" d="M266.1,97.34c0,.22.19.4.37.21s0-.55-.18-.55-.21.19-.19.34"/><path class="cls-2" d="M271.18,94.86c.26.09.46.13.44.09a1.63,1.63,0,0,0-.86-.31h0s.28.17.42.22"/><path class="cls-2" d="M272.69,121.55l-.14.06h0l.44-.17.16-.08h0l-.45.19"/><path class="cls-2" d="M271.7,121.87h-.09l-.06,0h.06l.28-.09H272l.06,0H272l-.31.12h0"/><path class="cls-2" d="M259.45,112s0,0,0,0,0,0,0,0,0,0,0,0,0,0,0,0v.08l.38.4h.17l.27-.35v-.12s0,0,0,0,0,0,0,0v0c0-.09-.14-.19-.32-.38h-.19c-.06.07,0,.16-.3.32h0v0"/><path class="cls-2" d="M263,118.6v.06h0v0s0,.05,0,.06.23,0,.41.3h0s0,0,0,0v0s0,0,0,0h.1l.19-.24h0v0h0v-.1l-.38-.24h-.19l-.2.22h0"/><path class="cls-2" d="M260.26,115.12a1,1,0,0,0,.46.39.39.39,0,0,0,.32-.31c0-.07,0-.11-.13-.27a1,1,0,0,0-.35-.23.4.4,0,0,0-.25.16s-.11.16-.05.26"/><path class="cls-2" d="M277.06,96.91c.07.07.16.14.19.18l-.58-.51-.05,0,.44.37"/><path class="cls-2" d="M260.58,104.4a.5.5,0,0,0,.29.44.69.69,0,0,0,.45-.43A.6.6,0,0,0,261,104a.57.57,0,0,0-.29.16s-.17.18-.16.28"/><path class="cls-2" d="M269.54,94.49h.33l.19,0h.05l-.22-.09h-.07l0,0h-.09l-.05,0h-.05l-.19,0h0l.15.07h0"/><path class="cls-2" d="M268,94.45h0l0,0h0l0,0h0l0,0h0l0,0h.05l.08,0h.06l-.13-.08,0,0h0l0,0h0l0,0h-.08l0,0-.17,0h0l.14.08h0"/><path class="cls-2" d="M267.71,94.67l0,0h0l0,0,0,0,0,0,0,0,0,0,.15.06h.06l-.08-.08h-.24l-.15,0h-.05l.1.09h0"/><path class="cls-2" d="M267.29,94.92l0,0v0l0,0,0,0,0,0,0,0,0,0,.12.08h.09a1.09,1.09,0,0,0-.06-.11v0l0,0,0,0,0,0,0,0,0,0,0,0,0,0-.11-.07h-.07a.3.3,0,0,0,0,.08l0,0"/><path class="cls-2" d="M259.27,108.92v.34l.17.15,0,0h.39c.06-.06.21-.12.21-.17v-.1l0,0s0,0,0,0,0,0,0,0a0,0,0,0,1,0,0s0,0,0,0,0,0,0,0v0s0,0,0,0,0,0,0,0,0,0,0,0,0,0,0,0l-.16-.2h-.34l-.16.21v0"/><path class="cls-2" d="M266.56,96.11v.2l.11.1h.12a.56.56,0,0,0,0-.12v0h0v0h0v0h0v0h0v0h0v0h0v0h0a.94.94,0,0,0-.1-.1h-.12a.78.78,0,0,1,0,.14v0"/><path class="cls-2" d="M270.59,122.16h0v0h.06l.2-.06h.07l0,0h-.06l-.19.07h0"/><path class="cls-2" d="M261.24,117.55v.15l.3.21h.19l.15-.18v-.17l-.3-.22h-.19l-.15.19v0"/><path class="cls-2" d="M267.06,121.65a.25.25,0,0,0,0,.06l.2.08h.13l.12-.1,0-.08-.2-.08h-.14l-.12.11h0"/><path class="cls-2" d="M259.28,106a.4.4,0,0,0,.24.37,1,1,0,0,0,.21-.11,1.5,1.5,0,0,0,.15-.21.43.43,0,0,0-.26-.43c-.35.13-.34.37-.34.38"/><path class="cls-2" d="M265.72,121.16a.68.68,0,0,0,.33.14s.17,0,.17-.16a.57.57,0,0,0-.35-.16c-.12,0-.17.08-.17.17h0"/><path class="cls-2" d="M268.16,122a.26.26,0,0,0,.39,0,.38.38,0,0,0-.22-.09c-.11,0-.16.07-.18.12h0"/><path class="cls-2" d="M269,122.22h.08a.31.31,0,0,0,.16,0h0l0,0h-.11a.24.24,0,0,0-.12,0h0"/><path class="cls-2" d="M262.54,100v.3l.05.09h.26a.6.6,0,0,0,.08-.08V100a.36.36,0,0,1,0-.09h-.25l-.1.11h0"/><path class="cls-2" d="M268.29,94.27l.19,0h0l-.08,0h-.36l-.09,0h0l.33.1"/><path class="cls-2" d="M266.72,95.12h0v0h0v0h0v0h0s0,0,.06,0,.06,0,.09,0v-.07h0v0h0v0h0v0h0l-.05,0h-.05s0,0,0,.06h0"/><path class="cls-2" d="M272.27,94.59h.35s0,0,.09,0h0s0,0-.06,0h.06l-.1,0h-.37l-.09,0h0s.07,0,.1,0h0"/><path class="cls-2" d="M263.74,98.69v.16h0v.08s0,0,0,0h.23a.1.1,0,0,0,.07,0h0v0h0v-.18h0v0l0-.09H264a.21.21,0,0,0-.21.08v0"/><path class="cls-2" d="M267,94.14h0m0,0h0m0,0h0m-.12,0H267l.14,0h0l-.18-.07h-.11l-.14,0h0l.13.06h0"/><path class="cls-2" d="M274.65,95.26l0,0h.05l0,0h.05l0,0,.12,0h0l-.21-.13h-.09l0,0h0l0,0-.12,0h0l.19.11h0"/><polyline class="cls-2" points="264.91 97.34 264.91 97.34 264.91 97.34"/><polyline class="cls-2" points="264.91 97.34 264.91 97.34 264.91 97.34"/><polyline class="cls-2" points="264.91 97.34 264.91 97.34 264.91 97.34"/><polyline class="cls-2" points="264.91 97.34 264.91 97.34 264.91 97.34"/><polyline class="cls-2" points="264.91 97.34 264.91 97.34 264.91 97.34"/><polyline class="cls-2" points="264.91 97.34 264.91 97.34 264.91 97.34"/><polyline class="cls-2" points="264.91 97.34 264.91 97.34 264.91 97.34"/><polyline class="cls-2" points="264.91 97.34 264.91 97.34 264.91 97.34"/><polyline class="cls-2" points="264.91 97.34 264.91 97.34 264.91 97.34"/><polyline class="cls-2" points="264.91 97.34 264.91 97.34 264.91 97.34"/><path class="cls-2" d="M264.73,97.51h0v.12s.06.11.09.11h.1a1,1,0,0,1,.11-.17h0V97.5s0,0,0,0-.07-.07-.11-.07h0v-.1h-.06a.91.91,0,0,1-.11.16h0"/><path class="cls-2" d="M258.13,110.48v.21s.09.09.22.22h.13l.15-.17v-.25l-.2-.21h-.15l-.14.19v0"/><path class="cls-2" d="M261.19,101.5h0v0h0v.1l.1.17h.15l.17-.19h0v0h0v-.15l-.12-.13,0,0h-.15l-.2.24h0"/><polyline class="cls-2" points="261.19 101.5 261.19 101.5 261.19 101.5"/><polyline class="cls-2" points="261.19 101.49 261.19 101.5 261.19 101.49"/><polyline class="cls-2" points="261.19 101.49 261.19 101.49 261.19 101.49"/><polyline class="cls-2" points="261.19 101.49 261.19 101.49 261.19 101.49"/><polyline class="cls-2" points="261.19 101.49 261.19 101.49 261.19 101.49"/><polyline class="cls-2" points="261.19 101.49 261.19 101.49 261.19 101.49"/><polyline class="cls-2" points="261.19 101.49 261.19 101.49 261.19 101.49 261.19 101.49"/><path class="cls-2" d="M258.69,113.6v.19l.25.2h.12a1.83,1.83,0,0,1,.13-.16v-.22l-.2-.2h-.19l-.11.19h0"/><path class="cls-2" d="M269.56,94.19h.23l.19,0h0l-.18-.06h-.24l-.18,0h0l.19,0h0"/><polyline class="cls-2" points="264.35 120.34 264.35 120.34 264.35 120.34"/><path class="cls-2" d="M264.17,120.45h0v0h0v0h0v0h0l.21.1h.16l.06-.1h0v0h0v0l0,0a1.61,1.61,0,0,0-.21-.09v.11h-.08v-.09h-.09l-.08.1h0"/><path class="cls-2" d="M273.64,94.93h.11l0,0h0l.14,0h0l-.18-.1h-.05l0,0h-.14l-.15,0h0l.21.11h0"/><path class="cls-2" d="M265.52,96.4v0h0v.09l.08.11h.07l.08-.13v0h0v0h0v-.06h0s-.05-.09-.08-.09h0v0h0l-.08.13h0"/><path class="cls-2" d="M271.4,94.47h0m0,0h0m0,0h0m0,0h0m0,0h0m0,0h0m0,0h0m0,0h0m0,0h0m-.39-.08h.16a.89.89,0,0,1,.18,0h0l-.21-.08H271l-.18,0h0l.21.08h0"/><path class="cls-2" d="M269.53,122.36v0a1,1,0,0,0,.21,0v0h-.05l-.15,0h0"/><path class="cls-2" d="M266.84,94.29l.18.09s0,0-.13-.12l-.19-.08.14.11"/><path class="cls-2" d="M262.55,119.69l.33.2a1.24,1.24,0,0,1,.14-.18l-.35-.21-.14.18h0"/><path class="cls-2" d="M259.84,103a.75.75,0,0,1,0,.11l0,.1H260l.1-.08v-.22s0-.07,0-.11H260a.3.3,0,0,0-.14.2"/><path class="cls-2" d="M275.41,95.65h0l0,0h0l-.2-.14.12.08,0,0"/><path class="cls-2" d="M259.64,116.42l0,.09s.06.06.1.09h.2l0-.07v-.18a.32.32,0,0,0-.21-.13c-.1,0-.12,0-.13,0s0,.07,0,.15"/><path class="cls-2" d="M266,95.5c0,.06,0,.14,0,.13h.06s0-.07,0-.09v0h0l0-.05h0s-.06.07,0,.16"/><path class="cls-2" d="M268.13,94h.33s-.06,0-.19,0a2.23,2.23,0,0,0-.27,0s0,0,.1,0h0"/><path class="cls-2" d="M266.63,94.48l.07.06h0l0-.05h-.07s-.06,0-.07,0h0a.41.41,0,0,0,.07.11"/><path class="cls-2" d="M258.12,107.41a.69.69,0,0,0,.06.25.31.31,0,0,0,.16,0s.12-.07.12-.07a.42.42,0,0,0,0-.34l0,0h-.17a.36.36,0,0,0-.12.2"/><path class="cls-2" d="M266.93,94a.65.65,0,0,0,.19,0h0L267,94h-.32l.21.05"/><path class="cls-2" d="M260.89,118.64h0v0h0v0h0v0h.21l-.09-.19h-.22"/><path class="cls-2" d="M258.57,104.34v0h0v0h0v0h0v0h0v0h.19c0-.09.05-.18.08-.27h-.21v0"/><path class="cls-2" d="M257,109l.13.22a1.83,1.83,0,0,1,.13-.16,1.77,1.77,0,0,1-.1-.22L257,109v0"/><path class="cls-2" d="M267.76,122.4h.16l-.1,0-.07,0h0"/><path class="cls-2" d="M265.45,121.78l.15,0,.06,0-.16-.08-.06.07h0"/><path class="cls-2" d="M266.82,93.91l.17,0a1.61,1.61,0,0,0-.35,0l.18,0"/><path class="cls-2" d="M266.24,94.6a.59.59,0,0,1,0,.08l0-.08h0a.35.35,0,0,1-.05-.08s0,0,0,.08h0"/><path class="cls-2" d="M258.09,115.07l.16.19.11-.12-.16-.2-.12.12h0"/><path class="cls-2" d="M266.05,93.85l.09,0-.1,0h0"/><path class="cls-2" d="M257.3,112.13l.17.27,0-.28v0h0l-.08-.11-.13.13v0"/><path class="cls-2" d="M266.72,122.16l.11,0,.09,0-.18,0h0l0,0h0"/><path class="cls-2" d="M270.86,94.06l.17,0-.2-.06h-.11l.14,0"/><path class="cls-2" d="M263.28,97.81a.41.41,0,0,1,0,.12l.14-.15s0-.06,0-.1l-.15.13h0"/><path class="cls-2" d="M269.55,94h0"/><path class="cls-2" d="M266.15,93.91h0"/><polyline class="cls-2" points="272.04 94.21 272.05 94.21 272.05 94.21 272.05 94.21 272.05 94.21 272.06 94.21 272.06 94.21 272.06 94.21 272.06 94.21 272.06 94.21 272.07 94.22 272.07 94.22 272.07 94.22 272.07 94.22 272.07 94.22 272.08 94.22 272.08 94.22 272.08 94.22 272.08 94.22 272.09 94.22 272.09 94.22 272.09 94.22 272.09 94.22 272.1 94.22 272.1 94.22 272.1 94.22 272.1 94.22 272.1 94.23 272.11 94.23 272.11 94.23 272.11 94.23 272.11 94.23 272.11 94.23 272.11 94.23 272.11 94.23 272.11 94.23 272.11 94.23 272.11 94.23 272.11 94.23 272.11 94.23 272.11 94.22 272.11 94.22 272.1 94.22 272.1 94.22 272.1 94.22 272.1 94.22 272.09 94.22 272.09 94.22 272.09 94.22 272.09 94.22 272.08 94.22 272.08 94.22 272.08 94.22 272.08 94.22 272.08 94.22 272.07 94.22 272.07 94.22 272.07 94.21 272.07 94.21 272.07 94.21 272.06 94.21 272.06 94.21 272.06 94.21 272.06 94.21 272.06 94.21 272.05 94.21 272.05 94.21 272.05 94.21 272.05 94.21 272.04 94.21 272.04 94.21 272.04 94.2 272.04 94.21 272.04 94.21 272.04 94.21 272.04 94.21 272.04 94.21 272.04 94.21 272.04 94.21 272.04 94.21 272.04 94.21"/></g></g><path class="cls-2" d="M190.36,121.45l-9.66-15.53-6.48,10.38h6.06l-3.22,5.15H164.93L180.7,96.18l15.72,25.27Z"/><path class="cls-2" d="M207.19,121.45a7.69,7.69,0,0,1-7.73-7.69V96.18h5.15v17.58a2.59,2.59,0,0,0,2.58,2.58h10.26a2.61,2.61,0,0,0,2.58-2.58V96.18h5.15v17.58a7.72,7.72,0,0,1-7.73,7.69Z"/><path class="cls-2" d="M239,121.45a7.71,7.71,0,0,1-7.73-7.73v-9.85A7.71,7.71,0,0,1,239,96.18h18v4.36l-5.11,8.26h0v-7.5H239a2.6,2.6,0,0,0-2.58,2.57v9.85A2.59,2.59,0,0,0,239,116.3h10.3a2.56,2.56,0,0,0,2.58-2.58H257a7.7,7.7,0,0,1-7.73,7.73Z"/><path class="cls-2" d="M74.92,11.49V86.41H61.54V38.68L48.37,48.74,37.46,57.19,26.54,48.74,13.38,38.68V86.41H0V11.49L13.38,21.77,37.46,40.28,61.54,21.77Z"/><path class="cls-2" d="M157.86,86.41h-15L136,73,119.65,40.92,103.28,73,96.43,86.41h-15L88.29,73l31.36-61.54L151,73Z"/><path class="cls-2" d="M161.6,86.52h.21l-.21.21ZM236.73,11.6l-29,37.57,28.89,37.35H219.71L199.27,60.08,178.83,86.52H161.92l28.79-37.35-29-37.57h16.91l20.55,26.65L219.71,11.6h17Zm-.21,75.13-.11-.21h.11Z"/><path class="cls-2" d="M244.54,86.41V11.49h13.38V86.41Z"/><path class="cls-2" d="M268.62,86.41V11.49H282V86.41Z"/><g id="FWKUzO.tif"><path class="cls-2" d="M285,5.08V8.55c0,.12,0,.15-.15.15h-1.43c-.12,0-.16,0-.16-.16,0-2.3,0-4.59,0-6.89,0-.16-.05-.19-.2-.19-.75,0-1.5,0-2.25,0-.11,0-.15,0-.14-.14V.12c0-.1,0-.12.12-.12h6.66c.09,0,.13,0,.12.12V1.34c0,.1,0,.12-.12.12-.77,0-1.53,0-2.3,0-.14,0-.17,0-.16.17Z"/><path class="cls-2" d="M290.27,2V8.52c0,.14,0,.18-.17.18h-1.31c-.1,0-.14,0-.14-.13,0-2.81,0-5.63,0-8.44,0-.1,0-.13.14-.13h2.37c.09,0,.12,0,.15.12.5,1.91,1,3.82,1.51,5.73l.05.07c.12-.46.23-.89.35-1.32.39-1.5.79-3,1.18-4.5a.11.11,0,0,1,.13-.1h2.4c.1,0,.12,0,.12.12V8.54c0,.12,0,.16-.15.16h-1.32c-.13,0-.15,0-.15-.15q0-3.24,0-6.46s0-.06,0-.08,0,0-.05,0l-1.65,6.53c0,.12-.07.16-.2.16h-1.4c-.1,0-.13,0-.16-.13-.42-1.7-.85-3.41-1.28-5.11L290.33,2S290.29,1.93,290.27,2Z"/></g></g></g></svg>