<svg xmlns="http://www.w3.org/2000/svg" viewBox="0 0 174.66 42.62"><defs><style>.cls-1{isolation:isolate;}.cls-2{fill:#fff;}</style></defs><g id="Layer_2" data-name="Layer 2"><g id="Layer_1-2" data-name="Layer 1"><g class="cls-1"><g class="cls-1"><path class="cls-2" d="M168.28,25h0v0l.07.06,0,0-.06-.07m-1.54-1,0-.12c.28.12.88-.18.89-.19s.17-.21.43-.56a4.77,4.77,0,0,0-.06,1.11l.31.77-.12,0a.49.49,0,0,0-.51,0,3.16,3.16,0,0,0-.79.7c0-.31.14-.61.12-.93a3.4,3.4,0,0,0-.24-.79m.59-3.5h0v0l.08.06,0,0-.07-.08m-3.81.6a1.64,1.64,0,0,0,1.14,1.11c.3.06.3.06,1.17-.66a2.59,2.59,0,0,0,.24,1.89.25.25,0,0,1-.17,0,1.06,1.06,0,0,0-1,.51,1.85,1.85,0,0,0-.47,1.52s.54,2.56,2.35.38l0,0c.06.43-.27.78-.21,1.2a1.21,1.21,0,0,0,.51.94c.72.36,2.36-.51,1.51-2.78l.27.08c.16,0,2.35-.9.65-3.31-.79.07-.79.07-1.3.63h0a.31.31,0,0,1-.07.09c.1-.2.37-.91-.47-2,.84-.12.84-.12,1-.3.93-1.17.07-3-1-2.93a1.37,1.37,0,0,0-.82.92,3,3,0,0,0,0,1.1,6.87,6.87,0,0,0,.47.94,2,2,0,0,0-1,.21c-.19.09-.16.35-.34.44A3.8,3.8,0,0,0,166,20c-.08-.28-.38-.41-.45-.69a.7.7,0,0,0,0-.14c-.1-.21-.33-.14-.48-.22-1-.5-1.83.94-1.51,2.06"/><path class="cls-2" d="M169,20.91l.22.58c.06.14.24.22.25.39.65.38.85.12,1-.13a1.44,1.44,0,0,0,.32-.57,8,8,0,0,0,.07-1.14,3.9,3.9,0,0,0-.53-1c-.09-.08-.09-.08-.72-.19a2.8,2.8,0,0,0-.55.8,3.93,3.93,0,0,0-.1,1.24"/><path class="cls-2" d="M162.08,23.61c.13.75.13.75.19.85a1.38,1.38,0,0,0,.77.63,1.57,1.57,0,0,0,1.46-.65,2.71,2.71,0,0,0,.09-1.71,1.62,1.62,0,0,0-1-.8l-.52.11a1.56,1.56,0,0,0-1,1.57"/><path class="cls-2" d="M164.69,18.2c0,.11.11.34.11.35a4.31,4.31,0,0,0,.71.66c.12,0,.91,0,1.14-.4.36-.63.41-.73-.06-2.06l-.91-.64a4.7,4.7,0,0,0-.7.29.78.78,0,0,0-.26.3,1.9,1.9,0,0,0,0,1.5"/><path class="cls-2" d="M168.32,28.5c0,.73.56,1.28,1.27.57a2.58,2.58,0,0,0,.7-1.8s-.1-.82-.65-.79a.52.52,0,0,0-.23.06,2.4,2.4,0,0,0-1.09,2"/><path class="cls-2" d="M167.71,16.6a1.68,1.68,0,0,0,1.11,1l.06,0,.06,0,.06,0,.05,0,.06,0,.06,0,.06,0,.06,0a2,2,0,0,0,.05-1.87c-.26-.54-.78-1-1.33-.84-.33.16-.7.81-.3,1.9"/><path class="cls-2" d="M165,29.84c0,.86.95,1.29,1.68.52,1-1,.72-2.46-.21-2.41a1.28,1.28,0,0,0-.27.05,2,2,0,0,0-1.2,1.84"/><path class="cls-2" d="M162.89,28.5c.13.95,1.27,1.47,2.13.29a1.61,1.61,0,0,0,.36-.81v-.57c-.36-1.05-1.17-.89-1.26-.87a1.85,1.85,0,0,0-1.23,2"/><path class="cls-2" d="M161.09,19.6c.47,1.08,1.84,1.33,2.33.14a1.41,1.41,0,1,0-2.33-.14"/><path class="cls-2" d="M169.84,25.43c0,1,.62,1.35,1.17.77,1-1.06.58-2.95-.13-2.82l0,0,0,0-.05,0-.05,0,0,0,0,0,0,0,0,0a2.83,2.83,0,0,0-.69,1.88"/><path class="cls-2" d="M171,22.42c.35,1.74,1.18.62,1.19.61.59-1,.26-3-.45-2.77a.51.51,0,0,0-.17.07c-.86.57-.58,2-.57,2.09"/><path class="cls-2" d="M160.53,26.89c.2,1.43,1.7,1.37,2.35.48a1.92,1.92,0,0,0,.08-1.88c-.27-.54-1-.51-1.27-.5a1.68,1.68,0,0,0-1.16,1.9"/><path class="cls-2" d="M165.39,15.3c.49,1.05,1.53,1.28,1.89.41s-.49-2.53-1.61-2.26c-.71.43-.5,1.4-.28,1.85"/><path class="cls-2" d="M159.7,22.33a1.28,1.28,0,0,0,2.4.44,1.51,1.51,0,0,0-1.36-2.34,1.58,1.58,0,0,0-1,1.9"/><path class="cls-2" d="M162.14,16.57c.45,1.21,1.74,1.33,2.15.46a1.64,1.64,0,0,0-1.54-2.29,1.35,1.35,0,0,0-.61,1.83"/><path class="cls-2" d="M169.81,18c.43,1.11,1.16,1.19,1.46.47.43-1-.35-2.77-1.11-2.49a.19.19,0,0,0-.08,0c-.57.33-.48,1.45-.27,2"/><path class="cls-2" d="M166.67,31.11c0,.19,0,.4.11.58a.45.45,0,0,0,.42.21,1.11,1.11,0,0,0,.26,0,2.24,2.24,0,0,0,.81-.71c.66-1,.48-2-.36-1.8l-.13,0c-.59.45-.59.45-.76.72a2.3,2.3,0,0,0-.35,1"/><path class="cls-2" d="M171.3,26.31v.79c.07.34.14.47.34.59l.06,0,.06,0,.06,0,.06,0,.06,0,.06,0,.06,0,.07,0a3.67,3.67,0,0,0,.5-1.09v-.24l0-.12v-.58c-.1-.36-.16-.44-.35-.57l-.06,0-.06,0-.06,0-.06,0L172,25l-.07,0-.06,0-.07,0a3.92,3.92,0,0,0-.5,1.11v.11"/><path class="cls-2" d="M171.6,18.82c.29,1.11.29,1.11.44,1.27a.45.45,0,0,0,.71-.08,2.68,2.68,0,0,0,.18-1.18c-.15-.67-.33-1.52-.75-1.49,0,0,0,0-.42.24a2.42,2.42,0,0,0-.16,1.24"/><path class="cls-2" d="M158.29,25.55a1.55,1.55,0,0,0,.71.59c.14.06.14.06.6,0a1.26,1.26,0,0,0,1.11-1,4.41,4.41,0,0,0,0-1.08,1.71,1.71,0,0,0-.95-.77,4.55,4.55,0,0,0-.9.22,1.18,1.18,0,0,0-.5.47,2,2,0,0,0,0,1.62"/><path class="cls-2" d="M162.81,13.48l0,.09,0,.1,0,.1.05.11L163,14l0,.13.05.13.83.59.11,0,.1,0,.09,0,.09,0,.09,0,.09,0,.08,0,.07,0a1.26,1.26,0,0,0,.22-1.09l0-.08,0-.08,0-.1-.05-.1,0-.11-.06-.12-.06-.12-.06-.13-.85-.56-.09,0-.09,0-.09,0-.08,0-.08,0-.08,0-.06,0-.07,0a1.33,1.33,0,0,0-.24,1.06l0,.07"/><path class="cls-2" d="M161.11,30.76s0,0,0,.06,0,.06,0,.1,0,.06,0,.1v.42a1.46,1.46,0,0,0,.74.6l.09,0,.11,0,.1,0,.11,0,.11,0,.12,0,.12,0,.13,0c.27-.31.44-.52.72-.86V30l-.67-.6-.12,0-.12,0-.12,0-.12,0-.12,0-.13,0-.13,0-.21,0a4.14,4.14,0,0,1-.78.89v.29"/><path class="cls-2" d="M163.14,32.49a.7.7,0,0,0,.7.78l.06,0,.06,0H164l.07,0,.07,0,.07,0h.06l.07,0a1.65,1.65,0,0,0,.93-1.26c.07-.38.08-.89-.54-1l-.12,0-.06,0-.07,0h-.07l-.07,0-.07,0-.07,0-.07,0h-.07a1.68,1.68,0,0,0-.94,1.53"/><path class="cls-2" d="M169.83,29.32v.15l0,.08v.15l0,.08v.07c0,.41.07.6.26.61a1.05,1.05,0,0,0,.79-.51,3.49,3.49,0,0,0,.44-.86l0-.07V29l0-.08,0-.08V28.7l0-.09,0-.09v-.09a1.07,1.07,0,0,0-.15-.48c-.17-.16-.19-.15-.4-.05a2.23,2.23,0,0,0-1,1.35l0,.07"/><path class="cls-2" d="M168.08,13.84c.65,1.16,1.38.84,1.51.39.18-.65-.53-2.56-1.57-2.09q-.26.13-.24.69a1.65,1.65,0,0,0,.3,1"/><path class="cls-2" d="M170.12,15.09c.66,1.22,1.16.81,1.29.43.34-1-.77-2.51-1.22-2.29a.15.15,0,0,0-.08,0c-.65.54,0,1.81,0,1.82"/><path class="cls-2" d="M158.47,17.37l0,.1,0,.09,0,.1,0,.1,0,.1,0,.1,0,.09c.47.58.47.58,1,.8h.58a1.26,1.26,0,0,0,.66-1.27v-.06l0-.06,0-.07,0-.08,0-.07v-.07l0-.06v-.06a1.4,1.4,0,0,0-1.16-.86h-.05l0,0h-.19l-.07,0h-.14a1.26,1.26,0,0,0-.67,1.1l0,.1"/><path class="cls-2" d="M172.39,23.83a1,1,0,0,0,.41.82l0,0,0,0,0,0,0,0,0,0,0,0,0,0,0,0c.72-1.22.36-2.88-.08-2.73l0,0,0,0,0,0,0,0,0,0,0,0,0,0,0,0a3.19,3.19,0,0,0-.39,1.94"/><path class="cls-2" d="M158.84,29.59a1.09,1.09,0,0,0,1.07.94h.18l.08,0h.14l.08,0h.06a1.53,1.53,0,0,0,.93-1.36,1.09,1.09,0,0,0-.77-1.16,1.32,1.32,0,0,0-.3-.06h-.19l-.07,0h-.15l-.08,0h-.07a1.57,1.57,0,0,0-.91,1.64"/><path class="cls-2" d="M157.17,20.64a1.23,1.23,0,0,0,2.32.42c.46-.74,0-2.36-1.29-2.21a1.37,1.37,0,0,0-1,1.79"/><path class="cls-2" d="M165.53,12.15l0,.08,0,.08,0,.08,0,.08,0,.08,0,.07,0,.07a1.76,1.76,0,0,0,1,.65l0,0,0,0,0,0,.05,0,.05,0,.06,0,.05,0,.06,0a1.6,1.6,0,0,0,0-1.13l0-.08,0-.07,0-.08,0-.08-.05-.08,0-.07-.05-.08,0-.08a1.89,1.89,0,0,0-1-.6l0,0,0,0-.05,0,0,0-.05,0-.05,0-.06,0-.05,0a1.62,1.62,0,0,0-.05,1.09l.05.08"/><path class="cls-2" d="M159.56,14.66l0,.09,0,.08,0,.09,0,.09,0,.08,0,.09,0,.09a1.72,1.72,0,0,0,1.06.77l.07,0h.07l.07,0,.08,0,.07,0,.08,0h.08l.09,0a1.58,1.58,0,0,0,.44-1.14l0-.08,0-.08,0-.08,0-.09,0-.08,0-.09,0-.08,0-.08a1.81,1.81,0,0,0-1.09-.73h-.11l-.06,0h-.06l-.07,0-.08,0h-.07l-.08,0a1.66,1.66,0,0,0-.45,1.09l0,.08"/><path class="cls-2" d="M168.08,32.13s-.07.45-.07.45a.09.09,0,0,0,0,.05c.07.12.14.26.16.3.56.12,1.07-.66,1.26-1,0,0,.57-.77.25-1.24-.13-.2-.4-.05-.4-.05v.13h0v-.08h0v0a3.66,3.66,0,0,0-1.17,1.46"/><path class="cls-2" d="M164.83,33.63a1,1,0,0,0,0,.34l.32.35a1.1,1.1,0,0,0,.82-.24,2.38,2.38,0,0,0,.83-1.31.57.57,0,0,0-.48-.69.55.55,0,0,0-.21,0,4.15,4.15,0,0,0-.51.23l-.57.65a2.16,2.16,0,0,0-.22.64"/><path class="cls-2" d="M173.13,20.64c.12.58.41,1.06.61.81.45-.6.19-2.88-.32-2.81l-.1.06a3.5,3.5,0,0,0-.19,1.94"/><path class="cls-2" d="M155.46,23.19a1.76,1.76,0,0,0,1.35,1.23h.35a1.78,1.78,0,0,0,1-1.51,1.6,1.6,0,0,0-1-1.21,1.19,1.19,0,0,0-.51,0c-.72.16-1.35,1-1.17,1.59"/><path class="cls-2" d="M171.9,16.22c.25.63.78,1.12.94.75.38-.89-.42-2.71-.94-2.57l0,0c-.31.34-.05,1.55,0,1.79"/><path class="cls-2" d="M156.3,27.94a1.27,1.27,0,0,0,2.38.32,1.29,1.29,0,0,0-1.2-2.05c-.51.08-1.4.95-1.18,1.73"/><path class="cls-2" d="M160.54,12.45c.46.63.6.82,1.18.88.26,0,.26,0,.43-.13a.8.8,0,0,0,.32-.56c.1-.79-.75-1.86-1.57-1.7a.7.7,0,0,0-.49.59,1.73,1.73,0,0,0,.13.92"/><path class="cls-2" d="M163.3,11.26c.69.93,1.56,1.06,1.7.25a1.74,1.74,0,0,0-1.7-1.79,3.55,3.55,0,0,0-.23.31.66.66,0,0,0-.07.25,2.23,2.23,0,0,0,.3,1"/><path class="cls-2" d="M159.36,33.45c.15.51.22.75.9.79.25,0,.25,0,.64-.2a1.08,1.08,0,0,0,.49-.45c.1-.17.3-.63.3-.63a5.74,5.74,0,0,0-.21-.57c-.1-.2-.1-.2-.91-.38l-.06.07c-.14.08-.29.09-.43.17s-.09.11-.14.14-.13.06-.18.1-.18.33-.32.44c0,.33,0,.33-.11.42l0,.1"/><path class="cls-2" d="M172.23,28a2,2,0,0,0,0,.61.19.19,0,0,0,.28.11,4.17,4.17,0,0,0,.73-1.62,4.19,4.19,0,0,0,0-.77c0-.07,0-.07-.26-.14a.57.57,0,0,1-.16.22,2.75,2.75,0,0,0-.29.5,4.35,4.35,0,0,0-.32,1.09"/><path class="cls-2" d="M161.32,34.79c0,.08,0,.08.16.48.43.12.43.12.61.09a1.56,1.56,0,0,0,.75-.35c.68-.63.56-1.23.46-1.41s-.63-.24-.82-.21a1.51,1.51,0,0,0-1.16,1.4"/><path class="cls-2" d="M170.86,30.39l0,.07,0,.08,0,.08,0,.08,0,.08,0,.08,0,.09c0,.15,0,.25,0,.41l.17.09a2.25,2.25,0,0,0,1-1.25l0-.06,0-.07,0-.06,0-.08,0-.07,0-.07,0-.06,0-.06c.09-.54,0-.67-.31-.48a1.6,1.6,0,0,0-.5.53,4.11,4.11,0,0,0-.28.6l0,.07"/><path class="cls-2" d="M170,12.23c.07.11.85,1.09,1,.41s-.94-2.31-1.34-2.07l0,0c-.36.4.23,1.43.35,1.63"/><path class="cls-2" d="M157.11,31.75v.58a1.66,1.66,0,0,0,.81.61H158l.08,0h.18l.09,0h.09l.09,0h.18c.38-.25.45-.51.86-.89v-.07s-.08-.05-.08-.08,0-.05,0-.08,0-.05,0-.08,0-.05,0-.08v-.08s0,0,0-.07v-.08a1.37,1.37,0,0,0-.82-.67h-.08l-.09,0h-.18l-.09,0h-.1l-.09,0h-.1a1.91,1.91,0,0,0-.78.92v.07"/><path class="cls-2" d="M154.62,18.71c0,.17.12.66,1,1h.24l.09,0h.19l.09,0h.1c.71-.59.63-1.09.6-1.26-.07-.47-.07-.47-.27-.71a1.74,1.74,0,0,0-.73-.5h-.41l-.09,0h-.18a1.39,1.39,0,0,0-.61,1.45"/><path class="cls-2" d="M173.36,25.15a1.22,1.22,0,0,0,.15.73,3.2,3.2,0,0,0,.44-2.67l-.09.07a4.36,4.36,0,0,0-.5,1.87"/><path class="cls-2" d="M161,10c.39.66,1.42,1.08,1.62.32.14-.53-.42-1.2-.42-1.21s-.66-.64-1.11-.51c-.69.27-.24,1.14-.09,1.4"/><path class="cls-2" d="M173.34,17.5a1.76,1.76,0,0,0,.45.81c.36-.25.1-2.17-.47-2.66a.14.14,0,0,0-.08.07,3.43,3.43,0,0,0,.1,1.78"/><path class="cls-2" d="M153.83,25.64v.72a1.79,1.79,0,0,0,1,.79h.71a2,2,0,0,0,.79-1v-.79a1.71,1.71,0,0,0-1-.78h-.74a2.39,2.39,0,0,0-.76,1v.1"/><path class="cls-2" d="M162.92,35.9c-.06.31.28.91,1.17.26a1.86,1.86,0,0,0,.74-1.13.56.56,0,0,0-.45-.48,1,1,0,0,0-.22,0,1.79,1.79,0,0,0-1.24,1.31"/><path class="cls-2" d="M166.18,34.63c-.22.82.45.6.65.47a3.34,3.34,0,0,0,.89-1c.3-.69.06-.82-.06-.85a.61.61,0,0,0-.35,0,1.57,1.57,0,0,0-.7.57,1.48,1.48,0,0,0-.43.76"/><path class="cls-2" d="M169.08,33l0,.07,0,.07,0,.07,0,.07,0,.07,0,.07,0,.07c0,.26,0,.39.11.47l0,0,.05,0,0,0,0,0,0,0,0,0,.05,0,.05,0a4.74,4.74,0,0,0,.72-.91l0-.07,0-.07,0-.07,0-.07,0-.07,0-.08,0-.07,0-.07c0-.28,0-.41-.12-.49l0,0-.05,0,0,0-.05,0,0,0-.05,0-.05,0-.06,0a5.33,5.33,0,0,0-.72.93l0,.07"/><path class="cls-2" d="M165.64,10c.69.91,1.34.78,1.4.44a1.66,1.66,0,0,0-.53-1.35c-.1-.12-.65-.68-1.14-.48-.08,0-.21.11-.12.6a1.51,1.51,0,0,0,.39.79"/><path class="cls-2" d="M157.24,13.1l0,.08,0,.09,0,.08,0,.09,0,.09,0,.09,0,.1a2.18,2.18,0,0,0,.89.66h.07l.08,0h.07l.08,0h.08l.08,0h.08l.08,0a1.35,1.35,0,0,0,.4-.95l0-.08,0-.08,0-.09,0-.08,0-.08,0-.08,0-.08,0-.08a2,2,0,0,0-.91-.67l-.06,0H158l-.07,0h-.14l-.08,0h-.07a1.4,1.4,0,0,0-.41.92l0,.08"/><path class="cls-2" d="M156.12,15.72l0,.09,0,.09V16l0,.09,0,.1,0,.09v.1a2.21,2.21,0,0,0,.91.72h.65a1.54,1.54,0,0,0,.56-1l0-.08,0-.09,0-.08,0-.09,0-.09,0-.09,0-.08,0-.08a1.89,1.89,0,0,0-.9-.72h-.08l-.07,0h-.24l-.08,0h-.08l-.09,0a1.57,1.57,0,0,0-.54,1v.08"/><path class="cls-2" d="M167.94,11.11c.19.29,1.07,1.1,1.25.35,0-.13.08-.63-.57-1.46,0,0-.65-.62-.94-.44h0c-.46.38.09,1.28.27,1.55"/><path class="cls-2" d="M154.57,30.57a1.29,1.29,0,0,0,2.33.25,1.12,1.12,0,0,0-1.17-1.7,1.22,1.22,0,0,0-1.16,1.45"/><path class="cls-2" d="M174.05,21.92c0,.24.07,1,.24.81s.28-2.66,0-2.61l-.06.06a5.18,5.18,0,0,0-.18,1.74"/><path class="cls-2" d="M158.13,10.94c.38.84,1.44,1.17,1.7.33a1.4,1.4,0,0,0-1.35-1.68c-.56.17-.56.9-.35,1.35"/><path class="cls-2" d="M153,21.61a1.37,1.37,0,0,0,1.13.89h.36a1.3,1.3,0,0,0-.13-2.49l-.21,0h-.41a2.61,2.61,0,0,0-.69.73,1.33,1.33,0,0,0-.05.92"/><path class="cls-2" d="M163.21,8.66c.55.71,1.43,1,1.51.39s-1.05-1.81-1.7-1.61c-.33.15-.17.77.19,1.22"/><path class="cls-2" d="M171.69,13.33c.35.63.7.86.77.63.21-.78-.77-2.5-1.12-2.3l0,0a2.29,2.29,0,0,0,.37,1.64"/><path class="cls-2" d="M167,35.52c0,.09-.11.3-.11.3a1,1,0,0,0,.07.29,1,1,0,0,0,.47-.2s.6-.59.61-.62a1.77,1.77,0,0,0,.38-.65.69.69,0,0,0-.07-.46.76.76,0,0,0-.18-.06h0A7.67,7.67,0,0,0,167,35.43"/><path class="cls-2" d="M164.21,36.7c0,.16-.05.25-.07.32s.1.14.16.24c.47,0,.52-.08,1.16-.66,0,0,.26-.38.27-.4a3.13,3.13,0,0,0,.1-.33l-.18-.27-.33,0c-.33.17-.33.17-.92.74-.05,0,0,.11-.07.16s-.1.09-.12.16"/><path class="cls-2" d="M172.72,29a4.07,4.07,0,0,0-.14.77c.21-.08.46-.72.54-.93a3.55,3.55,0,0,0,.35-1.36l-.11.06a6.52,6.52,0,0,0-.64,1.46"/><path class="cls-2" d="M157.52,35.66l.06.23a.07.07,0,0,0,0,0s.53.39.56.39a1.16,1.16,0,0,1,.18,0,.13.13,0,0,1,.11.06l.52-.19c.45-.36.47-.44.56-.68,0-.07.07-.13.07-.2s-.07-.39-.08-.4l-.44-.34a1.42,1.42,0,0,0-.46,0l-.42.13-.05,0-.54.54a2.18,2.18,0,0,0-.08.44"/><path class="cls-2" d="M152.13,28.84c.28.52.3.55.38.61a3.23,3.23,0,0,0,.85.33,1.44,1.44,0,0,0,1.08-1,2.64,2.64,0,0,0,.07-.39s0-.05,0-.08a3.23,3.23,0,0,0-.31-.58,1.76,1.76,0,0,0-1-.41c-.68.38-.68.38-.73.45s-.09.11-.35.87l.1.17"/><path class="cls-2" d="M174.22,18.73c.13.64.2.86.28.81.08-.75-.18-2.6-.39-2.46a7.79,7.79,0,0,0,.11,1.65"/><path class="cls-2" d="M153.83,14.4a1.16,1.16,0,0,0,.83.9h.58a1,1,0,0,0,.47-1.11,2.05,2.05,0,0,0-.12-.46c-.38-.48-.63-.56-.69-.57h-.54l-.09,0a1.11,1.11,0,0,0-.44,1.23"/><path class="cls-2" d="M160.9,7.57a1.63,1.63,0,0,0,.93.66s.43,0,.46-.36c.06-.51-.92-1.59-1.57-1.39-.15.06-.24.09-.18.44a1.38,1.38,0,0,0,.36.65"/><path class="cls-2" d="M155.4,34.42a.84.84,0,0,0,.77.65,1.2,1.2,0,0,0,1.12-.42,1.39,1.39,0,0,0,.19-.34,1.91,1.91,0,0,0-.06-.66.87.87,0,0,0-.86-.43h-.08c-1,.14-1.13.72-1.08,1.19"/><path class="cls-2" d="M158.47,8.34l0,.06,0,.07,0,.07,0,.07,0,.07,0,.07,0,.07a1.24,1.24,0,0,0,.86.5.44.44,0,0,0,.51-.46,1.12,1.12,0,0,0-.07-.41l0,0,0-.05,0-.07,0-.07,0-.07-.05-.07L159.73,8l0-.08c-.57-.52-.86-.45-1-.42-.29.09-.37.31-.28.78l0,.07"/><path class="cls-2" d="M151.26,24.07a1.14,1.14,0,0,0,2.05.67,1.2,1.2,0,0,0-1-2,1.14,1.14,0,0,0-1.06,1.3"/><path class="cls-2" d="M165,7.52c.65.68,1.22.73,1.24.3s-1.2-1.7-1.7-1.43c-.09.06-.16.11-.05.38a2.14,2.14,0,0,0,.51.75"/><path class="cls-2" d="M152.33,16.92a1,1,0,0,0,1.85.49,1.43,1.43,0,0,0,.22-.53l0-.07v-.42l0-.09v-.09c-.44-.72-.91-.68-1.07-.66-.88.11-1,.81-.9,1.37"/><path class="cls-2" d="M161.09,37.74c-.07.26,0,.42.34.47h.1l.06,0h.12l.07,0h.07l.07,0c.9-.52,1.06-1.27.64-1.38a1.21,1.21,0,0,0-.44,0,1.49,1.49,0,0,0-1,1"/><path class="cls-2" d="M169.38,34.21c-.1.17-.31.53-.17.59l0,0,0,0,0,0,0,0,0,0,0,0,0,0,0,0c.67-.67,1.21-1.63,1-1.67s-.09,0-.14.06a3.55,3.55,0,0,0-1,1.2"/><path class="cls-2" d="M159.51,36.78c0,.72.9.67,1.43.21s.58-1.24-.11-1.27a1.32,1.32,0,0,0-.29,0,1.22,1.22,0,0,0-1,1"/><path class="cls-2" d="M155,11.88a1.17,1.17,0,0,0,.83.84.92.92,0,0,0,.83-.41,1.27,1.27,0,0,0-.87-1.68h-.28l-.06,0h-.15a1.07,1.07,0,0,0-.3,1.17"/><path class="cls-2" d="M167.21,8.42c.93,1.09,1.15.5,1.15.5s.07-.44-.59-1.15c-.4-.43-.81-.61-1-.53l0,0c-.23.24.18.86.44,1.15"/><path class="cls-2" d="M173,14.45c.11.28.28.63.44.69v-.2c-.1-.92-.69-2.23-.85-2l0,.06s-.09.34.37,1.5"/><path class="cls-2" d="M171.15,31.82c-.18.43-.2.61-.07.55s1.31-1.91,1-2l-.1.06a4.72,4.72,0,0,0-.87,1.44"/><path class="cls-2" d="M173.79,26.27s-.12.64,0,.68a4,4,0,0,0,.37-1.16v-.13l0-.08,0-.09V25.4l0-.09,0-.1,0-.1a1.21,1.21,0,0,0,0-.5.42.42,0,0,0,0,.07,7.61,7.61,0,0,0-.42,1.59"/><path class="cls-2" d="M169,9.16l.05.06,0,.07.05.07.06.08.06.08.06.08.06.08c.57.55.76.45.75.17,0-.62-1.14-1.93-1.44-1.67l0,0c0,.06-.13.19.27.9l.05.06"/><path class="cls-2" d="M150.62,19.48a1.22,1.22,0,0,0,.82,1,1.13,1.13,0,0,0,.58,0l.53-.35a1.65,1.65,0,0,0,.19-1.13l-.33-.56a1.5,1.5,0,0,0-.72-.25h0a1,1,0,0,0-.77.41,1.31,1.31,0,0,0-.27.88"/><path class="cls-2" d="M152.93,33l.34.47a2.62,2.62,0,0,0,.66.2A1.13,1.13,0,0,0,155,33c.27-.59-.2-1.31-1.1-1.27-.65.07-1.21.81-1,1.32"/><path class="cls-2" d="M170.92,10.56c.37.56.69.83.74.62A2.38,2.38,0,0,0,171.2,10c-.4-.64-.56-.71-.77-.79l0,0c-.08.37.52,1.27.52,1.28"/><path class="cls-2" d="M174.46,23.21a5.39,5.39,0,0,0,0,.76,1.87,1.87,0,0,0,.06-.33l.14-1.63a2.09,2.09,0,0,0,0-.4s0,0,0,0c-.07.38-.13,1.14-.16,1.57"/><path class="cls-2" d="M162.78,6.55a2.29,2.29,0,0,0,.9.51c.29.07.31-.16.31-.2s0-.48-.61-1c0,0-.77-.53-1-.41s.14.8.42,1.08"/><path class="cls-2" d="M165.08,37.37l0,0,0,0,0,0,0,0,0,0,0,.05,0,0c0,.21,0,.3.09.34h.12l0,0h.09a4.83,4.83,0,0,0,.82-.68l0,0,0,0,0,0,0-.05,0,0,0,0,0,0,0-.05c.07-.22,0-.33-.1-.37h0l0,0H166l0,0h-.1a7.86,7.86,0,0,0-.8.7l0,0"/><path class="cls-2" d="M155.86,9.41a1.44,1.44,0,0,0,.79.78.47.47,0,0,0,.66-.28c.42-.9-.59-1.63-1.1-1.57a.87.87,0,0,0-.35,1.07"/><path class="cls-2" d="M162.19,38.56s-.06.54.44.32a2,2,0,0,0,1-.78.29.29,0,0,0-.12-.46.22.22,0,0,0-.16,0,1.82,1.82,0,0,0-1.11.92"/><path class="cls-2" d="M167.42,36.34a1,1,0,0,0-.22.48c.05,0,.07,0,.1,0s0,0,.14-.07a8,8,0,0,0,.61-.55c.53-.59.54-.71.56-.92-.05,0-.12,0-.18.05a4.45,4.45,0,0,0-1,1"/><path class="cls-2" d="M149.49,26.75a3.07,3.07,0,0,0,.11.41l.08.05a3,3,0,0,0,.42.38.48.48,0,0,0,.26,0c.28.25.52-.06.79-.05.16-.15.5-.55.5-.55a2.39,2.39,0,0,0,0-.66c0-.06-.1-.4-.11-.41l-.09-.05c-.21-.14-.34-.42-.65-.42,0,0,0,0,0,0a.35.35,0,0,0-.26-.12c-.2,0-.35.18-.56.16l-.28.33c-.05.06-.13.11-.16.19a2,2,0,0,0,0,.69"/><path class="cls-2" d="M173.89,15.66c.05.19.05.19.25.79a8.93,8.93,0,0,0-.55-2.2s0,0,0,.06a11.41,11.41,0,0,0,.31,1.35"/><path class="cls-2" d="M158.55,6.41c.17.22,1.19,1,1.28.38.1-.85-1.12-1.42-1.39-1.35s-.1.71.11,1"/><path class="cls-2" d="M148.69,22.14c.28.59.28.59.4.69s.1.09.76.39c.72-.41.72-.41.8-.5a2.5,2.5,0,0,0,.24-.7A1.33,1.33,0,0,0,150,21a1.8,1.8,0,0,0-.37-.05,1.39,1.39,0,0,0-.77.5s-.34.44-.19.74"/><path class="cls-2" d="M150.27,31.16a2.64,2.64,0,0,0,.49.65,3.1,3.1,0,0,0,.73.23c.2-.13.47-.12.64-.31s.09-.09.38-.8c-.44-.66-.44-.66-.53-.74s-.49-.14-.73-.26c-.2.15-.48.14-.67.33s-.08.1-.37.81l.06.09"/><path class="cls-2" d="M174.63,20.09c0,.14,0,.39,0,.62L174.57,19l0-.4.1,1.52"/><path class="cls-2" d="M172.27,11.73c.29.46.29.46.44.58a4.47,4.47,0,0,0-1-2,6,6,0,0,0,.6,1.4"/><path class="cls-2" d="M160.45,5.53a1.49,1.49,0,0,0,.88.52l0,0h.07l0,0h0l0,0h.06c0-.1.08-.29-.28-.65a2.32,2.32,0,0,0-1-.69l0,0,0,0h0l0,0h0l0,0,0,0h0c0,.12,0,.32.48.8"/><path class="cls-2" d="M157.81,38.74c.32.57,1.37.1,1.52-.39s-.25-.64-.69-.57a.86.86,0,0,0-.83,1"/><path class="cls-2" d="M153.79,36.29c.12,1,1.41.67,1.7.25a.86.86,0,0,0,0-.79,1,1,0,0,0-.92-.32c-.86.1-.85.68-.83.86"/><path class="cls-2" d="M171.14,32.7a3.71,3.71,0,0,0-.3.56,11.16,11.16,0,0,0,1.09-1.78s0,0-.06.06c-.18.23-.47.72-.73,1.16"/><path class="cls-2" d="M172.57,30.22l-.26.6v0l0-.07c.25-.54.59-1.26.81-1.81h0s0,0,0,.06l-.56,1.25"/><path class="cls-2" d="M155.91,37.57c0,.64,1.08.67,1.51.18a.59.59,0,0,0-.41-1l-.21,0c-.45.06-.91.21-.89.84"/><path class="cls-2" d="M156.45,7.36a1,1,0,0,0,.57.57,1.44,1.44,0,0,0,.56,0,.72.72,0,0,0,.1-.18c.14-.45-.49-1.46-1.12-1.33-.28.07-.48.23-.11,1"/><path class="cls-2" d="M173.63,27.61h0l.06-.19.27-1c-.07.27-.18.69-.33,1.17"/><path class="cls-2" d="M151.67,12.21v.62a2.17,2.17,0,0,0,.55.54h.6a1,1,0,0,0,.44-.68V12a1.13,1.13,0,0,0-.6-.54h-.54a1.61,1.61,0,0,0-.43.62v.07"/><path class="cls-2" d="M165.87,5.93l.07.06.06.06.07.06.06.06.06.06.07,0,.05.06a1.71,1.71,0,0,0,.63.31v0h0v0l0,0,0,0,0,0,0,0,0,0a2.52,2.52,0,0,0-.36-.57l-.07,0-.06-.06-.07-.06-.07-.06-.07-.07-.08-.06-.08-.07-.07-.06a3.22,3.22,0,0,0-.59-.28v0l0,0v0l0,0,0,0v0h0v0a1.86,1.86,0,0,0,.37.58l.06,0"/><path class="cls-2" d="M167.86,6.84l.06.07L168,7l.06.07.07.06.06.07,0,.06.06,0,.55.35V7.46c-.14-.24-.24-.38-.39-.62l-.06-.06-.06-.07-.07-.06-.06-.06-.07-.07-.07-.07-.06-.06L168,6.32,167.5,6V6.2l.37.57.07.07"/><path class="cls-2" d="M169.46,34.89l0,0,0,0,0,0,0,0,0,.05,0,.06,0,.05c-.18.25-.2.31-.2.33A7.16,7.16,0,0,0,170.25,34l-.07,0a10.67,10.67,0,0,0-.7.82l0,0"/><path class="cls-2" d="M148.35,17.61a1.1,1.1,0,0,0,.75.85h.47a1.06,1.06,0,0,0-.07-2,1.32,1.32,0,0,0-.27,0,.82.82,0,0,0-.65.39,1.08,1.08,0,0,0-.23.79"/><path class="cls-2" d="M146.89,24.73c.08.6,1.13,1.42,1.82.48a1.07,1.07,0,0,0-.92-1.71.9.9,0,0,0-.74.46,1,1,0,0,0-.16.77"/><path class="cls-2" d="M147.73,29.28a1.4,1.4,0,0,0,.89.89h.5c1.43-.78.3-1.91-.24-2h-.51a1,1,0,0,0-.64,1.1"/><path class="cls-2" d="M163,39.22c-.21.28-.15.36,0,.35.37,0,1.41-.84,1.2-1a.18.18,0,0,0-.2,0,2.75,2.75,0,0,0-1,.71"/><path class="cls-2" d="M165.35,38.2c-.24.27-.27.32-.23.42.56-.2,1.51-1.16,1.32-1.23,0,0-.1,0-.14,0a4.59,4.59,0,0,0-1,.78"/><path class="cls-2" d="M173.09,12.85c.08.19.17.39.24.59l-.62-1.53-.18-.39v0l.55,1.29"/><path class="cls-2" d="M159.31,39.37c-.06.29.21.35.33.37H160c.88-.44.9-.91.53-1l-.12,0H160c-.29.15-.65.42-.71.68"/><path class="cls-2" d="M153,10.32c.07.38.8,1.1,1.26.45a1,1,0,0,0-.69-1.52c-.5.08-.66.6-.57,1.07"/><path class="cls-2" d="M161.66,4.45c.33.26,1,.63,1.16.4-.09-.62-1.4-1.29-1.62-1.16,0,0-.13.09,0,.21a1.73,1.73,0,0,0,.51.55"/><path class="cls-2" d="M169.67,8c.38.44.66.66.67.52A3.6,3.6,0,0,0,169,6.93a0,0,0,0,0,0,0,3.23,3.23,0,0,0,.64,1"/><path class="cls-2" d="M163.8,5.14l0,0,.05,0,0,0,.05,0,.05,0,0,.05.06,0c.58.32.7.38.88.22a1.33,1.33,0,0,0-.43-.66l0,0,0,0,0,0,0,0-.06,0,0,0-.06,0-.06,0c-.66-.38-.82-.28-.83-.27s0,.27.36.67l.05,0"/><path class="cls-2" d="M153.94,8c.22.69.92,1,1.19.45a1.05,1.05,0,0,0-.06-.9.84.84,0,0,0-.91-.44.83.83,0,0,0-.22.89"/><path class="cls-2" d="M151.41,35.16c.48.53.82.49,1,.47a1,1,0,0,0,.82-.67c0-.21-.14-1-1.15-.92l-.2,0a1.66,1.66,0,0,0-.48.4.73.73,0,0,0,0,.7"/><path class="cls-2" d="M150.13,15c.07.82,1,1.27,1.53.55a1.2,1.2,0,0,0,.18-1c-.37-.65-.66-.63-1.09-.61-.56.42-.65.7-.62,1.05"/><path class="cls-2" d="M160.35,40c-.13.25,0,.36.31.26a1.67,1.67,0,0,0,.67-.38.94.94,0,0,0,.21-.25c0-.07,0-.15,0-.23a1.24,1.24,0,0,0-.33,0,1.7,1.7,0,0,0-.89.64"/><path class="cls-2" d="M158.08,4.46c.47.44,1.09.66,1.09.28s-.93-1.12-1.36-1c-.09,0-.11.12-.07.23a3.7,3.7,0,0,0,.34.5"/><path class="cls-2" d="M156.53,5.29c.27.36,1,.81,1.05.29s-.82-1.18-1.19-1.1l0,0-.07.2a1.32,1.32,0,0,0,.25.58"/><path class="cls-2" d="M167.28,37.15c-.11.11-.21.23-.31.34v0a5.58,5.58,0,0,0,.78-.67,3.05,3.05,0,0,0,.54-.61s0,0-.07,0a9.93,9.93,0,0,0-.93.88"/><path class="cls-2" d="M148.71,33.38c.22.36.22.36.38.47a1.4,1.4,0,0,0,.64.28,1.06,1.06,0,0,0,.82-.48l.08-.39-.21-.37a1.49,1.49,0,0,0-.88-.44,1.12,1.12,0,0,0-.65.36,1.41,1.41,0,0,0-.12.16s-.1.33-.06.41"/><path class="cls-2" d="M170.76,8.73l0,.07,0,.07.06.07L171,9l.06.08,0,.08.06.08.24.28V9.37c-.12-.21-.2-.34-.33-.54l0-.08-.06-.08-.06-.08-.05-.08-.06-.08,0-.08-.06-.07-.05-.08-.24-.26v.17c.14.21.22.35.35.56l0,.06"/><path class="cls-2" d="M154.42,5.69l0,.07,0,.07,0,.07,0,.07,0,.07,0,.07,0,.07.41.32h.39c0-.18.06-.29.09-.46l0,0,0-.06,0-.06,0-.06,0-.07,0-.07,0-.07,0-.08-.44-.29h-.34c0,.16-.05.26-.08.4l0,.07"/><path class="cls-2" d="M159.22,3.5l.06,0,.07,0,.07.05.07.06.07,0,.07.06.08.06.54.21h0l0,0h.06l0,0h0l0,0h0l-.24-.35-.08-.06-.08-.05L160,3.45l-.08-.05-.08-.06-.08,0-.08-.06-.08,0L159.09,3l0,0H159l0,0h-.08l.27.36.06,0"/><path class="cls-2" d="M146.57,19.64V20s0,.07,0,.1,0,.07,0,.11v.11c0,.2.32.32.52.51h.7l.48-.55v-.79c-.2-.2-.3-.3-.47-.49h-.71l-.52.58v.07"/><path class="cls-2" d="M145.13,27.22c.09.61,1.1,1.3,1.69.54a1.07,1.07,0,0,0-.86-1.58.85.85,0,0,0-.83,1"/><path class="cls-2" d="M156.27,40c0,.33.69.48,1.13,0,.23-.23.21-.61-.28-.65H157c-.57.1-.72.43-.71.59"/><path class="cls-2" d="M149.89,10.78c0,.65.63,1.06,1.11.54s.13-1.4-.42-1.38h-.07a.45.45,0,0,0-.39.19.87.87,0,0,0-.23.65"/><path class="cls-2" d="M154.46,39.19c.15.53,1.07.43,1.33,0a.37.37,0,0,0-.08-.5.71.71,0,0,0-.57-.15c-.53.07-.77.4-.68.67"/><path class="cls-2" d="M152.31,38.15c.06.21.15.27.59.43h.46c.45-.27.47-.3.4-.82l-.5-.31h-.54c-.38.18-.49.37-.41.69"/><path class="cls-2" d="M164.63,4.22c.43.29.86.48.82.29s-.24-.4-.93-.82c-.19-.11-.52-.29-.61-.14l0,0c.13.13.25.27.38.39l.36.25"/><path class="cls-2" d="M161,40.58c-.05.05-.16.21,0,.21s1.24-.58,1.09-.74,0,0-.17,0a2.27,2.27,0,0,0-.88.54"/><path class="cls-2" d="M163.14,39.85c-.18.15-.15.2-.15.22.48-.14,1.38-.85,1.24-.9a.27.27,0,0,0-.12,0,3.83,3.83,0,0,0-1,.66"/><path class="cls-2" d="M165.38,38.68l0,0-.05,0-.05,0,0,0-.05,0,0,0,0,0-.21.2a4.51,4.51,0,0,0,.82-.55l0,0,0,0,0,0,0,0,0,0,0,0,0,0,0,0a1.15,1.15,0,0,0,.23-.23h0l-.09,0a5.8,5.8,0,0,0-.62.44l-.06,0"/><path class="cls-2" d="M148.2,13v.38a1.51,1.51,0,0,0,.49.6h.44c.35-.25.57-.25.57-.66v-.43c0-.35-.21-.35-.24-.38s0,0-.31-.21h-.37l-.32.24a2.15,2.15,0,0,0-.24.42v0"/><path class="cls-2" d="M151.23,8.49v.37a1.14,1.14,0,0,0,.49.56h0s0,0,0,0l0,0h.24a1.23,1.23,0,0,0,.34-.57V8.31a1.42,1.42,0,0,0-.48-.47h-.17s0,0,0,0,0,0,0,0h0c-.25.16-.25.2-.38.55h0"/><path class="cls-2" d="M166.3,4.8l0,0,0,0,.05,0,.06,0,.06,0,.06,0,.06,0a2.16,2.16,0,0,0,.48.24h0v0h0v0h0v0a3.61,3.61,0,0,0-.49-.53l0,0,0,0,0,0-.05,0-.05,0,0,0,0,0-.05,0a1.74,1.74,0,0,0-.54-.26h0a4,4,0,0,0,.5.53l0,0"/><path class="cls-2" d="M156.1,3.51c.32.32.87.58.87.27s-.87-.94-1.16-.87c-.07,0,0,.12,0,.17a2.15,2.15,0,0,0,.33.43"/><path class="cls-2" d="M146.09,31.62a1.11,1.11,0,0,0,.69.69.8.8,0,0,0,.89-.2s0,0,0-.06.18-.24.16-.41a1.64,1.64,0,0,0-.3-.6,1.29,1.29,0,0,0-.74-.29.69.69,0,0,0-.71.87"/><path class="cls-2" d="M162.58,3.51c.5.3.89.41.83.23-.12-.39-1.32-1-1.52-.86s.37.44.69.63"/><path class="cls-2" d="M157.65,40.72l0,.21a1.27,1.27,0,0,0,.34,0l.41-.16,0,0c.08-.08.18-.12.23-.23s0-.07,0-.25a.54.54,0,0,0-.38-.06c-.58.12-.68.48-.68.48"/><path class="cls-2" d="M150,36.88a.87.87,0,0,0,.68.49.84.84,0,0,0,.74-.2s0,0,0,0a1.69,1.69,0,0,0,.13-.31.27.27,0,0,0-.05-.19l0-.05-.14-.14s0-.09-.06-.11a1.26,1.26,0,0,0-.65-.18c-.57.05-.73.46-.62.73"/><path class="cls-2" d="M144.6,22.53s0,.06,0,.09l0,.08c0,.08.09.14.12.22s0,.11.05.15a1.43,1.43,0,0,0,.42.27.8.8,0,0,0,.9-.29,1,1,0,0,0-.67-1.51,2.3,2.3,0,0,0-.62.21c-.08.26-.31.48-.26.78"/><path class="cls-2" d="M157.33,3a2.71,2.71,0,0,0,.82.37h0v0h0V3.26h0c.21-.14-.5-.77-1.22-.91l-.1,0c-.1.07.26.46.5.62"/><path class="cls-2" d="M146.34,15.6c0,.28.55,1.29,1.28.45a.84.84,0,0,0-.43-1.43,1.09,1.09,0,0,0-.85,1"/><path class="cls-2" d="M168.05,5.74a1.88,1.88,0,0,0,.63.4,5.36,5.36,0,0,0-1.23-1.21h0a3.09,3.09,0,0,0,.67.8"/><path class="cls-2" d="M154.65,4.2c.12.16.75.72.8.27s-.68-1-.87-.95-.1.47.07.68"/><path class="cls-2" d="M160.26,2.8c.6.28.61.28.89.28,0-.37-1.07-.84-1.54-.84,0,0,0,.1,0,.13a2.92,2.92,0,0,0,.6.43"/><path class="cls-2" d="M152.25,6.59c.19.42.23.47.61.59.24-.16.24-.16.34-.4,0,0,0-.34,0-.35l-.14-.25-.3-.28c-.06,0-.13,0-.19-.05l-.16.11s0,0,0,0c-.07.17-.2.46-.13.61"/><path class="cls-2" d="M169.2,6.55a5.06,5.06,0,0,0,.45.48,10.85,10.85,0,0,0-1.08-1.21l0,0s.11.14.61.69"/><path class="cls-2" d="M147.43,35.34a1.45,1.45,0,0,0,.3.46,2.33,2.33,0,0,0,.32.11c.48.12.75,0,.83-.22s.14-.95-.9-1a.5.5,0,0,0-.49.21.36.36,0,0,0-.06.4"/><path class="cls-2" d="M166.92,37.65l.26-.23-.22.19,0,0"/><path class="cls-2" d="M158.68,41.22c-.12.17,0,.19.12.18.4,0,.91-.45.76-.55a.36.36,0,0,0-.25,0,1.09,1.09,0,0,0-.63.38"/><path class="cls-2" d="M152.83,4.55l0,0v.08l0,0v0l0,0v.05l.36.3h.24c0-.14.07-.23.1-.37l0,0,0,0,0,0,0,0,0-.05,0,0,0,0,0,0c-.13-.1-.21-.17-.33-.28h-.21c0,.14-.06.23-.11.38v0"/><path class="cls-2" d="M161.32,40.89l0,0,0,0,0,0,0,0,0,0,0,0,0,0a.7.7,0,0,1-.08.1h.17l.51-.25,0,0,0,0,0,0,0,0,0,0,0,0,0,0,.05,0,.07-.11h-.2l-.48.26,0,0"/><path class="cls-2" d="M157.82,2.05l.06,0,.06,0,.06,0,.06,0,.06,0,0,0,.06,0,.52.16h.11a3.79,3.79,0,0,0-.37-.31l0,0,0,0,0,0-.06,0-.06,0-.06,0-.06,0-.07,0-.53-.15h-.1l.35.26,0,0"/><path class="cls-2" d="M163.08,40.19l0,0,0,0,0,0,0,0,0,0,0,0,0,0-.19.13h.15l.51-.27,0,0,0,0,0,0,0,0,0,0,.05,0,0,0,.05,0,.17-.14h-.17l-.54.31,0,0"/><path class="cls-2" d="M144.48,17.64v.47l.46.52h.47l.5-.53v-.55c-.16-.18-.25-.3-.41-.5H145l-.54.55v0"/><path class="cls-2" d="M155.3,2.12c.28.18.7.36.69.22s-.87-.7-1.1-.66c-.08.05.22.32.41.44"/><path class="cls-2" d="M165.17,39a.71.71,0,0,1-.14.1l.14-.1"/><path class="cls-2" d="M153.25,40.51c.17.33.87.38,1,0,.07-.21-.25-.38-.66-.38v-.21h0v.18h0s-.49.28-.41.44"/><path class="cls-2" d="M159.19,41.6c-.08.06-.1.11-.05.12s.87-.27.81-.38-.14,0-.14,0v0h.05a1.39,1.39,0,0,0-.67.29"/><path class="cls-2" d="M143.56,29.64c.15.55,1,1.1,1.45.37.32-.56-.34-1.14-.8-1.18a.68.68,0,0,0-.65.81"/><path class="cls-2" d="M142.69,25c.07.58.83,1.21,1.36.52s-.19-1.32-.62-1.34a.8.8,0,0,0-.74.82"/><path class="cls-2" d="M154.31,2.62c.22.21.65.44.62.21s-.67-.73-.86-.71.06.33.24.5"/><path class="cls-2" d="M154.93,41.18c.1.15.1.15.14.17a.66.66,0,0,0,.34,0s0,0,.06,0a2.17,2.17,0,0,0,.24-.07c.08-.06.11-.16.19-.22s-.05-.17-.14-.22l-.37,0c-.32.13-.32.13-.47.34v0"/><path class="cls-2" d="M151.18,39.61a1.26,1.26,0,0,0,.26.21,2.35,2.35,0,0,0,.41.13h0a1,1,0,0,0,.36-.16s0,0,.09-.29c-.25-.26-.25-.26-.7-.38-.35.11-.35.11-.38.14a.23.23,0,0,0-.06.09c0,.07,0,.15-.06.22l.05,0"/><path class="cls-2" d="M144.72,33.62l.31.4.56.23.43-.2c0-.14.09-.29.14-.43l-.31-.39a.21.21,0,0,0,0-.06l-.07,0-.48-.21-.46.21-.13.43.05,0"/><path class="cls-2" d="M162.69,2.51c.22.11.66.34.59.17s-1.17-.72-1.23-.6,0,.11.64.43"/><path class="cls-2" d="M148.44,9.11a1,1,0,0,0,.06.41l.12.08a.58.58,0,0,0,.59-.11,1,1,0,0,0,.1-.78c0-.11,0-.11-.07-.14a.47.47,0,0,0-.29-.09c-.16,0-.47,0-.51.63"/><path class="cls-2" d="M142.53,20.35a1.3,1.3,0,0,0,.15.53l.63.14.32-.16a1.15,1.15,0,0,0,.05-1.08.81.81,0,0,0-.48-.19.8.8,0,0,0-.49.13,1.09,1.09,0,0,0-.18.63"/><path class="cls-2" d="M160.45,1.89l.05,0,.05,0,.06,0,.06,0,.07,0,.07,0,.07,0,.4.1h0l-.39-.24-.05,0,0,0-.06,0-.05,0-.06,0-.06,0-.07,0-.06,0-.4-.08h0l.38.22,0,0"/><path class="cls-2" d="M146.77,11.06v.38s0,.12,0,.14.15,0,.25.43h.1s0-.07,0-.07,0,0,.06,0l.05,0h.16l.34-.36V11c-.09-.12-.15-.21-.24-.35s0,.07-.05.07,0,.06-.05.06h-.3c-.12,0-.2.15-.34.29s0,0,0,0"/><path class="cls-2" d="M144.87,13.23v.11l0,.06v.28l.28.37h.44l.36-.4v-.5l-.3-.36h-.4l-.37.39v.05"/><path class="cls-2" d="M153,3V3l0,0v0l0,0,0,0,0,0,0,.05.29.2h.17c0-.12,0-.2,0-.31h0l0,0,0,0,0,0,0,0,0,0,0,0,0,0-.27-.19H153c0,.12,0,.2,0,.28V3"/><path class="cls-2" d="M156.35,41.62v.15l.17.08h.27l.26-.15v-.17l-.18-.09h-.3l-.25.17h0"/><path class="cls-2" d="M164.28,3l.06,0,.06,0,.06,0,.06,0,.06,0,.06,0,.06,0,.32.13h0v0h0c-.12-.11-.21-.17-.34-.27l-.06,0-.06,0-.06,0-.06,0-.06,0-.06,0-.06,0-.06,0-.32-.13h0v0h0l.34.26.06,0"/><path class="cls-2" d="M166,3.71l0,0,0,0,.05,0,0,0,.05,0,.06,0,.06.05.26.14h0V4h0c-.14-.13-.23-.2-.39-.33l0,0-.05,0,0,0-.05,0,0,0-.05,0,0,0-.06,0-.25-.13h0v0l.4.32,0,0"/><path class="cls-2" d="M149.87,6.85v.38c.09.12.15.19.22.3h.33l.23-.33V6.74l-.22-.28h-.3c-.09.11-.14.19-.23.31v.06"/><path class="cls-2" d="M155.71,1.44l.06,0,.06,0,0,0,.06,0,.06,0,.05,0,.06,0,.39.13h.11l-.25-.19-.06,0-.06,0-.06,0-.06,0-.06,0-.06,0-.06,0-.06,0-.39-.11h-.09l.26.18.05,0"/><path class="cls-2" d="M148.79,38.32v0l0,0,0,.05,0,0v0l0,0s0,.15,0,.16.27-.06.41.35h.11s0-.12,0-.12,0-.06.06-.06,0,0,.06,0h.17l.23-.24,0,0v-.08l0,0v0l0,0v0l0-.05-.41-.24H149c-.08,0-.16.15-.24.23l0,0"/><path class="cls-2" d="M157.22,42.05c-.05.08,0,.1.17.07s.54-.24.46-.29a.25.25,0,0,0-.17,0,.79.79,0,0,0-.46.23"/><path class="cls-2" d="M150.93,5.21c0,.32.3.6.55.3s.08-.81-.26-.81-.31.28-.29.51"/><path class="cls-2" d="M158.52,1.51c.38.14.68.2.65.13a2.42,2.42,0,0,0-1.27-.46h0c0,.06.41.25.62.33"/><path class="cls-2" d="M160.77,41.33l-.21.08h0l.65-.26.24-.1h0l-.67.29"/><path class="cls-2" d="M159.3,41.81h-.14a.19.19,0,0,1-.09,0h.09l.42-.14h.19a.31.31,0,0,0,.09-.07h-.1l-.45.18h0"/><path class="cls-2" d="M141,27.14s0,0,0,0l0,0s0,0,0,0,0,0,0,0v.11l.56.61h.26l.41-.53v-.17s0,0-.06,0,0,0,0,0v0c0-.13-.2-.28-.46-.56,0,0,0,0,0,0h-.28c-.08.11,0,.25-.44.48h0s0,.09,0,.09"/><path class="cls-2" d="M146.28,36.93v.16a.28.28,0,0,1,0,.09c.22.13.36,0,.62.45h0s0-.07,0-.06,0,0,0,0h.18l.29-.35V37l0,0-.57-.36h-.29l-.29.33v0"/><path class="cls-2" d="M142.23,31.74a1.4,1.4,0,0,0,.68.58.56.56,0,0,0,.48-.46c0-.11,0-.17-.19-.41a1.66,1.66,0,0,0-.53-.35.74.74,0,0,0-.37.24s-.16.25-.07.4"/><path class="cls-2" d="M167.28,4.57l.3.26-.87-.76L166.64,4l.64.55"/><path class="cls-2" d="M142.7,15.74a.78.78,0,0,0,.43.66,1,1,0,0,0,.67-.64.88.88,0,0,0-.43-.68.85.85,0,0,0-.43.25s-.26.26-.24.41"/><path class="cls-2" d="M156.06,1h.3l0,0h.17l.29.07h.07L156.6,1h0l0,0h-.05l0,0-.06,0-.07,0-.08,0-.08,0-.28,0h-.06l.23.1h0"/><path class="cls-2" d="M153.79.9l0,0,0,0,.05,0,0,0L154,1l.05,0,0,0,.07,0,.06,0,.13,0h.08L154.28,1l-.06,0-.05,0,0,0-.06,0-.05,0-.06,0,0,0-.06,0-.25-.06h-.05l.21.11,0,0"/><path class="cls-2" d="M153.34,1.23l0,0,0,0,0,0,0,0,0,0,0,0,.05,0,.22.09h.1a1.36,1.36,0,0,1-.12-.12l0,0h0l0,0h0l0,0h0l0,0h0l0,0h-.05l0,0h0l-.21-.09h-.08l.15.13,0,0"/><path class="cls-2" d="M152.71,1.6l0,0,0,0,0,0,0,0,0,0,0,0,0,0,.17.12h.14a1.19,1.19,0,0,0-.08-.16l0,0,0,0,0,0,0,0,0,0,0,0,0,0,0,0-.17-.1h-.11a.75.75,0,0,1,.06.13l0,0"/><path class="cls-2" d="M140.75,22.49V23l.25.21a.21.21,0,0,0,0,.06h.58c.08-.09.3-.17.3-.26v-.15s-.05,0-.05,0,0,0,0,0,0,0,0,0,0,0,0,0l.05,0s.05,0,.05,0v-.07s-.05,0-.05,0l0,0s0,0,0,0,0,0,0,0l-.25-.3H141c-.08.11-.15.22-.23.32v0"/><path class="cls-2" d="M151.63,3.37v.29c.07.07.12.11.16.16H152l.06-.18V3.26l-.15-.14h-.18c0,.1,0,.16,0,.21v0"/><path class="cls-2" d="M157.64,42.24h-.08v0h.09l.3-.09h.1l0,0h-.1l-.28.1h0"/><path class="cls-2" d="M143.69,35.36v.1l0,0v.09l.45.32.28,0,.23-.28,0,0v-.19l0,0-.45-.32-.29,0-.22.28,0,0"/><path class="cls-2" d="M152.38,41.47a.69.69,0,0,0,.05.1l.3.12h.19l.18-.14,0-.12-.3-.13h-.21l-.18.16h0"/><path class="cls-2" d="M140.77,18.08a.57.57,0,0,0,.35.55,1.22,1.22,0,0,0,.31-.16,1.74,1.74,0,0,0,.23-.31.63.63,0,0,0-.38-.65c-.53.21-.51.56-.51.57"/><path class="cls-2" d="M150.37,40.75a1,1,0,0,0,.49.21s.25,0,.25-.24a.88.88,0,0,0-.51-.25c-.18.05-.26.13-.25.26l0,0"/><path class="cls-2" d="M154,42.06a.38.38,0,0,0,.58-.06.48.48,0,0,0-.33-.13c-.15,0-.23.09-.27.18h0"/><path class="cls-2" d="M155.3,42.33h0a.27.27,0,0,0,.14,0,.41.41,0,0,0,.23,0h0l-.06,0h-.17a.42.42,0,0,0-.17,0h0"/><path class="cls-2" d="M145.63,9.24v.45l.06.13h.4l.12-.12V9.2a.54.54,0,0,1-.07-.13h-.37l-.14.15v0"/><path class="cls-2" d="M154.2.62l.29.07h.06l-.11-.05h-.55l-.13,0h0l.49.14"/><path class="cls-2" d="M151.87,1.9h0V2h0v.1h0v.06a.31.31,0,0,0,.09.07c.05,0,.09,0,.14,0V2.14h0V2.05h0v-.2L152,1.77s0,0,0,0h-.06s0,0,0,.09v0"/><path class="cls-2" d="M160.15,1.1h0l0,0h.11l0,0h.11l0,0h.13l0,0s0,0,.13,0h0l-.13-.07h-.07l0,0h-.14l0,0h-.15l0,0h-.11L160,1h0s.1,0,.15.06h.05"/><path class="cls-2" d="M147.42,7.22v.37s0,.08.06.08h.34a.17.17,0,0,0,.12-.08h0V7.19l-.06-.13s-.06,0-.13,0a.31.31,0,0,0-.31.12v0"/><path class="cls-2" d="M152.31.43h0m0,0h0m0,0h0m-.18,0h.07l0,0h.07l0,0,.2.06h0l-.26-.11h-.16l-.21-.06h0l.2.08h0"/><path class="cls-2" d="M163.69,2.11l0,0,0,0,0,0,0,0,0,0,0,0,0,0,.18.08h0l-.31-.19h-.07l0,0,0,0,0,0,0,0-.05,0-.17-.07h0l.28.16,0,0"/><polyline class="cls-2" points="149.17 5.21 149.17 5.21 149.17 5.21"/><polyline class="cls-2" points="149.17 5.21 149.17 5.21 149.17 5.21"/><polyline class="cls-2" points="149.17 5.21 149.17 5.21 149.17 5.21"/><polyline class="cls-2" points="149.17 5.21 149.17 5.21 149.17 5.21"/><polyline class="cls-2" points="149.17 5.21 149.17 5.21 149.17 5.21"/><polyline class="cls-2" points="149.17 5.21 149.17 5.21 149.17 5.21"/><polyline class="cls-2" points="149.17 5.21 149.17 5.21 149.17 5.21"/><polyline class="cls-2" points="149.17 5.21 149.17 5.21 149.17 5.21"/><polyline class="cls-2" points="149.17 5.21 149.17 5.21 149.17 5.21"/><polyline class="cls-2" points="149.17 5.21 149.17 5.21 149.17 5.21"/><path class="cls-2" d="M148.89,5.46v.17s0,0,0,0,.08.16.13.16h0v0h.14c.05-.09.11-.17.17-.26h0V5.51c-.07-.09-.1-.11-.15-.11h0V5.26s0,0,0,0h-.06l-.18.23v0"/><path class="cls-2" d="M139,24.82v.3l.32.33h.2l.22-.27v-.36l-.3-.32h-.22l-.22.28v0"/><path class="cls-2" d="M143.61,11.41h0v.18l.15.26h.23a3.58,3.58,0,0,1,.26-.29v-.18l0-.05v0a2.23,2.23,0,0,1-.18-.2l0,0h-.22l-.3.36h0"/><polyline class="cls-2" points="143.61 11.41 143.61 11.41 143.61 11.41"/><polyline class="cls-2" points="143.61 11.41 143.61 11.41 143.61 11.41"/><polyline class="cls-2" points="143.61 11.41 143.61 11.41 143.61 11.41"/><polyline class="cls-2" points="143.61 11.4 143.61 11.41 143.61 11.4"/><polyline class="cls-2" points="143.61 11.4 143.61 11.4 143.61 11.4"/><polyline class="cls-2" points="143.61 11.4 143.61 11.4 143.61 11.4"/><polyline class="cls-2" points="143.61 11.4 143.61 11.4 143.61 11.4 143.61 11.4"/><path class="cls-2" d="M139.88,29.47v.29l.37.28h.18l.19-.24v-.34l-.3-.29H140c-.06.1-.11.2-.17.29v0"/><path class="cls-2" d="M156.1.51h.18l.05,0h.11l.29,0h0l-.27-.09h-.35l-.28,0h0l.29.07h0"/><polyline class="cls-2" points="148.33 39.53 148.33 39.53 148.33 39.53"/><path class="cls-2" d="M148.06,39.69v0l0,0v0l0,0v0l.31.15h.23l.1-.16h0v0l0,0v0s0,0,0,0a1.29,1.29,0,0,0-.32-.13v.16h-.12v-.13s0,0,0,0h-.11l-.12.15v0"/><path class="cls-2" d="M162.19,1.61h.08l0,0,0,0,.05,0,0,0,.21.06h0l-.27-.15h0l0,0,0,0h0l0,0,0,0h0l0,0-.23-.06h0l.31.16h0"/><path class="cls-2" d="M150.07,3.81V4l.12.16h.11l.12-.2V3.79s0,0,0,0-.09-.13-.13-.13h0v0h-.07l-.12.18v0"/><path class="cls-2" d="M158.84.92h0m0,0h0m0,0h0m0,0h0m0,0h0m0,0h0m0,0h0m0,0h0m0,0h0M158.26.8h.18l0,0h0a1.4,1.4,0,0,1,.26,0h.08l-.31-.12h-.21l-.05,0h-.06a1.77,1.77,0,0,1-.27,0h0l.32.11h0"/><path class="cls-2" d="M156.06,42.54v0a.78.78,0,0,0,.31-.06,0,0,0,0,1,0,0h-.08a1.16,1.16,0,0,0-.24.07h0"/><path class="cls-2" d="M152,.65l.26.14c0-.07,0-.07-.19-.17a1.17,1.17,0,0,0-.28-.13,1.28,1.28,0,0,0,.21.16"/><path class="cls-2" d="M145.64,38.55l.49.3c.07-.1.13-.17.21-.27l-.51-.31c-.09.09-.15.17-.23.26l0,0"/><path class="cls-2" d="M141.6,13.62l0,.16.06.15h.27l.14-.13V13.5l-.06-.16h-.25a.43.43,0,0,0-.21.3"/><path class="cls-2" d="M164.83,2.68l0,0,0,0h0l-.3-.2.18.12,0,0"/><path class="cls-2" d="M141.29,33.67l.06.14a.91.91,0,0,0,.16.13h.3l.07-.11V33.7l0,0v-.08a.5.5,0,0,0-.32-.18c-.15,0-.16,0-.18,0s0,.1,0,.22"/><path class="cls-2" d="M150.85,2.46a.41.41,0,0,0,.05.2H151s0-.1,0-.13V2.44h0v0h0v0h0v0h0v0h0v0l0-.07h-.05c-.06,0-.08.11-.07.24"/><path class="cls-2" d="M154,.26h.31l.18,0s-.09,0-.28-.07a2.48,2.48,0,0,0-.41,0l.16,0h0"/><path class="cls-2" d="M151.73.94a.45.45,0,0,0,.1.1h0l0-.07v0h0v0h0v0h0v0c-.06,0-.08-.06-.1-.06h0a.56.56,0,0,0,.11.17"/><path class="cls-2" d="M139,20.24a1.14,1.14,0,0,0,.1.37.64.64,0,0,0,.22,0,.72.72,0,0,0,.18-.11.6.6,0,0,0,0-.52s0,0,0,0h-.26a.53.53,0,0,0-.18.31"/><path class="cls-2" d="M152.18.24l.27,0h0l-.11,0H152c-.12,0-.12,0-.15,0l.31.07"/><path class="cls-2" d="M143.17,37v0h0v0h0v.06h0v0h0v0h.31l-.13-.27h-.33v0"/><path class="cls-2" d="M139.7,15.65V16h.3c0-.13.08-.26.11-.4h-.31v0"/><path class="cls-2" d="M137.39,22.57c.09.15.16.28.19.34l.2-.25c-.07-.15-.12-.24-.15-.32l-.25.21v0"/><path class="cls-2" d="M153.42,42.59l.14,0,0,0,.05,0-.15,0-.09.05h0"/><path class="cls-2" d="M150,41.67l.22.08.1-.07-.25-.11-.08.09h0"/><path class="cls-2" d="M152,.09l.26,0-.52,0,.26,0"/><path class="cls-2" d="M151.15,1.13l.06.11,0-.11h0L151.16,1s0,.08,0,.12h0"/><path class="cls-2" d="M139,31.67l.24.27.15-.18-.23-.29-.18.17,0,0"/><path class="cls-2" d="M150.86,0l.13.05-.14,0h0"/><path class="cls-2" d="M137.81,27.27l.25.4c0-.14,0-.27.05-.41v0a0,0,0,0,0,0,0l-.12-.17-.18.2v0"/><path class="cls-2" d="M151.86,42.23l.17.06.13-.07-.27,0h0l-.05,0h0"/><path class="cls-2" d="M158,.31l.25,0L158,.26h-.15l.2.06"/><path class="cls-2" d="M146.73,5.91c0,.08,0,.14.05.17a2.09,2.09,0,0,0,.2-.22.78.78,0,0,0,0-.14l-.23.18h0"/><path class="cls-2" d="M156.08.15h.09l-.29,0,.14,0,.1,0h-.07"/><path class="cls-2" d="M151,.1h0l0,0,0,0h0"/><polyline class="cls-2" points="159.81 0.54 159.81 0.54 159.81 0.54 159.82 0.54 159.82 0.54 159.82 0.54 159.83 0.54 159.83 0.54 159.83 0.54 159.84 0.54 159.84 0.55 159.84 0.55 159.85 0.55 159.85 0.55 159.85 0.55 159.86 0.55 159.86 0.55 159.86 0.55 159.87 0.55 159.87 0.55 159.87 0.55 159.88 0.56 159.88 0.56 159.88 0.56 159.88 0.56 159.89 0.56 159.89 0.56 159.9 0.56 159.9 0.56 159.9 0.56 159.91 0.56 159.91 0.56 159.91 0.56 159.91 0.56 159.91 0.56 159.91 0.56 159.91 0.56 159.91 0.56 159.91 0.56 159.91 0.56 159.9 0.56 159.9 0.56 159.9 0.56 159.89 0.56 159.89 0.56 159.88 0.56 159.88 0.55 159.88 0.55 159.88 0.55 159.87 0.55 159.87 0.55 159.87 0.55 159.86 0.55 159.86 0.55 159.85 0.55 159.85 0.55 159.85 0.55 159.84 0.54 159.84 0.54 159.84 0.54 159.84 0.54 159.83 0.54 159.83 0.54 159.83 0.54 159.82 0.54 159.82 0.54 159.82 0.54 159.81 0.53 159.81 0.53 159.81 0.53 159.8 0.53 159.8 0.53 159.8 0.53 159.8 0.53 159.8 0.53 159.8 0.53 159.8 0.53 159.8 0.53 159.8 0.53 159.8 0.53 159.81 0.54"/></g></g><path class="cls-2" d="M37.93,41.19,23.52,18,13.85,33.5h9l-4.81,7.69H0L23.52,3.48,47,41.19Z"/><path class="cls-2" d="M63,41.19A11.5,11.5,0,0,1,51.51,29.71V3.48h7.68V29.71A3.85,3.85,0,0,0,63,33.55H78.36a3.88,3.88,0,0,0,3.84-3.84V3.48h7.69V29.71A11.54,11.54,0,0,1,78.36,41.19Z"/><path class="cls-2" d="M110.47,41.19A11.51,11.51,0,0,1,98.94,29.65V15A11.49,11.49,0,0,1,110.47,3.48h26.91V10L129.75,22.3h-.06V11.11H110.47A3.88,3.88,0,0,0,106.63,15v14.7a3.85,3.85,0,0,0,3.84,3.85h15.38a3.81,3.81,0,0,0,3.84-3.85h7.69a11.51,11.51,0,0,1-11.53,11.54Z"/></g></g></svg>