<svg xmlns="http://www.w3.org/2000/svg" viewBox="0 0 85 150.3"><defs><style>.cls-1{fill:#fff;}</style></defs><g id="Layer_2" data-name="Layer 2"><g id="Layer_1-2" data-name="Layer 1"><path class="cls-1" d="M20.27,68.94c.09-1.91.2-3.82.26-5.74q.57-16.14,1.11-32.28a1.92,1.92,0,0,1,.09-.59,15.25,15.25,0,0,1,4.08-5.77,7,7,0,0,1,6.46-1.51,9.82,9.82,0,0,1,6.93,5.32A6.57,6.57,0,0,1,39.88,31c.11,5,.14,10,.19,15v1.15l1.51-.68a9.22,9.22,0,0,1,7.58-.49A9.63,9.63,0,0,1,54.42,51c.09.18.17.37.28.61.44-.21.85-.38,1.25-.6a9.75,9.75,0,0,1,7.82-.49c2.94.94,4.56,3.28,5.4,6.13A38,38,0,0,1,70,61c.06.3.1.6.17,1,.24-.17.44-.29.6-.43,2.67-2.34,5.61-2.3,8.66-1a9.21,9.21,0,0,1,4.37,4.15A8.57,8.57,0,0,1,84.88,69c0,12.1.08,24.19.12,36.29a7.46,7.46,0,0,1-.3,2.1A70.68,70.68,0,0,1,80,120.32c-.52,1-1.16,2-1.67,3a4,4,0,0,0-.44,1.57c-.13,3.66-.12,7.32-.34,11a14.44,14.44,0,0,1-5.37,10.48A27,27,0,0,1,68,149.08a8.8,8.8,0,0,1-4.33,1.13c-6.29,0-12.58,0-18.87.09-5,0-8.79-2.18-11.94-5.88a15.44,15.44,0,0,1-3.69-10.14c0-2.41,0-4.81,0-7.22a2,2,0,0,0-.63-1.53c-3.62-3.76-7.27-7.49-10.78-11.34C11.11,106.91,7.11,98.27,4.91,88.74c-1.15-5-2.34-10-3.53-15C1,72.1.4,70.47.12,68.8a6.52,6.52,0,0,1,2.5-6.54,11.61,11.61,0,0,1,8.65-2.6,5,5,0,0,1,2.91,1.57A27.92,27.92,0,0,1,18.76,67c.43.68.87,1.36,1.31,2Zm46.15,4.25c-.21-1.23-.43-2.35-.58-3.48-.53-3.9-1-7.81-1.54-11.71a2.86,2.86,0,0,0-2.38-2.57,11,11,0,0,0-2.51-.18A2.56,2.56,0,0,0,56.63,58c0,1.33,0,2.66-.06,4a23.34,23.34,0,0,1-.28,3.13,2.16,2.16,0,0,1-2.21,1.74,2.27,2.27,0,0,1-2.38-1.75c-.38-1.87-.71-3.76-1.06-5.64-.41-2.29-.8-4.58-1.22-6.86a2.22,2.22,0,0,0-1.64-1.85,5.75,5.75,0,0,0-2-.25c-2.27.23-4.2,1-4.51,3.69-.05.44-.13.86-.19,1.29-.36,2.58-.67,5.17-1.11,7.74a2.43,2.43,0,0,1-2.61,2.1,2.59,2.59,0,0,1-2.25-2.52c-.06-.76-.09-1.53-.1-2.29q-.19-14.7-.38-29.39a3.65,3.65,0,0,0-2.63-3,4.14,4.14,0,0,0-4.69,2.5,9,9,0,0,0-.62,2.89c-.18,3.52-.27,7-.38,10.58-.3,9.05-.57,18.1-.88,27.15-.16,4.85-.39,9.7-.56,14.56a2.34,2.34,0,0,1-1.42,2.26,2.43,2.43,0,0,1-2.85-.43,5.94,5.94,0,0,1-1.42-2.38,41.19,41.19,0,0,1-1.1-5.39,24.9,24.9,0,0,0-5.71-12.93,19,19,0,0,0-2.13-2.08,2.33,2.33,0,0,0-1.16-.53,3.36,3.36,0,0,0-3.8,4.2c.48,1.93,1.11,3.82,1.58,5.75,1.26,5.13,2.4,10.3,3.72,15.41a46.33,46.33,0,0,0,4.77,12.48,77.22,77.22,0,0,0,11,13.87c2.25,2.34,4.58,4.61,6.9,6.89a3.8,3.8,0,0,1,1.15,2.88c0,3,.08,6,.16,9a16.48,16.48,0,0,0,.22,3,9.33,9.33,0,0,0,4.74,6.11c2.13,1.27,4.54,1.37,6.91,1.38,5.76,0,11.51,0,17.27-.05a2.45,2.45,0,0,0,1-.1,14.65,14.65,0,0,0,4.61-2.69,10.51,10.51,0,0,0,3.14-7.88c0-3.76,0-7.52.08-11.28a2.74,2.74,0,0,1,.39-1.27c.74-1.28,1.61-2.49,2.3-3.8a67.44,67.44,0,0,0,4.39-11.58,3.09,3.09,0,0,0,.08-.91c0-6.8,0-13.61,0-20.41,0-5.58-.11-11.15-.13-16.72a3.55,3.55,0,0,0-2.26-3.35c-1.83-.88-3.32-.4-4.06,1.48a37.53,37.53,0,0,0-1.34,4.69,1.5,1.5,0,0,1-1.35,1.34Z"/><path class="cls-1" d="M8.93,33.64c-1.45,0-2.4-.28-2.89-1.33a2.66,2.66,0,0,1,.53-2.92,1.73,1.73,0,0,1,.8-.54c2.75-.65,5.5-1.34,8.27-1.89a2.56,2.56,0,0,1,2.86,3.38,2,2,0,0,1-.9,1.05A38,38,0,0,1,8.93,33.64Z"/><path class="cls-1" d="M41.56,15.93a4.87,4.87,0,0,1,.76-1.43q3.38-3,6.85-5.87c1.07-.88,2-.58,3.16.56a2,2,0,0,1,0,3.06C50.26,14.15,48.14,16,46,17.78a2.63,2.63,0,0,1-3.09.22A2.55,2.55,0,0,1,41.56,15.93Z"/><path class="cls-1" d="M54.18,33.61l-6-1.3c-.54-.12-1.09-.24-1.63-.4a2.56,2.56,0,0,1,1.16-5c2.7.63,5.4,1.3,8.07,2a2.13,2.13,0,0,1,1.68,2.78C57.21,33.13,56.49,33.66,54.18,33.61Z"/><path class="cls-1" d="M19.18,18.49a6.18,6.18,0,0,1-1.5-.67c-2.24-1.78-4.45-3.58-6.62-5.44a2,2,0,0,1-.15-2.67,2.36,2.36,0,0,1,2.66-1.18,3,3,0,0,1,1,.47c2.13,1.71,4.26,3.42,6.34,5.18a2.18,2.18,0,0,1,.8,2.33A2.45,2.45,0,0,1,19.18,18.49Z"/><path class="cls-1" d="M29.07,6.07c.07-1.48.09-3,.23-4.43C29.43.38,30,0,31.25,0c2.58,0,3.1.52,3.11,3.11,0,2.29,0,4.6-.15,6.89-.14,2.12-1.15,2.64-3.26,2.39a2,2,0,0,1-1.65-1.8,3.11,3.11,0,0,1-.11-.68c0-1.28,0-2.56,0-3.84Z"/></g></g></svg>