<?xml version="1.0" standalone="no"?>
<!DOCTYPE svg PUBLIC "-//W3C//DTD SVG 20010904//EN"
 "http://www.w3.org/TR/2001/REC-SVG-20010904/DTD/svg10.dtd">
<svg version="1.0" xmlns="http://www.w3.org/2000/svg"
 width="2800.000000pt" height="2800.000000pt" viewBox="0 0 2800.000000 2800.000000"
 preserveAspectRatio="xMidYMid meet">
<metadata>
Created by potrace 1.14, written by Peter Selinger 2001-2017
</metadata>
<g transform="translate(0.000000,2800.000000) scale(0.100000,-0.100000)"
fill="#000000" stroke="none">
<path d="M24702 17381 c-11 -7 -11 -9 2 -14 10 -4 16 -1 16 8 0 17 -1 17 -18
6z"/>
<path d="M24361 17364 c0 -11 3 -14 6 -6 3 7 2 16 -1 19 -3 4 -6 -2 -5 -13z"/>
<path d="M24388 17343 c6 -2 18 -2 25 0 6 3 1 5 -13 5 -14 0 -19 -2 -12 -5z"/>
<path d="M25010 17338 c0 -5 8 -8 18 -9 9 0 30 -2 45 -3 16 -1 31 2 33 6 3 4
-3 8 -13 9 -10 0 -33 1 -51 2 -17 1 -32 -1 -32 -5z"/>
<path d="M24370 17305 c14 -8 30 -14 35 -14 6 0 -1 6 -15 14 -14 8 -29 14 -35
14 -5 0 1 -6 15 -14z"/>
<path d="M24670 17306 c0 -2 14 -9 31 -15 23 -8 30 -8 27 1 -4 11 -58 24 -58
14z"/>
<path d="M25334 17293 c10 -10 106 -12 100 -2 -3 5 -28 9 -56 9 -28 0 -48 -3
-44 -7z"/>
<path d="M24655 17260 c-3 -5 1 -10 10 -10 9 0 13 5 10 10 -3 6 -8 10 -10 10
-2 0 -7 -4 -10 -10z"/>
<path d="M25690 17238 c0 -4 9 -8 20 -8 11 0 20 4 20 9 0 6 -9 9 -20 8 -11 -1
-20 -5 -20 -9z"/>
<path d="M24595 17211 c17 -10 34 -16 39 -13 10 6 -33 31 -54 32 -8 0 -1 -8
15 -19z"/>
<path d="M25336 17206 c23 -17 103 -49 147 -60 36 -9 35 8 -3 24 -16 7 -30 17
-30 22 0 5 -5 6 -10 3 -6 -4 -16 -2 -23 3 -7 5 -32 13 -57 17 -42 6 -44 6 -24
-9z"/>
<path d="M24924 17195 c11 -8 34 -15 50 -14 29 0 30 1 8 10 -13 5 -35 11 -50
13 -26 5 -26 4 -8 -9z"/>
<path d="M25010 17182 c0 -5 6 -9 13 -9 6 0 28 -3 47 -7 35 -7 35 -7 10 8 -27
17 -70 21 -70 8z"/>
<path d="M24480 17168 c0 -14 39 -43 47 -34 7 7 -6 25 -28 36 -14 8 -19 7 -19
-2z"/>
<path d="M26005 17160 c3 -5 11 -10 16 -10 6 0 7 5 4 10 -3 6 -11 10 -16 10
-6 0 -7 -4 -4 -10z"/>
<path d="M24830 17136 c0 -26 125 -106 164 -106 16 0 17 2 5 17 -32 38 -169
111 -169 89z"/>
<path d="M25696 17123 c10 -7 25 -13 33 -14 9 -1 30 -2 46 -3 17 -1 41 -6 55
-10 23 -6 23 -6 5 5 -11 7 -22 15 -25 19 -3 4 -34 9 -69 12 -54 4 -61 3 -45
-9z"/>
<path d="M24352 17097 c-7 -24 -5 -34 5 -40 19 -12 26 -3 28 32 2 43 -22 48
-33 8z"/>
<path d="M25285 17105 c17 -14 42 -25 56 -25 15 0 45 -7 68 -15 47 -16 51 -12
16 21 -14 13 -34 21 -49 20 -13 -2 -41 3 -63 10 -55 20 -62 17 -28 -11z"/>
<path d="M26210 17080 c8 -5 22 -10 30 -10 13 0 13 1 0 10 -8 5 -22 10 -30 10
-13 0 -13 -1 0 -10z"/>
<path d="M25980 17071 c0 -11 35 -33 80 -51 19 -8 37 -16 40 -20 11 -12 62
-30 72 -24 12 8 -48 49 -118 80 -59 26 -74 29 -74 15z"/>
<path d="M24690 17057 c0 -27 85 -106 123 -112 66 -13 -25 97 -100 120 -16 4
-23 2 -23 -8z"/>
<path d="M25590 17038 c1 -11 81 -78 94 -78 3 0 17 -5 33 -11 15 -6 29 -10 31
-10 1 1 15 -5 30 -13 15 -7 36 -10 46 -6 19 6 18 8 -8 31 -16 13 -34 29 -41
36 -7 7 -15 9 -19 6 -3 -4 -6 -2 -6 4 0 5 -19 16 -42 23 -24 8 -47 16 -53 20
-21 12 -65 11 -65 -2z"/>
<path d="M25149 17030 c-14 -10 -4 -25 56 -82 27 -26 101 -67 132 -74 20 -4
24 27 8 52 -29 45 -170 119 -196 104z"/>
<path d="M24190 17005 c0 -14 5 -25 10 -25 6 0 10 11 10 25 0 14 -4 25 -10 25
-5 0 -10 -11 -10 -25z"/>
<path d="M24530 16942 c0 -21 7 -30 30 -40 49 -22 64 5 25 48 -27 30 -55 26
-55 -8z"/>
<path d="M26313 16945 c2 -5 26 -11 53 -13 26 -2 54 -8 61 -14 8 -6 13 -6 13
-1 0 5 -10 15 -22 21 -31 15 -109 20 -105 7z"/>
<path d="M24976 16943 c-13 -13 76 -133 99 -133 7 0 15 -4 17 -8 5 -14 52 -22
67 -13 34 22 -62 120 -146 149 -17 6 -34 8 -37 5z"/>
<path d="M25950 16938 c0 -16 30 -48 45 -48 5 0 16 -6 24 -14 28 -25 154 -84
168 -79 25 10 -17 58 -86 101 -73 45 -151 66 -151 40z"/>
<path d="M25507 16890 c20 -29 49 -50 102 -75 40 -20 76 -34 78 -31 3 3 -6 21
-20 39 -14 19 -24 37 -22 41 3 3 2 4 -1 2 -3 -2 -37 11 -75 30 -38 19 -74 34
-80 34 -6 0 2 -18 18 -40z"/>
<path d="M24329 16905 c-1 -3 -2 -9 -3 -14 0 -5 -4 -13 -8 -17 -5 -4 -8 -18
-8 -30 0 -26 39 -59 53 -45 15 15 19 82 6 97 -11 13 -38 19 -40 9z"/>
<path d="M8315 16852 l-50 -3 1 -2177 c1 -1197 4 -2190 7 -2207 3 -16 9 -55
12 -85 7 -58 62 -293 75 -319 4 -9 23 -54 41 -101 18 -47 46 -110 62 -140 17
-30 40 -73 52 -96 89 -166 308 -412 480 -540 44 -32 82 -61 85 -64 3 -3 15
-11 28 -17 12 -7 32 -19 45 -25 12 -7 24 -16 27 -19 21 -26 362 -169 440 -184
8 -2 15 -4 15 -5 0 -2 20 -6 65 -15 19 -3 51 -10 70 -15 31 -8 101 -17 200
-26 52 -5 2687 -5 2740 0 91 9 174 20 220 30 55 12 68 16 140 36 94 26 90 25
120 37 14 6 49 19 78 29 28 10 52 22 52 26 0 5 7 8 15 8 9 0 27 7 40 16 14 9
25 12 25 8 0 -5 4 -4 8 2 4 6 27 22 52 34 38 19 201 125 235 152 152 121 343
326 410 439 6 10 25 44 44 76 19 32 38 60 43 61 4 2 8 9 8 15 0 7 10 30 21 52
28 51 89 195 83 195 -3 0 2 14 11 30 9 17 13 30 9 30 -4 0 -2 6 3 13 9 11 15
28 29 90 2 9 6 27 9 40 13 54 35 177 41 227 11 94 10 4390 -1 4391 -13 0
-1083 0 -1161 0 l-60 -1 -1 -2112 c0 -1162 -3 -2135 -7 -2163 -7 -54 -24 -124
-34 -140 -4 -5 -7 -16 -8 -23 -5 -32 -74 -131 -134 -192 -80 -82 -176 -137
-289 -165 -84 -21 -88 -21 -1380 -20 -901 1 -1312 5 -1347 13 -253 55 -442
256 -481 514 -4 24 -7 998 -7 2166 -1 2117 -1 2122 -21 2122 -106 3 -1122 4
-1160 2z"/>
<path d="M17647 16853 c-1 0 -38 -4 -82 -7 -71 -5 -120 -11 -220 -30 -32 -6
-74 -15 -90 -20 -5 -2 -23 -6 -40 -10 -16 -4 -37 -10 -45 -13 -8 -4 -17 -7
-20 -8 -35 -9 -118 -40 -129 -49 -8 -6 -17 -10 -20 -10 -22 5 -194 -85 -316
-164 -55 -37 -102 -69 -105 -73 -3 -4 -23 -22 -45 -39 -129 -102 -276 -268
-379 -427 -37 -57 -135 -241 -141 -263 -1 -3 -7 -18 -14 -35 -7 -16 -14 -34
-15 -40 -1 -5 -4 -14 -7 -20 -8 -13 -59 -177 -64 -207 -30 -149 -33 -171 -42
-268 -9 -103 -9 -2572 1 -2690 4 -52 9 -97 11 -100 2 -4 6 -24 9 -46 3 -21 11
-59 16 -84 6 -25 13 -58 16 -75 3 -16 11 -36 16 -42 6 -7 8 -13 4 -13 -4 0 0
-13 9 -30 8 -16 15 -31 14 -32 -5 -7 47 -140 85 -218 46 -93 150 -258 223
-350 56 -69 265 -272 316 -305 9 -5 50 -34 92 -62 41 -29 80 -53 84 -53 5 0
11 -4 13 -8 13 -33 447 -205 513 -203 2 0 19 -5 37 -10 18 -5 56 -12 83 -15
28 -4 53 -8 56 -10 20 -12 307 -16 1280 -18 597 -2 1091 -6 1098 -10 6 -4 11
-3 11 1 0 9 121 9 145 -1 8 -3 15 -2 15 2 0 4 62 7 139 6 226 -1 362 18 569
80 80 24 251 93 262 105 3 3 10 7 16 8 25 5 230 130 262 161 8 6 23 17 35 23
60 33 266 241 353 359 82 111 141 208 199 335 38 81 90 219 101 267 2 10 7 28
10 41 32 124 51 254 58 395 l4 72 -617 0 -618 0 -1 -42 c-3 -73 -23 -151 -57
-217 -49 -100 -59 -114 -119 -174 -93 -92 -149 -122 -326 -176 -28 -8 -2654
-7 -2685 1 -11 3 -40 11 -65 18 -45 12 -150 62 -177 83 -148 119 -224 239
-253 397 -9 48 -12 384 -11 1295 0 677 2 1244 4 1260 2 17 12 57 21 90 62 213
233 372 461 429 53 14 257 15 1635 13 l1574 -2 0 -892 c0 -491 2 -893 6 -893
3 0 25 33 50 73 24 39 48 74 52 75 4 2 8 7 8 12 0 7 112 193 175 290 26 41
250 401 274 441 9 15 43 71 76 123 33 53 66 109 74 124 8 15 17 29 21 32 3 3
15 21 26 40 10 19 22 37 25 40 3 3 19 27 35 53 16 27 37 61 46 75 9 15 23 38
31 52 27 48 86 143 99 159 7 9 22 32 32 51 11 19 35 60 54 90 41 65 67 106
113 180 l34 55 0 522 1 523 -26 1 c-59 1 -4352 4 -4353 2z"/>
<path d="M3772 16842 c-6 -2 -12 -8 -12 -13 0 -6 -19 -40 -43 -77 -24 -37 -58
-92 -77 -122 -18 -30 -43 -71 -55 -90 -12 -19 -36 -57 -53 -85 -17 -27 -36
-55 -42 -62 -5 -7 -10 -14 -10 -17 0 -7 -192 -313 -210 -333 -6 -7 -8 -13 -4
-13 3 0 -5 -15 -18 -32 -13 -18 -53 -80 -88 -138 -35 -58 -68 -106 -72 -108
-4 -2 -8 -8 -8 -12 0 -5 -33 -61 -72 -125 -97 -152 -130 -206 -180 -290 -23
-38 -44 -72 -48 -75 -4 -3 -15 -21 -25 -40 -10 -19 -21 -37 -24 -40 -3 -3 -31
-45 -61 -95 -30 -49 -58 -91 -62 -93 -4 -2 -8 -8 -8 -13 0 -5 -12 -28 -27 -52
-15 -23 -34 -53 -43 -67 -8 -14 -25 -41 -37 -60 -12 -19 -130 -208 -262 -420
-132 -212 -243 -389 -248 -395 -5 -5 -12 -17 -16 -25 -16 -31 -177 -292 -186
-300 -8 -7 -30 -41 -38 -60 -3 -8 -23 -40 -42 -70 -20 -31 -41 -64 -48 -75 -6
-11 -60 -98 -120 -194 -160 -257 -171 -275 -180 -286 -4 -6 -17 -26 -27 -45
-10 -19 -36 -61 -57 -92 -22 -32 -39 -60 -39 -62 0 -4 -64 -103 -78 -121 -4
-5 -11 -17 -14 -25 -4 -8 -38 -64 -77 -125 -39 -60 -80 -128 -92 -149 -11 -21
-25 -44 -30 -50 -10 -12 -279 -442 -395 -631 -37 -60 -72 -113 -78 -117 -6 -4
-8 -8 -3 -8 4 0 -9 -22 -28 -50 -19 -27 -35 -54 -35 -60 0 -5 -4 -10 -10 -10
-5 0 -10 -4 -10 -9 0 -12 -63 -115 -72 -119 -5 -2 -8 -8 -8 -13 0 -6 -17 -36
-38 -67 -21 -31 -70 -108 -108 -170 -38 -62 -86 -140 -106 -173 l-37 -59 47 0
c26 0 676 -2 1444 -3 l1398 -2 17 33 c10 17 21 32 25 32 5 0 8 4 8 10 0 5 17
36 37 67 47 72 60 94 69 113 4 8 10 17 14 20 5 4 31 45 65 102 6 9 25 40 43
70 18 29 38 62 45 73 6 11 21 34 33 50 11 17 24 37 27 45 4 8 25 42 47 75 21
33 47 75 56 93 9 17 20 32 25 32 5 0 9 4 9 9 0 9 168 283 224 366 15 21 24 40
22 43 -3 2 -327 4 -720 4 l-716 0 12 22 c6 11 14 23 17 26 6 4 70 107 106 168
39 66 151 242 165 259 5 7 10 19 10 27 0 8 3 16 8 18 4 2 32 41 61 88 29 47
63 101 76 120 12 19 48 78 81 130 32 52 61 97 65 100 4 3 9 12 11 20 2 8 7 19
11 25 15 19 78 119 105 165 15 25 30 50 34 55 13 16 268 427 268 432 0 2 5 9
10 16 6 7 51 77 100 157 49 80 93 150 97 155 5 6 33 51 62 100 30 50 57 92 60
95 8 7 29 41 44 70 7 14 37 63 68 110 30 47 58 94 62 104 7 17 10 18 21 5 20
-20 316 -498 316 -508 0 -5 4 -11 8 -13 5 -1 30 -39 57 -83 26 -44 60 -98 74
-120 14 -22 31 -49 38 -60 7 -11 43 -69 80 -130 37 -60 70 -114 72 -119 2 -6
8 -15 13 -21 20 -23 88 -136 88 -145 0 -6 5 -10 10 -10 6 0 10 -7 10 -15 0 -8
5 -15 10 -15 6 0 10 -4 10 -9 0 -5 73 -126 161 -268 89 -142 169 -270 178
-284 9 -15 32 -52 51 -84 19 -31 40 -64 45 -74 30 -49 180 -290 196 -313 11
-15 19 -32 19 -38 0 -5 3 -10 8 -10 4 0 16 -17 27 -37 11 -21 40 -70 65 -108
65 -101 68 -106 90 -145 11 -19 34 -55 50 -80 28 -44 85 -135 105 -168 6 -10
64 -104 130 -210 66 -105 124 -201 130 -212 5 -11 13 -20 17 -20 5 0 8 -5 8
-11 0 -6 14 -30 30 -54 17 -24 30 -46 30 -49 0 -2 18 -32 40 -65 22 -33 40
-62 40 -65 0 -2 24 -39 53 -81 l52 -78 719 1 c395 1 720 2 721 4 3 3 -25 51
-170 283 -55 88 -102 162 -106 165 -3 3 -9 15 -13 28 -4 12 -11 22 -16 22 -4
0 -11 8 -14 18 -7 20 5 0 -169 277 -76 121 -144 229 -150 240 -7 11 -24 39
-39 62 -16 23 -28 46 -28 52 0 6 -4 11 -9 11 -5 0 -14 14 -21 30 -7 17 -16 30
-21 30 -5 0 -8 3 -7 8 1 4 -5 18 -14 32 -89 139 -128 202 -128 210 0 6 -4 10
-9 10 -5 0 -11 8 -14 18 -4 9 -25 47 -49 84 -24 38 -83 132 -132 210 -48 79
-99 159 -111 178 -59 90 -99 155 -100 160 -1 5 -17 31 -84 135 -14 22 -30 48
-36 57 -12 19 -75 123 -90 147 -5 9 -40 65 -77 123 -38 59 -68 112 -68 118 0
5 -4 10 -8 10 -5 0 -14 10 -21 23 -6 12 -20 36 -31 52 -11 17 -23 37 -27 45
-4 8 -42 70 -85 137 -43 68 -78 128 -78 133 0 6 -4 10 -9 10 -5 0 -12 8 -15
18 -13 34 -37 72 -47 72 -5 0 -9 5 -9 10 0 6 -46 84 -102 173 -55 89 -106 171
-112 182 -6 11 -28 46 -49 78 -20 31 -37 60 -37 63 0 2 -5 10 -10 17 -14 15
-79 116 -80 122 0 5 -62 106 -142 230 -99 154 -328 529 -328 536 0 5 -4 9 -10
9 -5 0 -10 4 -10 9 0 5 -25 47 -55 93 -30 45 -55 89 -55 96 0 6 -4 12 -8 12
-5 0 -14 10 -20 23 -6 12 -22 39 -34 59 -24 38 -229 366 -260 416 -10 15 -21
34 -25 42 -3 8 -9 17 -13 20 -3 3 -46 70 -94 150 -49 80 -94 148 -100 152 -6
4 -8 8 -4 8 4 0 -14 33 -40 73 -26 40 -52 82 -59 92 -36 57 -79 129 -88 144
-6 10 -16 16 -23 13z"/>
<path d="M24771 16832 c-13 -24 11 -87 43 -117 34 -32 77 -54 94 -48 35 13 -1
105 -56 144 -53 37 -70 41 -81 21z"/>
<path d="M26290 16830 c6 -11 26 -32 46 -47 19 -16 45 -36 57 -47 30 -25 111
-63 125 -58 21 7 -8 46 -64 87 -102 75 -188 109 -164 65z"/>
<path d="M26587 16815 c10 -7 21 -11 25 -9 16 10 7 19 -18 20 -23 2 -24 1 -7
-11z"/>
<path d="M24064 16793 c-5 -19 -2 -30 11 -39 16 -12 20 -11 32 6 15 21 14 41
-2 52 -19 15 -35 8 -41 -19z"/>
<path d="M25836 16812 c-7 -12 40 -77 83 -115 36 -32 126 -77 154 -77 30 0 30
27 1 68 -52 73 -216 158 -238 124z"/>
<path d="M25286 16802 c-8 -14 33 -84 67 -114 37 -33 105 -68 134 -68 41 0 37
50 -9 101 -55 63 -173 112 -192 81z"/>
<path d="M26670 16780 c0 -5 5 -10 10 -10 6 0 10 5 10 10 0 6 -4 10 -10 10 -5
0 -10 -4 -10 -10z"/>
<path d="M24526 16706 c-25 -40 -20 -60 23 -84 l39 -22 12 29 c16 40 10 59
-26 82 l-31 19 -17 -24z"/>
<path d="M26614 16707 c23 -34 66 -69 79 -64 7 2 23 -4 36 -14 44 -35 54 -20
15 21 -21 22 -44 40 -51 40 -8 0 -32 9 -54 20 l-40 21 15 -24z"/>
<path d="M26210 16677 c0 -41 41 -82 113 -116 100 -46 132 -31 85 39 -26 37
-29 39 -113 71 -79 31 -85 31 -85 6z"/>
<path d="M25065 16670 c-8 -24 44 -140 62 -140 7 0 13 -3 13 -8 0 -13 43 -35
77 -39 28 -4 34 -1 42 19 16 44 -27 114 -97 159 -54 34 -88 37 -97 9z"/>
<path d="M24212 16642 c-38 -38 -11 -132 39 -132 45 0 69 81 37 122 -22 27
-55 31 -76 10z"/>
<path d="M25680 16636 c0 -8 15 -35 34 -59 22 -29 31 -48 25 -54 -16 -16 65
-71 117 -80 77 -13 -11 124 -119 185 -45 26 -57 27 -57 8z"/>
<path d="M26870 16581 c11 -17 34 -42 50 -58 17 -15 30 -33 30 -39 0 -6 18
-20 40 -33 22 -12 40 -18 40 -13 0 9 -117 130 -154 160 -26 20 -28 14 -6 -17z"/>
<path d="M24775 16560 c-4 -7 -18 -91 -19 -111 -1 -22 35 -69 51 -69 7 0 13
-4 13 -9 0 -5 14 -6 32 -2 36 8 45 27 47 103 1 43 -2 48 -36 69 -34 21 -81 31
-88 19z"/>
<path d="M23884 16539 c-20 -22 -11 -51 18 -57 20 -4 39 39 26 61 -12 22 -21
21 -44 -4z"/>
<path d="M26536 16524 c33 -53 131 -134 196 -161 26 -12 26 -12 16 17 -8 26
-36 52 -151 146 -10 8 -32 17 -49 21 l-30 6 18 -29z"/>
<path d="M25383 16509 c-8 -38 -8 -40 15 -89 19 -43 48 -71 106 -105 61 -36
97 -37 113 -4 35 73 -74 203 -190 224 -36 7 -37 6 -44 -26z"/>
<path d="M26023 16524 c-14 -37 62 -162 123 -202 17 -11 51 -27 74 -35 36 -12
46 -12 57 -2 48 49 -46 178 -172 236 -49 23 -74 24 -82 3z"/>
<path d="M23536 16471 c-10 -11 -13 -22 -8 -25 5 -3 17 3 26 13 10 11 13 22 8
25 -5 3 -17 -3 -26 -13z"/>
<path d="M24425 16431 c-30 -69 2 -151 66 -165 55 -12 90 72 57 135 -20 36
-63 69 -91 69 -7 0 -22 -18 -32 -39z"/>
<path d="M26850 16431 c0 -17 83 -146 109 -171 26 -24 83 -60 95 -60 14 0 3
25 -34 80 -22 33 -46 63 -53 67 -8 4 -22 21 -32 36 -23 36 -85 71 -85 48z"/>
<path d="M26372 16381 c-47 -30 85 -209 188 -256 35 -16 44 -16 65 -5 32 17
32 49 1 98 -76 117 -201 197 -254 163z"/>
<path d="M24054 16353 c-13 -14 -25 -34 -25 -44 -1 -11 -2 -25 -3 -31 -4 -23
28 -69 52 -75 12 -3 29 1 38 8 19 16 40 59 38 79 -1 8 -2 22 -3 30 -5 52 -62
71 -97 33z"/>
<path d="M25060 16355 c-19 -36 1 -107 46 -162 39 -48 70 -60 141 -55 23 2 39
33 34 67 -5 41 -53 121 -88 148 -50 37 -114 38 -133 2z"/>
<path d="M25763 16370 c-24 -10 -27 -17 -24 -63 3 -59 80 -156 152 -193 54
-27 78 -27 109 1 54 49 -28 185 -145 241 -55 26 -60 27 -92 14z"/>
<path d="M27140 16345 c13 -14 26 -25 28 -25 3 0 -5 11 -18 25 -13 14 -26 25
-28 25 -3 0 5 -11 18 -25z"/>
<path d="M27115 16255 c42 -74 98 -146 139 -183 46 -40 57 -41 43 -2 -6 17
-15 30 -19 30 -4 0 -8 5 -8 11 0 24 -82 117 -145 164 l-39 30 29 -50z"/>
<path d="M23661 16275 c-20 -10 -25 -21 -26 -53 l-1 -41 40 2 c36 2 41 5 43
27 3 36 -6 72 -16 65 -5 -3 -11 -1 -13 4 -2 5 -14 4 -27 -4z"/>
<path d="M24723 16272 c-13 -2 -23 -10 -23 -18 0 -8 -4 -14 -9 -14 -5 0 -12
-19 -15 -43 -12 -80 47 -172 117 -184 52 -8 85 30 89 102 5 88 -78 170 -159
157z"/>
<path d="M26729 16245 c-5 -21 -3 -35 10 -71 19 -49 41 -81 99 -145 50 -54 96
-80 125 -70 23 9 43 51 25 51 -6 0 -9 3 -5 6 18 18 -111 194 -142 194 -6 0
-11 4 -11 8 0 19 -97 45 -101 27z"/>
<path d="M25444 16204 c-44 -23 -51 -37 -44 -93 3 -28 6 -65 5 -83 -3 -68 113
-134 177 -102 35 18 49 44 42 80 -9 46 -13 77 -13 106 -1 30 -42 67 -102 92
-31 13 -39 13 -65 0z"/>
<path d="M26119 16204 c-57 -69 81 -266 207 -294 65 -15 98 40 68 115 -47 120
-227 237 -275 179z"/>
<path d="M24304 16148 c-28 -13 -55 -72 -58 -127 -3 -38 2 -48 34 -82 49 -51
80 -52 111 -3 14 23 23 56 25 89 2 46 -1 58 -24 83 -37 41 -62 52 -88 40z"/>
<path d="M27350 16074 c17 -31 29 -62 26 -70 -3 -7 8 -22 24 -34 17 -12 30
-27 30 -34 0 -7 10 -21 21 -32 22 -19 22 -19 14 6 -4 14 -15 36 -24 50 -9 14
-23 36 -29 50 -35 71 -70 120 -84 120 -6 0 4 -25 22 -56z"/>
<path d="M27037 16104 c-3 -3 -3 -20 0 -37 12 -80 107 -224 163 -249 17 -7 30
-16 30 -19 0 -14 30 -4 36 13 8 27 -29 138 -47 138 -4 0 -10 9 -14 20 -7 22
-115 133 -123 126 -2 -3 -12 -1 -22 4 -10 5 -20 7 -23 4z"/>
<path d="M25023 16060 c-32 -26 -52 -95 -41 -140 21 -80 118 -158 182 -146 61
12 91 111 54 184 -20 42 -60 83 -93 96 -52 21 -82 23 -102 6z"/>
<path d="M23826 16031 c-10 -11 -20 -37 -23 -58 -3 -21 -7 -40 -9 -42 -8 -8
27 -59 43 -63 35 -9 83 12 94 39 18 48 12 119 -12 134 -25 15 -75 10 -93 -10z"/>
<path d="M25819 16028 c-104 -35 -41 -244 94 -315 91 -47 160 -12 159 79 -2
123 -157 268 -253 236z"/>
<path d="M26505 16026 c-32 -23 -17 -126 26 -188 53 -76 124 -134 169 -139 64
-7 87 22 75 96 -9 61 -34 109 -85 161 -68 71 -145 100 -185 70z"/>
<path d="M23358 15942 c-14 -16 -11 -94 3 -103 8 -5 22 -5 61 0 13 2 24 57 17
87 -7 25 -14 30 -39 30 -17 0 -36 -6 -42 -14z"/>
<path d="M24573 15905 c-64 -51 -62 -158 3 -222 19 -18 40 -33 47 -34 6 0 21
-2 31 -4 40 -7 80 26 92 76 20 84 -9 154 -80 188 -53 26 -54 26 -93 -4z"/>
<path d="M27325 15901 c4 -30 23 -74 63 -143 12 -21 19 -38 16 -38 -7 0 27
-48 59 -82 85 -91 64 47 -28 188 -34 53 -87 104 -107 104 -4 0 -5 -13 -3 -29z"/>
<path d="M26875 15864 c-33 -35 -27 -87 20 -180 45 -89 122 -158 173 -157 34
1 41 5 49 31 34 97 -67 268 -189 319 -27 11 -32 10 -53 -13z"/>
<path d="M25400 15866 c-106 -34 -83 -228 37 -308 137 -92 242 37 161 198 -23
47 -57 76 -121 103 -35 15 -49 16 -77 7z"/>
<path d="M26163 15833 c-4 -10 -13 -24 -20 -31 -20 -21 -6 -121 27 -182 33
-61 123 -128 182 -135 50 -6 70 5 90 55 28 68 -24 201 -99 253 -81 56 -167 75
-180 40z"/>
<path d="M24072 15789 c-67 -66 -50 -189 30 -222 39 -16 56 -13 90 16 90 78
57 223 -52 232 -31 2 -44 -3 -68 -26z"/>
<path d="M27544 15703 c26 -73 107 -230 128 -249 21 -19 21 -19 14 1 -5 11
-12 35 -18 52 -14 51 -40 104 -83 171 -44 70 -60 80 -41 25z"/>
<path d="M27190 15699 c-17 -32 -5 -98 32 -180 38 -81 79 -134 126 -162 30
-17 31 -17 50 4 29 30 20 87 -28 184 -39 80 -88 143 -128 164 -29 16 -40 14
-52 -10z"/>
<path d="M23638 15700 c-2 -8 -16 -15 -29 -15 -13 -1 -36 -9 -51 -19 -24 -16
-28 -25 -28 -67 0 -26 5 -51 11 -54 5 -4 14 -18 19 -31 12 -31 49 -29 91 7 25
21 31 35 34 73 1 32 -3 54 -15 69 -9 12 -19 29 -22 37 -4 13 -5 13 -10 0z"/>
<path d="M24894 15700 c-30 -12 -49 -66 -47 -130 1 -69 4 -77 30 -121 40 -65
111 -90 178 -63 84 33 98 148 31 246 -38 56 -136 91 -192 68z"/>
<path d="M25762 15640 c-49 -40 -62 -135 -29 -212 20 -44 82 -115 120 -134 49
-26 110 -25 145 2 32 25 56 93 48 134 -6 32 -27 92 -37 105 -71 91 -107 116
-178 120 -33 3 -52 -2 -69 -15z"/>
<path d="M26512 15618 c-14 -51 -7 -140 12 -154 12 -8 16 -23 13 -48 -4 -31 1
-42 29 -70 39 -39 108 -74 146 -74 45 1 52 48 29 202 -12 81 -38 115 -116 152
-72 34 -102 32 -113 -8z"/>
<path d="M23046 15605 c-17 -17 -23 -31 -19 -47 14 -55 50 -64 82 -19 26 36
26 46 1 71 -26 26 -34 25 -64 -5z"/>
<path d="M24400 15570 c-13 -3 -38 -24 -54 -47 -24 -35 -29 -53 -31 -107 -2
-64 -1 -66 40 -106 38 -37 47 -41 94 -42 85 0 121 47 121 159 0 70 -6 82 -65
131 -18 15 -69 21 -105 12z"/>
<path d="M27466 15474 c2 -60 35 -170 55 -184 3 -3 10 -16 14 -29 10 -34 76
-102 94 -99 78 15 -63 378 -147 378 -17 0 -19 -7 -16 -66z"/>
<path d="M26952 15472 c-46 -7 -69 -96 -46 -182 30 -117 132 -236 191 -225 10
2 24 4 31 4 7 1 24 12 37 26 20 20 25 34 25 77 -1 100 -75 253 -141 289 -23
12 -64 17 -97 11z"/>
<path d="M25257 15452 c-33 -36 -49 -95 -48 -172 1 -81 6 -89 88 -148 32 -22
106 -34 145 -24 36 9 69 85 72 164 3 80 -3 101 -43 136 -67 60 -179 83 -214
44z"/>
<path d="M23843 15430 c-33 -19 -101 -110 -84 -110 6 0 7 -8 2 -22 -6 -16 -2
-32 13 -58 30 -51 56 -69 99 -70 66 0 146 71 123 109 -4 5 -2 12 3 15 5 3 6
21 1 40 -4 19 -6 37 -3 40 6 6 -70 57 -89 60 -7 1 -18 5 -24 8 -6 4 -24 -1
-41 -12z"/>
<path d="M26144 15422 c-20 -14 -34 -67 -39 -148 -4 -65 -2 -84 10 -94 8 -7
15 -20 15 -29 0 -9 12 -25 27 -36 14 -11 31 -24 37 -30 52 -46 77 -56 139 -53
57 3 63 5 77 33 10 20 15 56 14 105 -2 128 -15 154 -105 214 -58 39 -76 46
-116 46 -27 0 -53 -4 -59 -8z"/>
<path d="M23305 15362 c-11 -2 -33 -17 -48 -32 -61 -62 -28 -170 52 -172 76
-2 120 116 65 176 -14 14 -29 24 -34 21 -4 -3 -10 -2 -12 3 -1 4 -12 6 -23 4z"/>
<path d="M27669 15327 c-5 -50 34 -195 66 -243 11 -18 28 -46 37 -63 61 -112
22 109 -43 244 -28 60 -58 89 -60 62z"/>
<path d="M24727 15293 c-32 -16 -66 -74 -71 -120 -9 -86 56 -192 128 -209 107
-26 178 23 181 125 3 78 -22 133 -83 186 -30 25 -122 36 -155 18z"/>
<path d="M27279 15288 c-33 -11 -52 -54 -52 -116 0 -45 15 -116 33 -151 4 -9
13 -28 20 -42 23 -50 83 -109 118 -114 61 -10 102 63 88 158 -4 23 -7 45 -7
49 0 14 -34 82 -61 123 -47 73 -99 107 -139 93z"/>
<path d="M22712 15258 c-16 -16 -15 -63 1 -76 20 -17 62 8 63 38 1 14 -1 31
-3 37 -6 16 -45 17 -61 1z"/>
<path d="M26531 15229 c-38 -40 -50 -74 -46 -141 3 -61 31 -158 46 -158 5 0 9
-6 9 -14 0 -15 65 -77 99 -95 59 -32 139 -4 172 61 17 33 20 54 16 103 -13
188 -201 343 -296 244z"/>
<path d="M25647 15231 c-44 -53 -56 -88 -62 -183 -2 -32 -6 -62 -9 -66 -8 -13
52 -80 95 -107 47 -30 139 -47 171 -31 41 21 71 98 74 192 4 99 -3 114 -69
161 -66 47 -174 65 -200 34z"/>
<path d="M24118 15130 c-39 -42 -45 -53 -47 -99 -7 -156 166 -229 247 -105 69
106 12 240 -105 248 -49 3 -52 2 -95 -44z"/>
<path d="M27543 15073 c-18 -52 -2 -220 27 -288 20 -47 85 -115 109 -115 45 0
57 113 26 235 -14 55 -52 130 -83 163 -37 40 -67 42 -79 5z"/>
<path d="M27835 15073 c2 -16 12 -55 21 -88 9 -33 17 -67 19 -75 2 -8 4 -16 5
-17 2 -2 3 -6 4 -10 1 -5 6 -23 10 -40 15 -63 22 -41 9 25 -24 119 -87 306
-68 205z"/>
<path d="M23570 15057 c-50 -27 -70 -42 -70 -54 0 -7 -4 -13 -8 -13 -12 0 -32
-63 -28 -87 19 -94 106 -144 170 -96 71 53 91 136 49 201 -15 22 -34 43 -42
45 -9 3 -23 7 -31 11 -8 3 -26 0 -40 -7z"/>
<path d="M25099 15029 c-31 -33 -59 -89 -59 -116 0 -11 -3 -23 -7 -27 -4 -3
-6 -29 -4 -57 3 -56 14 -72 91 -128 37 -27 51 -31 105 -31 60 0 64 1 90 36 35
45 55 112 55 179 0 41 -6 59 -27 88 -16 20 -32 36 -36 37 -5 0 -22 10 -39 21
-20 14 -47 22 -86 24 -51 2 -59 0 -83 -26z"/>
<path d="M26073 15038 c-13 -6 -23 -15 -23 -20 0 -5 -4 -7 -9 -3 -5 3 -24 -24
-42 -60 -28 -56 -31 -72 -26 -119 14 -141 127 -256 239 -243 95 12 143 76 142
192 0 83 -18 129 -73 184 -61 61 -159 93 -208 69z"/>
<path d="M26905 14998 c-36 -43 -48 -92 -42 -172 3 -39 11 -72 16 -74 6 -2 9
-8 5 -13 -3 -5 -1 -9 3 -9 5 0 19 -17 32 -38 32 -53 103 -94 168 -100 l53 -4
16 38 c26 61 29 153 9 218 -10 31 -22 56 -26 56 -5 0 -9 7 -9 15 0 22 -64 83
-104 100 -52 22 -94 16 -121 -17z"/>
<path d="M22914 14945 c-39 -41 -43 -48 -34 -72 29 -80 60 -102 103 -74 75 49
87 97 41 159 -34 44 -59 41 -110 -13z"/>
<path d="M24519 14897 c-55 -28 -82 -73 -84 -142 -1 -28 -5 -57 -9 -63 -7 -12
14 -66 36 -93 57 -68 178 -70 236 -4 45 52 59 106 53 211 -1 23 -47 76 -83 95
-41 22 -101 20 -149 -4z"/>
<path d="M22403 14898 c-10 -17 -10 -42 1 -49 13 -10 46 2 46 16 0 8 3 20 6
29 5 12 0 16 -19 16 -14 0 -29 -6 -34 -12z"/>
<path d="M27768 14873 c0 -16 -2 -32 -3 -38 -2 -5 -4 -14 -5 -20 -1 -5 -2 -13
-1 -17 0 -4 3 -36 6 -70 6 -62 26 -146 42 -171 4 -6 8 -15 8 -18 0 -10 39 -59
46 -59 27 0 31 130 8 235 -7 33 -13 62 -13 65 -2 14 -40 84 -54 101 -23 26
-32 24 -34 -8z"/>
<path d="M27289 14852 c-69 -9 -109 -124 -85 -247 19 -101 58 -174 113 -211
127 -85 208 144 119 336 -41 88 -91 130 -147 122z"/>
<path d="M26502 14808 c-60 -24 -95 -62 -111 -123 -11 -44 -8 -126 7 -166 11
-27 12 -33 12 -54 0 -8 17 -34 38 -57 26 -29 31 -39 17 -34 -11 4 -36 10 -57
13 -73 11 -150 -60 -182 -166 -41 -139 5 -270 119 -337 78 -45 102 -41 195 36
l45 38 1 -103 c0 -57 5 -109 11 -117 10 -12 24 -59 23 -75 0 -4 -16 -6 -34 -5
-54 5 -104 -27 -159 -100 -56 -76 -76 -196 -44 -270 8 -20 13 -39 9 -42 -3 -3
0 -6 6 -6 6 0 14 -9 17 -20 4 -12 16 -30 28 -41 73 -69 141 -60 242 33 73 67
73 66 40 -45 -19 -65 -16 -117 8 -162 35 -63 65 -85 119 -87 39 -1 126 36 135
57 3 8 11 15 19 15 10 0 10 -7 -3 -37 -21 -53 -22 -149 0 -194 15 -33 31 -47
62 -54 6 -2 15 -4 20 -6 23 -7 84 32 121 77 61 74 83 133 89 235 7 110 -61
183 -134 144 -34 -18 -101 -82 -101 -97 0 -6 -3 -9 -6 -5 -3 3 0 23 7 44 20
62 14 147 -17 256 -5 14 0 17 23 15 36 -2 107 38 148 83 77 87 89 188 38 315
-14 36 -37 79 -50 94 -21 25 -15 34 12 19 8 -5 56 -5 75 0 14 3 79 102 87 132
5 19 10 68 12 110 3 83 -8 120 -60 201 -27 41 -36 48 -81 58 -47 10 -53 9 -76
-12 -13 -13 -31 -36 -40 -53 l-16 -30 -7 72 c-8 82 -36 150 -84 199 -37 38
-91 63 -128 59 -32 -4 -97 -54 -117 -89 -19 -36 -25 -32 -26 17 -1 67 -42 182
-70 198 -13 7 -24 16 -24 21 0 4 -6 8 -12 8 -7 1 -29 14 -48 30 -40 35 -31 34
-98 8z m253 -436 c0 -81 3 -92 37 -159 l37 -73 -34 -1 c-19 -1 -38 -3 -42 -4
-5 -1 -21 -5 -38 -9 -39 -10 -58 -25 -78 -61 l-16 -30 -2 65 c-3 112 -5 119
-58 179 -33 38 -24 56 32 58 58 3 109 34 135 81 13 23 24 42 25 42 1 0 2 -39
2 -88z m336 -189 c-11 -44 -6 -115 12 -155 10 -21 17 -41 17 -46 0 -5 11 -22
25 -38 31 -36 32 -54 1 -54 -55 0 -88 -15 -132 -58 -38 -37 -45 -41 -39 -21
22 69 -7 177 -71 267 -15 20 -15 22 0 23 9 1 19 2 24 3 4 1 26 6 50 10 47 9
85 38 96 74 10 32 26 27 17 -5z m-156 -567 c-5 -64 -3 -82 20 -137 31 -76 31
-81 3 -71 -50 18 -77 5 -156 -70 l-45 -43 7 45 c14 85 12 115 -10 178 l-22 62
22 1 c36 1 66 8 94 23 32 16 83 72 75 80 -4 3 -1 6 6 6 8 0 10 -20 6 -74z"/>
<path d="M25500 14809 c0 -5 -6 -9 -13 -9 -14 0 -31 -18 -62 -65 -15 -24 -19
-49 -20 -122 -2 -97 1 -103 62 -166 51 -53 159 -74 219 -42 16 8 25 15 21 15
-4 0 2 10 14 23 33 35 42 66 43 156 2 80 0 87 -29 125 -43 57 -105 89 -177 92
-32 1 -58 -2 -58 -7z"/>
<path d="M23913 14770 c-45 -10 -77 -33 -101 -72 -32 -53 -36 -104 -11 -155
45 -93 155 -122 226 -60 103 90 65 252 -67 289 -8 3 -30 1 -47 -2z"/>
<path d="M23208 14638 c-36 -35 -42 -47 -43 -84 -1 -36 4 -51 34 -86 56 -67
107 -59 181 29 25 29 14 99 -21 143 -26 32 -37 38 -70 38 -32 1 -46 -6 -81
-40z"/>
<path d="M27912 14567 c2 -64 7 -117 12 -117 5 0 7 -2 4 -5 -6 -6 3 -52 23
-129 6 -21 13 -35 16 -32 3 3 11 1 18 -4 8 -7 12 -5 12 5 0 7 -5 13 -10 12
-11 -2 -15 63 -4 70 4 2 4 10 0 16 -9 14 -9 13 -17 92 -9 89 -13 110 -26 152
-24 74 -31 59 -28 -60z"/>
<path d="M24848 14611 c-45 -49 -66 -115 -58 -185 7 -65 29 -99 90 -140 34
-23 55 -30 113 -33 l70 -4 38 41 c47 50 63 97 56 164 -6 67 -27 106 -74 143
-58 46 -73 51 -141 50 -58 -1 -65 -3 -94 -36z"/>
<path d="M27564 14611 c-26 -13 -34 -26 -45 -71 -20 -84 -16 -131 19 -253 24
-85 53 -118 99 -115 41 3 56 19 72 78 15 59 17 116 6 165 -4 22 -9 47 -10 55
-1 8 -5 24 -9 35 -4 11 -13 34 -19 50 -13 39 -46 75 -66 74 -9 -1 -30 -9 -47
-18z"/>
<path d="M25960 14601 c-41 -10 -83 -37 -115 -72 -16 -19 -28 -34 -27 -34 2 0
-2 -13 -9 -30 -6 -16 -12 -55 -12 -85 -1 -99 83 -221 168 -246 56 -15 109 -12
145 10 35 21 67 54 68 70 0 5 5 12 10 15 5 3 19 26 32 50 88 175 -69 371 -260
322z"/>
<path d="M22598 14570 c-26 -27 -30 -36 -25 -70 10 -74 57 -91 107 -40 38 39
40 81 5 115 -32 33 -50 31 -87 -5z"/>
<path d="M24262 14480 c-92 -42 -139 -174 -91 -259 60 -108 186 -127 276 -42
45 43 57 156 22 218 -29 52 -39 64 -69 75 -57 23 -98 26 -138 8z"/>
<path d="M27782 14403 c-8 -16 -15 -39 -28 -98 -3 -11 -5 -58 -6 -105 0 -96
27 -193 63 -222 28 -24 33 -23 49 10 21 42 22 50 25 161 3 105 -14 198 -46
249 -17 26 -45 29 -57 5z"/>
<path d="M25326 14378 c-44 -16 -92 -64 -117 -116 -35 -75 -16 -208 37 -268
87 -98 245 -83 317 29 25 38 31 70 29 141 -3 92 -51 172 -127 212 -27 14 -103
15 -139 2z"/>
<path d="M23590 14362 c-25 -8 -89 -86 -90 -109 -4 -85 -2 -105 16 -126 36
-42 72 -58 127 -56 46 3 55 7 89 43 36 39 38 45 38 107 0 62 -2 67 -38 104
-32 33 -44 39 -82 41 -25 1 -52 -1 -60 -4z"/>
<path d="M22893 14255 c-41 -29 -54 -118 -24 -172 7 -14 27 -25 58 -31 56 -12
98 4 113 44 11 29 13 104 4 129 -16 40 -110 59 -151 30z"/>
<path d="M27993 14225 c0 -22 2 -30 4 -17 2 12 2 30 0 40 -3 9 -5 -1 -4 -23z"/>
<path d="M22303 14183 c-24 -31 -18 -62 15 -74 17 -6 26 -2 42 18 11 15 18 33
15 41 -3 7 -5 20 -5 28 0 24 -44 15 -67 -13z"/>
<path d="M24617 14179 c-18 -15 -45 -45 -60 -66 -27 -39 -51 -129 -37 -138 4
-3 10 -18 13 -33 9 -46 89 -119 141 -130 78 -16 126 -5 169 40 85 88 82 222
-6 302 -41 36 -70 47 -134 50 -45 2 -58 -2 -86 -25z"/>
<path d="M27924 14148 c-14 -62 -16 -83 -19 -183 -4 -126 5 -189 26 -193 13
-2 18 8 24 45 11 73 14 326 4 346 -14 26 -27 21 -35 -15z"/>
<path d="M27514 14157 c-85 -48 -127 -184 -102 -332 12 -65 54 -152 78 -160
44 -14 96 22 134 90 l17 30 -7 -33 c-18 -98 -6 -189 34 -259 27 -48 55 -18 81
88 23 91 16 279 -10 279 -5 0 -9 7 -9 15 0 8 -3 15 -7 16 -5 0 -15 2 -24 4
-12 2 -22 -12 -35 -51 -10 -30 -22 -54 -27 -54 -4 0 -6 4 -3 8 24 40 22 194
-4 272 -28 83 -69 113 -116 87z"/>
<path d="M25724 14114 c-88 -60 -116 -111 -119 -215 -2 -85 12 -139 46 -176
106 -112 283 -83 347 57 9 19 16 37 17 40 0 3 3 10 6 15 12 21 1 122 -16 160
-53 113 -198 175 -281 119z"/>
<path d="M23943 14038 c-13 -6 -23 -15 -23 -20 0 -4 -6 -8 -14 -8 -19 0 -66
-72 -72 -109 -3 -19 1 -40 13 -57 9 -15 18 -34 19 -42 4 -25 46 -62 102 -87
49 -23 57 -24 81 -11 14 8 41 22 59 32 41 21 80 94 78 145 -3 59 -55 128 -119
157 -34 15 -94 15 -124 0z"/>
<path d="M23263 13944 c-36 -13 -88 -64 -66 -64 5 0 3 -4 -4 -8 -15 -10 -27
-72 -13 -72 5 0 7 -6 4 -14 -7 -18 32 -81 64 -102 35 -23 100 -22 140 1 84 50
71 199 -24 252 -45 26 -46 26 -101 7z"/>
<path d="M25094 13926 c-53 -19 -101 -58 -138 -114 -29 -44 -34 -60 -31 -96 9
-109 121 -214 235 -220 82 -5 190 124 192 228 0 43 -29 113 -60 146 -58 59
-131 79 -198 56z"/>
<path d="M27990 13903 c-1 -46 -10 -150 -15 -170 -3 -13 -2 -23 3 -23 5 0 9 6
9 13 0 6 4 54 8 105 4 50 5 92 1 92 -3 0 -6 -8 -6 -17z"/>
<path d="M26179 13886 c-118 -24 -208 -141 -194 -252 16 -135 28 -161 95 -213
42 -32 48 -33 107 -28 35 2 74 12 88 21 14 9 25 14 25 11 0 -13 71 66 79 88
21 54 28 146 17 202 -3 11 -5 27 -5 35 -2 32 -67 103 -119 129 -33 16 -44 17
-93 7z"/>
<path d="M22043 13811 c-10 -16 -10 -26 -1 -46 11 -24 12 -24 30 -9 22 21 22
26 1 53 -18 22 -18 22 -30 2z"/>
<path d="M22585 13778 c-26 -31 -24 -52 10 -81 41 -36 155 -5 155 42 0 9 -9
27 -20 41 -15 20 -28 25 -70 26 -45 0 -54 -3 -75 -28z"/>
<path d="M24355 13749 c-52 -25 -61 -35 -85 -85 -53 -109 -10 -231 97 -279 87
-38 205 18 246 118 16 37 15 107 -1 149 -14 35 -65 86 -99 99 -47 19 -117 18
-158 -2z"/>
<path d="M27969 13693 c-4 -36 -3 -86 2 -94 3 -5 7 11 7 37 1 25 5 50 8 55 3
5 0 9 -5 9 -6 0 -11 -3 -12 -7z"/>
<path d="M27873 13678 c-14 -19 -51 -110 -58 -144 -26 -131 -29 -200 -10 -246
11 -27 19 -22 39 20 55 113 72 225 53 340 -7 41 -11 46 -24 30z"/>
<path d="M25540 13664 c-96 -25 -127 -47 -157 -114 -18 -40 -24 -151 -11 -195
5 -16 10 -36 12 -42 4 -22 48 -62 90 -82 69 -33 187 -6 240 53 40 44 57 102
55 184 -2 102 -29 147 -116 191 -49 24 -42 24 -113 5z"/>
<path d="M27355 13632 c-47 -58 -89 -182 -86 -248 0 -13 -9 -29 -23 -37 -21
-14 -23 -21 -16 -54 4 -21 13 -52 19 -69 14 -38 64 -64 102 -54 36 10 87 57
106 97 8 18 19 33 24 33 6 0 4 -10 -2 -22 -7 -13 -12 -25 -12 -28 0 -3 -2 -11
-4 -17 -3 -7 -3 -56 -1 -108 6 -118 23 -149 84 -151 42 -2 61 8 75 41 10 21
10 19 -6 -50 -3 -11 -6 -47 -6 -79 -1 -47 3 -62 17 -73 17 -12 21 -11 40 13
19 24 68 111 69 124 0 3 4 10 7 16 15 23 34 130 33 178 -2 64 -23 81 -58 46
-13 -14 -29 -34 -34 -45 -9 -14 -11 2 -9 69 3 121 -14 159 -81 178 -43 13 -49
12 -57 -1 -5 -9 -12 -18 -15 -21 -4 -3 -12 -18 -19 -34 -19 -42 -23 -27 -7 26
33 109 1 265 -60 290 -46 19 -50 18 -80 -20z"/>
<path d="M23650 13634 c-59 -25 -100 -89 -102 -157 -1 -87 75 -166 167 -172
36 -3 52 2 84 26 136 98 78 298 -90 314 -15 1 -41 -4 -59 -11z"/>
<path d="M22961 13528 c-31 -11 -81 -66 -82 -90 -1 -10 -2 -24 -2 -30 -2 -32
35 -89 72 -114 38 -25 45 -26 79 -16 61 18 103 79 95 136 -10 75 -100 138
-162 114z"/>
<path d="M22329 13483 c-22 -5 -47 -54 -42 -83 4 -28 44 -70 66 -70 21 0 47
33 50 67 5 41 -40 94 -74 86z"/>
<path d="M24735 13424 c-57 -65 -72 -100 -73 -175 -2 -61 1 -68 32 -105 18
-22 55 -50 81 -63 44 -22 62 -25 137 -22 34 1 91 50 123 106 23 38 32 103 26
175 -2 23 -51 74 -98 104 -36 22 -54 26 -115 26 l-73 0 -40 -46z"/>
<path d="M27907 13423 c-32 -106 -49 -191 -52 -257 -4 -71 -3 -77 10 -59 34
48 55 142 57 246 1 77 -5 104 -15 70z"/>
<path d="M25907 13399 c-30 -8 -91 -51 -119 -84 -82 -96 -65 -299 30 -362 102
-67 263 -10 318 114 34 77 19 224 -28 284 -12 15 -71 50 -83 49 -3 0 -6 0 -7
1 -13 5 -89 4 -111 -2z"/>
<path d="M24095 13341 c-6 -5 -19 -11 -30 -13 -11 -1 -37 -23 -58 -48 -37 -44
-38 -46 -36 -125 2 -80 2 -80 44 -122 27 -28 53 -44 72 -47 17 -1 35 -6 42
-10 6 -4 26 -3 44 3 17 6 35 10 39 8 12 -4 87 75 96 102 16 50 -4 181 -28 181
-4 0 -22 14 -40 30 -18 17 -40 30 -50 30 -11 0 -22 5 -25 10 -8 13 -58 13 -70
1z"/>
<path d="M23351 13203 c-32 -14 -73 -54 -77 -77 -1 -6 -4 -22 -7 -36 -20 -112
136 -221 233 -163 36 21 53 56 56 113 5 112 -108 202 -205 163z"/>
<path d="M25210 13197 c-86 -41 -161 -152 -156 -232 10 -181 234 -261 353
-127 51 57 68 100 68 167 0 83 -37 145 -105 180 -54 27 -118 32 -160 12z"/>
<path d="M26279 13143 c-99 -49 -158 -138 -164 -247 -8 -126 68 -215 175 -207
33 3 130 47 130 60 0 3 12 20 26 36 52 60 66 100 65 188 0 100 -59 171 -151
182 -32 4 -56 0 -81 -12z"/>
<path d="M22671 13137 c-6 -6 -11 -17 -11 -24 0 -7 -4 -13 -8 -13 -5 0 -18 -9
-30 -20 -25 -24 -21 -38 25 -84 40 -40 68 -57 84 -51 19 8 69 79 69 99 0 23
-75 101 -98 103 -11 1 -25 -4 -31 -10z"/>
<path d="M22111 13056 c-8 -9 -8 -21 -1 -40 14 -37 30 -32 26 9 -3 42 -9 50
-25 31z"/>
<path d="M24510 13003 c-62 -36 -80 -53 -80 -75 0 -10 -4 -18 -8 -18 -10 0
-30 -78 -28 -107 5 -51 38 -101 85 -126 71 -39 113 -43 163 -17 109 57 155
171 105 264 -13 25 -27 43 -31 39 -3 -3 -6 -1 -6 6 0 15 -101 61 -133 61 -12
0 -42 -12 -67 -27z"/>
<path d="M27770 12958 c-35 -62 -88 -205 -95 -254 -2 -19 -7 -39 -10 -44 -3
-5 -2 -11 3 -14 11 -6 42 30 42 49 0 8 5 15 12 15 6 0 8 3 5 7 -4 3 1 12 11
20 10 9 11 11 2 7 -12 -6 -13 -5 -3 7 28 34 88 259 69 259 -3 0 -19 -24 -36
-52z"/>
<path d="M27344 12914 c-49 -36 -101 -110 -122 -171 -6 -18 -8 -33 -4 -33 5 0
8 -34 9 -75 1 -81 12 -105 47 -105 54 1 113 55 162 149 53 103 34 271 -32 271
-6 0 -33 -16 -60 -36z"/>
<path d="M25576 12910 c-142 -91 -151 -305 -15 -372 54 -27 147 -29 189 -4
128 74 162 238 71 343 -26 31 -64 45 -140 52 -57 6 -68 4 -105 -19z"/>
<path d="M26619 12910 c-92 -48 -160 -158 -164 -263 -4 -98 45 -160 128 -163
77 -3 158 60 209 164 30 61 35 172 10 215 -39 66 -112 85 -183 47z"/>
<path d="M23757 12882 c-71 -43 -93 -147 -47 -216 68 -100 183 -119 261 -45
77 73 53 185 -54 254 -35 23 -127 27 -160 7z"/>
<path d="M23051 12760 c-32 -32 -45 -79 -32 -113 14 -36 70 -86 108 -96 43
-12 78 0 110 37 61 71 -11 192 -120 198 -30 2 -43 -4 -66 -26z"/>
<path d="M24940 12740 c-108 -20 -179 -122 -158 -226 15 -74 108 -144 193
-144 79 0 176 66 192 130 3 14 8 29 11 35 12 20 -1 81 -25 125 -39 69 -115 98
-213 80z"/>
<path d="M27548 12741 c-36 -13 -91 -77 -124 -144 -29 -60 -34 -81 -34 -143 0
-85 11 -95 64 -59 l34 23 -27 -51 c-16 -29 -31 -65 -35 -82 -4 -16 -9 -38 -12
-47 -4 -13 -1 -16 10 -12 30 11 160 235 168 289 2 14 -2 20 -14 19 -14 -1 -15
2 -8 16 12 23 15 179 4 190 -5 4 -17 5 -26 1z"/>
<path d="M22439 12724 c-6 -7 -12 -29 -14 -48 -2 -35 21 -61 67 -79 22 -8 58
36 53 64 -8 40 -17 59 -25 54 -5 -3 -10 0 -12 6 -6 17 -55 19 -69 3z"/>
<path d="M26921 12702 c-23 -4 -74 -37 -112 -72 -28 -26 -67 -103 -79 -155
-11 -46 -12 -66 -8 -110 2 -24 44 -65 68 -66 11 -1 26 -2 33 -3 44 -7 146 89
184 174 64 143 24 250 -86 232z"/>
<path d="M25879 12637 c-30 -34 -60 -67 -67 -72 -14 -11 -12 -39 5 -70 6 -12
11 -44 10 -73 0 -45 4 -57 29 -83 45 -48 82 -63 159 -64 77 -2 71 -6 153 94
36 42 36 45 37 137 l2 93 -51 48 -51 48 -86 2 -86 3 -54 -63z"/>
<path d="M24238 12608 c-2 -5 -12 -11 -23 -13 -11 -2 -22 -4 -25 -5 -3 -1 -8
-2 -11 -2 -16 2 -61 -60 -78 -106 l-19 -51 28 -44 c34 -55 71 -84 123 -98 86
-23 156 15 193 106 l24 59 -41 61 c-39 55 -48 62 -105 81 -35 11 -65 16 -66
12z"/>
<path d="M27083 12443 c-75 -75 -141 -180 -144 -234 -10 -154 156 -64 251 136
39 81 28 165 -20 165 -10 0 -49 -30 -87 -67z"/>
<path d="M23513 12480 c-18 -4 -33 -5 -33 -3 0 8 -26 -21 -44 -49 -24 -37 -23
-79 3 -121 41 -67 142 -101 204 -68 28 15 59 76 54 106 -9 55 -67 121 -113
128 -11 1 -23 5 -29 8 -5 3 -25 3 -42 -1z"/>
<path d="M25336 12482 c-34 -4 -110 -79 -132 -131 -37 -87 -12 -157 71 -200
32 -17 55 -21 112 -18 70 2 73 3 105 41 18 22 47 55 65 75 18 20 28 38 22 39
-5 2 -9 22 -9 44 0 95 -108 164 -234 150z"/>
<path d="M26333 12440 c-98 -10 -182 -120 -179 -235 3 -84 44 -124 131 -127
66 -2 82 4 128 47 26 25 47 52 47 60 0 8 4 15 8 15 13 0 30 80 29 136 -2 39
-7 58 -22 71 -29 27 -83 39 -142 33z"/>
<path d="M22830 12400 c-32 -30 -37 -49 -19 -81 46 -87 120 -108 163 -47 25
36 19 58 -28 103 -58 56 -78 60 -116 25z"/>
<path d="M22293 12344 c-7 -20 19 -47 39 -39 13 5 13 11 4 31 -13 27 -34 32
-43 8z"/>
<path d="M27532 12328 c-12 -16 -122 -199 -122 -204 0 -2 5 -4 10 -4 6 0 10 5
10 11 0 6 13 29 29 52 33 49 93 157 88 157 -3 0 -9 -6 -15 -12z"/>
<path d="M24623 12310 c-50 -23 -81 -54 -103 -103 -22 -49 -21 -59 16 -113 30
-45 75 -71 136 -77 106 -12 208 93 183 190 -23 92 -141 145 -232 103z"/>
<path d="M27211 12282 c-39 -13 -126 -135 -115 -160 4 -9 8 -43 9 -76 0 -44 5
-61 19 -71 17 -13 17 -15 2 -37 -19 -26 -21 -47 -4 -30 21 21 27 13 12 -15
-14 -29 -18 -53 -8 -53 12 0 70 67 107 123 54 83 75 137 53 137 -7 0 -18 -6
-25 -12 -10 -11 -11 -7 -5 17 6 26 8 69 5 142 -1 24 -28 43 -50 35z"/>
<path d="M25735 12272 c-6 -5 -27 -15 -47 -22 -21 -6 -38 -16 -38 -21 0 -5 -7
-9 -15 -9 -8 0 -15 -4 -15 -9 0 -4 -12 -20 -26 -34 -15 -15 -27 -39 -28 -54
-2 -16 -8 -37 -14 -49 -14 -27 24 -113 60 -132 45 -24 117 -22 168 6 65 36 85
57 115 123 24 54 25 63 14 97 -24 74 -33 82 -139 107 -14 3 -30 2 -35 -3z"/>
<path d="M26590 12253 c-19 -8 -46 -27 -60 -42 -49 -52 -90 -109 -90 -123 0
-8 -3 -18 -7 -22 -4 -4 -9 -26 -10 -50 -2 -34 3 -49 24 -74 45 -55 120 -38
198 44 97 104 123 227 56 267 -35 20 -64 21 -111 0z"/>
<path d="M23925 12193 c-104 -56 -108 -148 -8 -215 90 -61 198 -30 223 63 9
34 8 43 -15 78 -21 34 -67 70 -97 77 -5 1 -9 2 -10 4 -13 10 -69 6 -93 -7z"/>
<path d="M23254 12108 c-23 -10 -41 -24 -41 -31 0 -7 -3 -21 -7 -33 -4 -15 3
-30 26 -57 69 -78 163 -76 187 4 11 35 10 41 -9 61 -11 12 -20 25 -20 29 0 3
-22 15 -48 26 -47 20 -49 20 -88 1z"/>
<path d="M25028 12072 c-77 -26 -118 -82 -113 -156 3 -48 29 -91 69 -111 33
-17 176 -12 176 7 0 4 5 8 11 8 14 0 46 36 66 74 17 32 12 101 -8 134 -34 54
-117 72 -201 44z"/>
<path d="M26815 12077 c-37 -12 -127 -103 -154 -155 -19 -37 -26 -77 -22 -128
2 -43 79 -33 137 16 155 133 181 314 39 267z"/>
<path d="M25985 12032 c-69 -41 -106 -95 -120 -172 -7 -37 22 -110 44 -111 60
-6 99 -3 121 8 14 7 28 13 32 13 9 0 40 25 70 55 55 55 77 174 38 208 -12 10
-45 20 -78 23 -50 5 -63 2 -107 -24z"/>
<path d="M22662 12023 c0 -37 15 -53 49 -53 22 0 30 6 35 26 8 30 -17 53 -57
54 -22 0 -27 -4 -27 -27z"/>
<path d="M24335 11948 c-6 -5 -19 -16 -31 -26 -26 -21 -41 -49 -44 -82 -9 -81
102 -157 197 -136 55 13 114 82 107 124 -8 42 -37 85 -72 105 -35 20 -140 30
-157 15z"/>
<path d="M27270 11953 c-1 -5 -23 -33 -50 -63 -28 -30 -50 -57 -51 -60 -5 -28
-5 -50 0 -50 3 0 17 17 31 38 14 20 28 42 33 47 16 21 57 86 57 90 0 8 -20 5
-20 -2z"/>
<path d="M26899 11882 c-30 -32 -68 -74 -85 -94 -37 -42 -64 -117 -53 -146 8
-20 11 -20 39 -8 18 7 53 34 80 59 102 97 139 170 114 219 -8 16 -20 28 -28
28 -7 0 -37 -26 -67 -58z"/>
<path d="M25479 11886 c-2 -2 -17 -6 -34 -9 -71 -12 -93 -22 -137 -64 -50 -49
-65 -92 -49 -136 12 -32 85 -80 126 -84 124 -11 251 169 169 240 -15 12 -33
28 -40 35 -8 7 -14 10 -14 5 0 -4 -4 -2 -8 5 -5 7 -10 10 -13 8z"/>
<path d="M26315 11870 c-102 -22 -203 -146 -196 -242 2 -27 42 -58 74 -58 68
0 172 80 210 162 24 50 22 90 -5 115 -30 26 -47 31 -83 23z"/>
<path d="M23655 11824 c-30 -33 -31 -55 -4 -103 27 -49 50 -62 120 -68 53 -5
60 -3 82 21 19 20 23 34 20 62 -2 20 -8 45 -14 55 -15 28 -78 56 -132 58 -40
2 -51 -2 -72 -25z"/>
<path d="M23054 11763 c-21 -23 -23 -29 -11 -46 7 -11 29 -29 49 -40 30 -18
40 -19 62 -9 14 6 28 23 32 37 5 22 0 32 -27 55 -43 37 -73 37 -105 3z"/>
<path d="M27140 11759 c0 -5 5 -7 10 -4 6 3 10 8 10 11 0 2 -4 4 -10 4 -5 0
-10 -5 -10 -11z"/>
<path d="M26995 11741 c-59 -37 -143 -129 -175 -190 -36 -72 17 -47 114 53 90
95 128 180 61 137z"/>
<path d="M24745 11725 c-49 -15 -93 -56 -97 -92 -4 -40 35 -116 67 -131 38
-17 97 -15 147 7 49 21 61 33 75 76 21 66 -17 128 -87 141 -59 11 -64 11 -105
-1z"/>
<path d="M26464 11680 c-71 -49 -148 -139 -143 -167 1 -4 0 -11 -1 -15 -13
-42 9 -62 59 -53 43 7 131 75 167 129 26 39 46 96 33 96 -5 0 -9 7 -9 15 0 8
-3 15 -7 16 -47 6 -65 2 -99 -21z"/>
<path d="M25691 11670 c-56 -26 -88 -63 -106 -123 -23 -79 4 -118 82 -116 95
2 180 71 198 162 15 74 -84 118 -174 77z"/>
<path d="M24079 11579 c-50 -47 -34 -110 35 -143 66 -31 144 -14 171 38 16 30
14 41 -11 83 -14 24 -30 35 -64 43 -64 15 -99 9 -131 -21z"/>
<path d="M26918 11563 c-87 -80 -181 -193 -107 -128 98 86 182 175 164 175 -3
0 -29 -21 -57 -47z"/>
<path d="M26583 11530 c-17 -10 -50 -38 -75 -62 -35 -34 -45 -50 -44 -73 2
-24 7 -31 28 -33 26 -3 39 5 115 73 66 59 46 138 -24 95z"/>
<path d="M23478 11526 c-10 -7 -21 -27 -24 -43 -5 -27 -3 -32 25 -41 16 -6 38
-20 48 -31 26 -31 55 -26 81 13 28 41 22 58 -33 91 -49 28 -72 31 -97 11z"/>
<path d="M25099 11513 c-76 -22 -104 -59 -101 -132 3 -57 82 -88 161 -65 77
22 117 79 98 139 -17 56 -82 80 -158 58z"/>
<path d="M22944 11493 c7 -14 20 -23 33 -23 19 0 21 3 14 22 -5 14 -17 23 -33
23 -22 2 -24 0 -14 -22z"/>
<path d="M25950 11491 c-47 -25 -80 -60 -108 -111 -27 -51 -27 -55 -2 -77 24
-23 109 -22 145 1 81 53 128 139 100 183 -19 29 -84 31 -135 4z"/>
<path d="M26620 11394 c-60 -41 -120 -96 -120 -109 0 -7 -7 -18 -15 -25 -22
-18 -19 -39 5 -33 12 3 20 0 20 -7 0 -7 16 0 38 16 64 49 72 58 61 65 -6 3 2
18 21 35 17 16 37 40 45 54 12 23 11 26 -3 27 -9 1 -33 -10 -52 -23z"/>
<path d="M24458 11393 c-34 -21 -47 -58 -36 -99 16 -63 140 -88 203 -40 31 24
33 34 26 98 -1 4 -19 19 -41 33 -47 30 -111 33 -152 8z"/>
<path d="M26145 11361 c-45 -22 -91 -61 -123 -108 -18 -25 -20 -36 -12 -57 5
-15 17 -26 28 -26 62 0 219 129 205 168 -17 47 -37 52 -98 23z"/>
<path d="M25380 11343 c-44 -21 -72 -59 -77 -105 -7 -57 12 -73 83 -72 80 0
165 67 159 124 -1 8 -3 23 -3 32 -1 9 -12 20 -24 24 -36 12 -111 11 -138 -3z"/>
<path d="M23868 11287 c-19 -35 -18 -48 7 -57 13 -5 29 -18 35 -30 13 -23 30
-27 30 -5 0 9 9 15 23 15 24 0 57 27 57 47 0 19 -52 45 -97 48 -36 3 -45 0
-55 -18z"/>
<path d="M23365 11260 c-19 -21 -13 -32 33 -57 29 -17 35 -16 49 6 10 17 7 22
-26 44 -38 25 -39 25 -56 7z"/>
<path d="M24870 11232 c-95 -12 -138 -85 -84 -140 32 -32 123 -22 175 20 61
49 -2 132 -91 120z"/>
<path d="M26285 11226 c-143 -78 -223 -163 -146 -154 53 6 181 104 187 142 3
20 -17 26 -41 12z"/>
<path d="M25634 11190 c-73 -38 -109 -91 -86 -128 13 -20 90 -25 126 -8 74 35
117 106 82 135 -22 19 -86 19 -122 1z"/>
<path d="M26475 11200 c-3 -5 -2 -10 4 -10 5 0 13 5 16 10 3 6 2 10 -4 10 -5
0 -13 -4 -16 -10z"/>
<path d="M24259 11126 c-27 -13 -34 -52 -15 -72 14 -14 56 -33 67 -30 3 0 12
-4 20 -10 10 -8 23 -6 49 7 19 10 31 18 27 19 -4 0 -3 9 3 19 8 16 4 24 -21
45 -17 14 -36 27 -42 28 -43 5 -69 4 -88 -6z"/>
<path d="M26285 11122 c-16 -8 -31 -19 -33 -24 -2 -4 -9 -8 -15 -8 -16 0 -112
-88 -105 -96 10 -10 107 47 157 92 47 43 46 60 -4 36z"/>
<path d="M25143 11099 c-44 -13 -90 -61 -87 -91 1 -12 3 -26 3 -31 2 -15 56
-28 93 -22 62 11 104 59 99 113 -1 10 -62 45 -73 41 -2 0 -17 -5 -35 -10z"/>
<path d="M25800 11077 c-22 -10 -40 -23 -40 -27 0 -5 -9 -11 -19 -15 -24 -7
-48 -62 -33 -77 31 -31 199 74 190 119 -5 25 -49 25 -98 0z"/>
<path d="M23751 11061 c-11 -7 -8 -12 10 -22 33 -18 45 -19 65 -4 16 11 16 13
-5 25 -19 10 -25 9 -32 -1 -7 -11 -11 -11 -17 -2 -4 7 -13 9 -21 4z"/>
<path d="M26185 10985 c-39 -19 -63 -34 -55 -35 8 0 30 9 48 20 18 11 39 20
46 20 7 0 19 7 26 15 17 21 15 20 -65 -20z"/>
<path d="M25945 10987 c-44 -15 -145 -88 -145 -105 0 -10 6 -12 18 -7 9 4 23
8 30 8 6 0 12 4 12 9 0 4 4 8 9 8 16 0 98 54 110 72 14 23 3 28 -34 15z"/>
<path d="M24585 10956 c-14 -14 -25 -29 -25 -34 0 -12 73 -51 90 -48 49 9 70
20 76 38 9 29 -26 59 -75 65 -33 4 -44 0 -66 -21z"/>
<path d="M25359 10960 c-64 -18 -103 -53 -88 -81 4 -9 5 -19 2 -23 -13 -13 56
-5 92 10 45 18 59 32 67 61 8 30 -26 46 -73 33z"/>
<path d="M24121 10909 c-12 -11 -21 -22 -21 -24 0 -11 67 -39 85 -36 34 5 46
20 34 43 -6 11 -13 17 -16 14 -4 -3 -11 -2 -17 3 -25 18 -45 19 -65 0z"/>
<path d="M25918 10887 c-16 -6 -28 -14 -28 -19 0 -4 -7 -8 -15 -8 -8 0 -15 -4
-15 -10 0 -14 7 -13 62 12 67 30 64 52 -4 25z"/>
<path d="M24903 10861 c-25 -7 -63 -36 -63 -50 0 -39 112 -37 142 3 9 12 13
28 9 34 -8 14 -57 21 -88 13z"/>
<path d="M25516 10857 c-30 -10 -86 -54 -86 -68 0 -19 38 -17 85 6 46 22 65
40 65 64 0 10 -32 10 -64 -2z"/>
<path d="M24449 10777 c-13 -11 -19 -22 -13 -24 6 -2 19 -10 30 -17 13 -10 25
-11 46 -4 39 14 36 42 -5 55 -28 8 -37 7 -58 -10z"/>
<path d="M25620 10791 c0 -6 -5 -11 -11 -11 -5 0 -30 -9 -55 -20 -48 -22 -62
-46 -16 -29 15 6 29 11 32 12 47 10 80 39 60 52 -6 4 -10 1 -10 -4z"/>
<path d="M25075 10750 c-15 -16 -15 -19 0 -34 9 -9 27 -15 38 -12 45 8 67 19
67 32 0 33 -79 43 -105 14z"/>
<path d="M24055 10740 c-4 -6 -4 -10 -1 -10 2 0 11 -3 20 -6 9 -3 16 -2 16 4
0 14 -28 23 -35 12z"/>
<path d="M25238 10693 c-30 -15 -37 -33 -13 -33 19 0 85 32 85 41 0 11 -43 6
-72 -8z"/>
<path d="M24701 10691 c-24 -15 4 -41 37 -35 37 7 51 22 32 34 -19 12 -51 12
-69 1z"/>
</g>
</svg>
